STARTFONT 2.1
COMMENT
COMMENT Converted from OpenType font "Xuong.otf" by "otf2bdf 3.0".
COMMENT
FONT -FreeType-Xuong-Bold-R-Normal--39-280-100-100-P-187-ISO10646-1
SIZE 28 100 100
FONTBOUNDINGBOX 41 47 -3 -6
STARTPROPERTIES 19
FOUNDRY "FreeType"
FAMILY_NAME "Xuong"
WEIGHT_NAME "Bold"
SLANT "R"
SETWIDTH_NAME "Normal"
ADD_STYLE_NAME ""
PIXEL_SIZE 39
POINT_SIZE 280
RESOLUTION_X 100
RESOLUTION_Y 100
SPACING "P"
AVERAGE_WIDTH 187
CHARSET_REGISTRY "ISO10646"
CHARSET_ENCODING "1"
FONT_ASCENT 35
FONT_DESCENT 7
COPYRIGHT "-FreeType-Xuong-Bold-R-Normal--39-280-100-100-P-187-ISO10646-1"
_OTF_FONTFILE "Xuong.otf"
_OTF_PSNAME "Xuong"
ENDPROPERTIES
CHARS 445
STARTCHAR 0000
ENCODING 0
SWIDTH 0 0
DWIDTH 0 0
BBX 0 0 0 0
BITMAP
ENDCHAR
STARTCHAR 000D
ENCODING 13
SWIDTH 231 0
DWIDTH 9 0
BBX 0 0 0 0
BITMAP
ENDCHAR
STARTCHAR 0020
ENCODING 32
SWIDTH 231 0
DWIDTH 9 0
BBX 0 0 0 0
BITMAP
ENDCHAR
STARTCHAR 0021
ENCODING 33
SWIDTH 154 0
DWIDTH 6 0
BBX 5 27 1 0
BITMAP
F8
F8
F8
F8
F8
F8
F8
F8
F8
F0
F0
70
70
70
70
70
70
70
70
70
00
00
F8
F8
F8
F8
F8
ENDCHAR
STARTCHAR 0022
ENCODING 34
SWIDTH 257 0
DWIDTH 10 0
BBX 10 10 0 17
BITMAP
FBC0
F3C0
F3C0
73C0
7380
7380
7380
7380
7380
7380
ENDCHAR
STARTCHAR 0023
ENCODING 35
SWIDTH 720 0
DWIDTH 28 0
BBX 28 27 0 0
BITMAP
001E0F00
001E0F00
001E1E00
001E1E00
003C1E00
003C3C00
003C3C00
003C3C00
1FFFFFF0
1FFFFFF0
1FFFFFF0
00787800
00F07800
00F0F000
00F0F000
7FFFFFC0
FFFFFFC0
FFFFFFC0
FFFFFFC0
03C1E000
03C3E000
03C3C000
03C3C000
0783C000
07878000
07878000
0F878000
ENDCHAR
STARTCHAR 0024
ENCODING 36
SWIDTH 540 0
DWIDTH 21 0
BBX 18 35 2 -4
BITMAP
01C000
01C000
01C000
01C000
FFFE00
FFFF00
FFFF00
FFFF80
FFFFC0
FFFFC0
FC0FC0
FE0000
FF0000
7F8000
3FC000
1FE000
0FF000
07F800
03FC00
01FE00
00FF00
007F80
007FC0
003FC0
F81FC0
FFFFC0
FFFFC0
FFFFC0
7FFFC0
3FFFC0
3FFF80
01C000
01C000
01C000
01C000
ENDCHAR
STARTCHAR 0025
ENCODING 37
SWIDTH 591 0
DWIDTH 23 0
BBX 20 27 2 0
BITMAP
FF03C0
FF87C0
FF8780
E78780
E78F00
E78F00
FF9E00
FF9E00
FF3C00
003C00
007800
007800
00F800
00F000
01F000
01E000
03E000
03C000
07CFF0
079FF0
0F9FF0
0F1C70
0F1C70
1E1C70
1E1FF0
3C1FF0
3C0FF0
ENDCHAR
STARTCHAR 0026
ENCODING 38
SWIDTH 694 0
DWIDTH 27 0
BBX 25 27 2 0
BITMAP
0FFF0000
0FFF8000
1FFFC000
3FFFC000
3FFFE000
3FFFE000
3F07E000
3E07E000
3E0FE000
3E1FE000
7FFFC000
FFFF8000
FFFF8000
FFFF8600
F81F8F00
F80FFF00
F80FFF80
F807FF80
F807FF00
F807FE00
FC1FF800
FFFFFC00
FFFFFE00
FFFFFE00
7FFF7F00
3FFE3F80
3FFC1F00
ENDCHAR
STARTCHAR 0027
ENCODING 39
SWIDTH 102 0
DWIDTH 4 0
BBX 5 10 0 17
BITMAP
F8
F0
F0
70
70
70
70
70
70
70
ENDCHAR
STARTCHAR 0028
ENCODING 40
SWIDTH 205 0
DWIDTH 8 0
BBX 7 30 1 -1
BITMAP
0E
1E
1E
3C
3C
78
78
F0
F0
F0
F0
F0
F0
F0
F0
F0
F0
F0
F0
F0
F0
F0
F0
F0
F8
78
3C
3C
1E
1E
ENDCHAR
STARTCHAR 0029
ENCODING 41
SWIDTH 205 0
DWIDTH 8 0
BBX 8 30 0 -1
BITMAP
F0
F0
78
78
3C
3C
1E
0F
0F
0F
0F
0F
0F
0F
0F
0F
0F
0F
0F
0F
0F
0F
0F
1F
1E
3E
3C
78
78
F0
ENDCHAR
STARTCHAR 002A
ENCODING 42
SWIDTH 385 0
DWIDTH 15 0
BBX 14 13 1 14
BITMAP
0780
0780
67B0
7FF8
FFFC
7FF8
1FE0
7FF0
FFFC
FFF8
77B0
0790
0780
ENDCHAR
STARTCHAR 002B
ENCODING 43
SWIDTH 411 0
DWIDTH 16 0
BBX 15 15 1 6
BITMAP
0780
0780
0780
0780
0780
FFFE
FFFE
FFFE
FFFE
0780
0780
0780
0780
0780
0780
ENDCHAR
STARTCHAR 002C
ENCODING 44
SWIDTH 180 0
DWIDTH 7 0
BBX 7 9 -1 -4
BITMAP
1E
1E
1E
1E
1E
3C
7C
78
F0
ENDCHAR
STARTCHAR 002D
ENCODING 45
SWIDTH 411 0
DWIDTH 16 0
BBX 15 4 1 13
BITMAP
FFFE
FFFE
FFFE
FFFE
ENDCHAR
STARTCHAR 002E
ENCODING 46
SWIDTH 154 0
DWIDTH 6 0
BBX 4 5 1 0
BITMAP
F0
F0
F0
F0
F0
ENDCHAR
STARTCHAR 002F
ENCODING 47
SWIDTH 257 0
DWIDTH 10 0
BBX 12 31 -1 -2
BITMAP
00F0
00F0
00E0
01E0
01E0
01E0
03C0
03C0
03C0
03C0
0780
0780
0780
0780
0F00
0F00
0F00
0F00
1E00
1E00
1E00
3C00
3C00
3C00
3C00
7800
7800
7800
7800
F000
F000
ENDCHAR
STARTCHAR 0030
ENCODING 48
SWIDTH 565 0
DWIDTH 22 0
BBX 19 27 2 0
BITMAP
3FFF00
7FFF80
7FFFC0
FFFFE0
FFFFE0
FFFFE0
FC0FE0
FC07E0
FC07E0
FC07E0
FC07E0
FC07E0
FC07E0
FC07E0
FC07E0
FC07E0
FC07E0
FC07E0
FC07E0
FC07E0
FC0FE0
FFFFE0
FFFFE0
FFFFC0
7FFFC0
3FFF80
3FFF00
ENDCHAR
STARTCHAR 0031
ENCODING 49
SWIDTH 385 0
DWIDTH 15 0
BBX 12 27 2 0
BITMAP
07F0
0FF0
1FF0
7FF0
FFF0
FFF0
FFF0
FFF0
FBF0
F3F0
E3F0
03F0
03F0
03F0
03F0
03F0
03F0
03F0
03F0
03F0
03F0
03F0
03F0
03F0
03F0
03F0
03F0
ENDCHAR
STARTCHAR 0032
ENCODING 50
SWIDTH 540 0
DWIDTH 21 0
BBX 18 27 2 0
BITMAP
3FFF80
7FFFC0
7FFFC0
FFFFC0
FFFFC0
FFFFC0
FE0FC0
FC0FC0
001FC0
003FC0
007FC0
00FF80
00FF00
01FE00
03FC00
07F800
0FF000
1FE000
3FC000
7F8000
FF0000
FFFF80
FFFFC0
FFFFC0
FFFFC0
FFFFC0
FFFFC0
ENDCHAR
STARTCHAR 0033
ENCODING 51
SWIDTH 514 0
DWIDTH 20 0
BBX 17 27 2 0
BITMAP
FFFF00
FFFF80
FFFF80
7FFF80
3FFF80
3FFF80
001F80
001F80
001F80
001F80
1FFF80
1FFF80
1FFF80
1FFF80
1FFF80
1FFF80
001F80
001F80
001F80
001F80
001F80
1FFF80
3FFF80
7FFF80
FFFF80
FFFF80
FFFF00
ENDCHAR
STARTCHAR 0034
ENCODING 52
SWIDTH 565 0
DWIDTH 22 0
BBX 19 27 2 0
BITMAP
00FF00
01FF00
03FF00
03FF00
07FF00
07FF00
0FFF00
1FFF00
1FFF00
3FBF00
3FBF00
7F3F00
FE3F00
FE3F00
FC3F00
FC3F00
FFFFC0
FFFFE0
FFFFE0
FFFFE0
FFFFE0
FFFFE0
003F00
003F00
003F00
003F00
003F00
ENDCHAR
STARTCHAR 0035
ENCODING 53
SWIDTH 514 0
DWIDTH 20 0
BBX 17 27 2 0
BITMAP
FFFF80
FFFF80
FFFF00
FFFE00
FFFC00
FFFC00
FC0000
FC0000
FC0000
FC0000
FFFF00
FFFF80
FFFF80
FFFF80
FFFF80
FFFF80
001F80
001F80
001F80
001F80
001F80
3FFF80
3FFF80
7FFF80
FFFF80
FFFF80
FFFF00
ENDCHAR
STARTCHAR 0036
ENCODING 54
SWIDTH 540 0
DWIDTH 21 0
BBX 18 27 2 0
BITMAP
FFFE00
FFFF00
FFFF00
FFFF80
FFFFC0
FFFFC0
FC0FC0
FC0FC0
FC0000
FC0000
FC0000
FC0000
FFFF80
FFFFC0
FFFFC0
FFFFC0
FFFFC0
FC1FC0
FC0FC0
FC0FC0
FC1FC0
FFFFC0
FFFFC0
FFFFC0
FFFFC0
FFFFC0
FFFF80
ENDCHAR
STARTCHAR 0037
ENCODING 55
SWIDTH 462 0
DWIDTH 18 0
BBX 16 27 1 0
BITMAP
FFFF
FFFF
FFFF
7FFF
3FFF
3FFF
007F
007F
00FE
00FE
00FE
01FC
01FC
01FC
03F8
03F8
03F8
07F0
07F0
07F0
07F0
0FE0
0FE0
0FE0
1FC0
1FC0
1FC0
ENDCHAR
STARTCHAR 0038
ENCODING 56
SWIDTH 565 0
DWIDTH 22 0
BBX 19 27 2 0
BITMAP
3FFF80
7FFF80
7FFFC0
FFFFE0
FFFFE0
FFFFE0
FE0FE0
FC07E0
FC07E0
FC07E0
FC07E0
FE0FE0
7FFFC0
3FFF80
FFFFC0
FE0FE0
FC07E0
FC07E0
FC07E0
FC07E0
FE0FE0
FFFFE0
FFFFE0
FFFFE0
7FFFC0
3FFF80
3FFF00
ENDCHAR
STARTCHAR 0039
ENCODING 57
SWIDTH 540 0
DWIDTH 21 0
BBX 18 27 2 0
BITMAP
FFFF80
FFFFC0
FFFFC0
FFFFC0
FFFFC0
FFFFC0
FC1FC0
FC0FC0
FC1FC0
FC1FC0
FFFFC0
FFFFC0
FFFFC0
FFFFC0
FFFFC0
000FC0
000FC0
000FC0
000FC0
F80FC0
FC0FC0
FFFFC0
FFFFC0
FFFFC0
7FFFC0
3FFFC0
3FFF80
ENDCHAR
STARTCHAR 003A
ENCODING 58
SWIDTH 154 0
DWIDTH 6 0
BBX 4 19 1 0
BITMAP
F0
F0
F0
F0
00
00
00
00
00
00
00
00
00
00
F0
F0
F0
F0
F0
ENDCHAR
STARTCHAR 003B
ENCODING 59
SWIDTH 154 0
DWIDTH 6 0
BBX 7 23 -1 -4
BITMAP
3E
3E
3E
3E
00
00
00
00
00
00
00
00
00
00
1C
1E
1E
1E
3C
3C
78
F8
F0
ENDCHAR
STARTCHAR 003C
ENCODING 60
SWIDTH 385 0
DWIDTH 15 0
BBX 14 21 1 5
BITMAP
0004
001C
007C
01FC
07FC
1FF8
3FE0
FF80
FE00
F800
F000
F000
FC00
FF00
7FC0
1FF0
0FFC
03FC
00FC
003C
000C
ENDCHAR
STARTCHAR 003D
ENCODING 61
SWIDTH 411 0
DWIDTH 16 0
BBX 15 10 1 8
BITMAP
FFFE
FFFE
FFFE
FFFE
0000
0000
FFFE
FFFE
FFFE
FFFE
ENDCHAR
STARTCHAR 003E
ENCODING 62
SWIDTH 385 0
DWIDTH 15 0
BBX 14 21 1 5
BITMAP
8000
C000
F000
FC00
FF00
FFC0
3FF0
0FFC
03FC
00FC
003C
007C
01FC
07FC
1FF8
7FE0
FF80
FE00
F800
E000
8000
ENDCHAR
STARTCHAR 003F
ENCODING 63
SWIDTH 514 0
DWIDTH 20 0
BBX 17 27 2 0
BITMAP
3FFF80
7FFF80
7FFF80
FFFF80
FFFF80
FFFF80
F81F80
F81F80
003F80
003F00
007E00
007E00
00FC00
01F800
01F800
03F000
03F000
03F000
03F000
03F000
000000
000000
03F000
03F000
03F000
03F000
03F000
ENDCHAR
STARTCHAR 0040
ENCODING 64
SWIDTH 771 0
DWIDTH 30 0
BBX 27 31 2 -4
BITMAP
FFFFFFE0
FFFFFFE0
FFFFFFE0
FFFFFFE0
F00001E0
F00001E0
F03F81E0
F07FC1E0
F07FC1E0
F07FC1E0
F071C1E0
F071E1E0
F0F1E1E0
F0F1E1E0
F0F1E1E0
F0F0E1E0
F0E0F1E0
F1E0F1E0
F1FFF1E0
F1FFF1E0
F1FFF1E0
F1E0FFE0
F3E07FE0
F3C07FE0
F3C07FE0
F0000000
F0000000
FFFF8000
FFFF8000
FFFF8000
FFFF8000
ENDCHAR
STARTCHAR 0041
ENCODING 65
SWIDTH 565 0
DWIDTH 22 0
BBX 22 27 0 0
BITMAP
03FF80
07FF80
07FFC0
07FFC0
07FFC0
07FFC0
0FC7C0
0F87E0
0F87E0
0F83E0
0F83E0
1F83E0
1F83F0
1F03F0
1F03F0
1F01F0
3F83F0
3FFFF8
3FFFF8
3FFFF8
3FFFF8
7E01F8
7E00FC
7E00FC
7E00FC
7E00FC
FE00FC
ENDCHAR
STARTCHAR 0042
ENCODING 66
SWIDTH 565 0
DWIDTH 22 0
BBX 19 27 2 0
BITMAP
FFFF00
FFFF80
FFFFC0
FFFFE0
FFFFE0
FC0FE0
FC07E0
FC07E0
FC07E0
FC07E0
FC0FE0
FFFFE0
FFFF80
FFFF80
FFFFE0
FFFFE0
FC0FE0
FC07E0
FC07E0
FC07E0
FC07E0
FC0FE0
FFFFE0
FFFFC0
FFFFC0
FFFF80
FFFF00
ENDCHAR
STARTCHAR 0043
ENCODING 67
SWIDTH 540 0
DWIDTH 21 0
BBX 18 27 2 0
BITMAP
FFFE00
FFFF00
FFFF80
FFFF80
FFFFC0
FFFFC0
FC0FC0
FC0000
FC0000
FC0000
FC0000
FC0000
FC0000
FC0000
FC0000
FC0000
FC0000
FC0000
FC0000
FC0000
FC1FC0
FFFFC0
FFFFC0
FFFF80
FFFF00
FFFF00
FFFE00
ENDCHAR
STARTCHAR 0044
ENCODING 68
SWIDTH 565 0
DWIDTH 22 0
BBX 19 27 2 0
BITMAP
FFFF00
FFFF80
FFFFC0
FFFFE0
FFFFE0
FFFFE0
FC0FE0
FC07E0
FC07E0
FC07E0
FC07E0
FC07E0
FC07E0
FC07E0
FC07E0
FC07E0
FC07E0
FC07E0
FC07E0
FC07E0
FC0FE0
FFFFE0
FFFFE0
FFFFC0
FFFFC0
FFFF80
FFFF00
ENDCHAR
STARTCHAR 0045
ENCODING 69
SWIDTH 540 0
DWIDTH 21 0
BBX 18 27 2 0
BITMAP
FFFE00
FFFF00
FFFF00
FFFF80
FFFFC0
FFFFC0
FC0FC0
FC0000
FC0000
FC0000
FC0000
FFF800
FFF800
FFF800
FFF800
FFF800
FC0000
FC0000
FC0000
FC0000
FC0FC0
FFFFC0
FFFFC0
FFFF80
FFFF00
FFFF00
FFFE00
ENDCHAR
STARTCHAR 0046
ENCODING 70
SWIDTH 488 0
DWIDTH 19 0
BBX 16 27 2 0
BITMAP
FFFC
FFFE
FFFF
FFFF
FFFF
FFFF
FC0F
FC00
FC00
FC00
FC00
FC00
FFFC
FFFC
FFFC
FFFC
FFFC
FC00
FC00
FC00
FC00
FC00
FC00
FC00
FC00
FC00
FC00
ENDCHAR
STARTCHAR 0047
ENCODING 71
SWIDTH 540 0
DWIDTH 21 0
BBX 18 27 2 0
BITMAP
FFFE00
FFFF00
FFFF80
FFFFC0
FFFFC0
FFFFC0
FC0FC0
FC0000
FC0000
FC0000
FC0000
FC7FC0
FC7FC0
FC7FC0
FC7FC0
FC7FC0
FC7FC0
FC0FC0
FC0FC0
FC0FC0
FC0FC0
FFFFC0
FFFFC0
FFFFC0
FFFFC0
FFFFC0
FFF9C0
ENDCHAR
STARTCHAR 0048
ENCODING 72
SWIDTH 565 0
DWIDTH 22 0
BBX 19 27 2 0
BITMAP
FC07E0
FC07E0
FC07E0
FC07E0
FC07E0
FC07E0
FC07E0
FC07E0
FC07E0
FC0FE0
FFFFE0
FFFFE0
FFFFE0
FFFFE0
FFFFE0
FFFFE0
FC0FE0
FC07E0
FC07E0
FC07E0
FC07E0
FC07E0
FC07E0
FC07E0
FC07E0
FC07E0
FC07E0
ENDCHAR
STARTCHAR 0049
ENCODING 73
SWIDTH 231 0
DWIDTH 9 0
BBX 6 27 2 0
BITMAP
FC
FC
FC
FC
FC
FC
FC
FC
FC
FC
FC
FC
FC
FC
FC
FC
FC
FC
FC
FC
FC
FC
FC
FC
FC
FC
FC
ENDCHAR
STARTCHAR 004A
ENCODING 74
SWIDTH 488 0
DWIDTH 19 0
BBX 16 27 2 0
BITMAP
1FFF
1FFF
1FFF
1FFF
1FFF
1FFF
003F
003F
003F
003F
003F
003F
003F
003F
003F
003F
003F
003F
003F
003F
FC3F
FFFF
FFFF
FFFF
7FFF
3FFF
3FFF
ENDCHAR
STARTCHAR 004B
ENCODING 75
SWIDTH 565 0
DWIDTH 22 0
BBX 19 27 2 0
BITMAP
FC0FE0
FC0FE0
FC1FE0
FC3FC0
FC3FC0
FC7F80
FCFF00
FCFE00
FDFE00
FFFC00
FFF800
FFF800
FFF000
FFE000
FFF000
FFF800
FFF800
FFFC00
FDFE00
FCFF00
FCFF00
FC7F80
FC3FC0
FC1FC0
FC1FE0
FC0FE0
FC07E0
ENDCHAR
STARTCHAR 004C
ENCODING 76
SWIDTH 411 0
DWIDTH 16 0
BBX 14 27 2 0
BITMAP
FC00
FC00
FC00
FC00
FC00
FC00
FC00
FC00
FC00
FC00
FC00
FC00
FC00
FC00
FC00
FC00
FC00
FC00
FC00
FC00
FC00
FFFC
FFFC
FFFC
FFF8
FFF0
FFE0
ENDCHAR
STARTCHAR 004D
ENCODING 77
SWIDTH 694 0
DWIDTH 27 0
BBX 23 27 2 0
BITMAP
3F83F8
7F83FC
7FC7FC
FFC7FE
FFC7FE
FFC7FE
FFC7FE
FFC7FE
FFE7FE
FDEF7E
FDEF7E
FDEF7E
FDEF7E
FDEF7E
FDEF7E
FCFE7E
FCFE7E
FCFE7E
FCFE7E
FCFE7E
FC7C7E
FC007E
FC007E
FC007E
FC007E
FC007E
FC007E
ENDCHAR
STARTCHAR 004E
ENCODING 78
SWIDTH 565 0
DWIDTH 22 0
BBX 19 27 2 0
BITMAP
3C07E0
7C07E0
7E07E0
FE07E0
FF07E0
FF07E0
FF87E0
FF87E0
FFC7E0
FFC7E0
FFC7E0
FFE7E0
FFE7E0
FDFFE0
FDFFE0
FDFFE0
FCFFE0
FCFFE0
FC7FE0
FC7FE0
FC3FE0
FC3FE0
FC1FE0
FC1FC0
FC0F80
FC0F80
FC0F00
ENDCHAR
STARTCHAR 004F
ENCODING 79
SWIDTH 617 0
DWIDTH 24 0
BBX 21 27 2 0
BITMAP
3FFFC0
7FFFE0
7FFFE0
FFFFF0
FFFFF8
FFFFF8
FC03F8
FC01F8
FC01F8
FC01F8
FC01F8
FC01F8
FC01F8
FC01F8
FC01F8
FC01F8
FC01F8
FC01F8
FC01F8
FC01F8
FC03F8
FFFFF8
FFFFF8
FFFFF0
7FFFE0
3FFFE0
3FFFC0
ENDCHAR
STARTCHAR 0050
ENCODING 80
SWIDTH 540 0
DWIDTH 21 0
BBX 18 27 2 0
BITMAP
FFFE00
FFFF00
FFFF00
FFFF80
FFFFC0
FFFFC0
FC1FC0
FC1FC0
FC1FC0
FC1FC0
FC1FC0
FC1FC0
FFFFC0
FFFFC0
FFFF80
FFFF00
FFFF00
FFFE00
FC0000
FC0000
FC0000
FC0000
FC0000
FC0000
FC0000
FC0000
FC0000
ENDCHAR
STARTCHAR 0051
ENCODING 81
SWIDTH 642 0
DWIDTH 25 0
BBX 23 27 2 -1
BITMAP
3FFFC0
7FFFE0
7FFFE0
FFFFF0
FFFFF8
FFFFF8
FC03F8
FC01F8
FC01F8
FC01F8
FC01F8
FC01F8
FC01F8
FC01F8
FC01F8
FC01F8
FC01F8
FC01F8
FC01F8
FC01F8
FC03F8
FFFFFE
FFFFFE
FFFFFE
7FFFFE
3FFFFC
3FFFD8
ENDCHAR
STARTCHAR 0052
ENCODING 82
SWIDTH 540 0
DWIDTH 21 0
BBX 18 27 2 0
BITMAP
FFFE00
FFFF00
FFFF00
FFFF80
FFFF80
FFFF80
FC1F80
FC1F80
FC1F80
FC1F80
FC1F80
FFFF80
FFFF00
FFFF00
FFFE00
FFFE00
FFFE00
FC7E00
FC7F00
FC3F00
FC3F80
FC3F80
FC1FC0
FC1FC0
FC1FC0
FC0FC0
FC0FC0
ENDCHAR
STARTCHAR 0053
ENCODING 83
SWIDTH 540 0
DWIDTH 21 0
BBX 18 27 2 0
BITMAP
FFFE00
FFFF00
FFFF00
FFFF80
FFFFC0
FFFFC0
FC0FC0
FE0000
FF0000
7F8000
3FC000
1FE000
0FF000
07F800
03FC00
01FE00
00FF00
007F80
007FC0
003FC0
F81FC0
FFFFC0
FFFFC0
FFFFC0
7FFFC0
3FFFC0
3FFF80
ENDCHAR
STARTCHAR 0054
ENCODING 84
SWIDTH 514 0
DWIDTH 20 0
BBX 21 27 0 0
BITMAP
1FFFC0
3FFFE0
7FFFF0
FFFFF0
FFFFF8
FDFBF8
F9F8F8
F1F878
01F800
01F800
01F800
01F800
01F800
01F800
01F800
01F800
01F800
01F800
01F800
01F800
01F800
01F800
01F800
01F800
01F800
01F800
01F800
ENDCHAR
STARTCHAR 0055
ENCODING 85
SWIDTH 591 0
DWIDTH 23 0
BBX 20 27 2 0
BITMAP
FC03F0
FC03F0
FC03F0
FC03F0
FC03F0
FC03F0
FC03F0
FC03F0
FC03F0
FC03F0
FC03F0
FC03F0
FC03F0
FC03F0
FC03F0
FC03F0
FC03F0
FC03F0
FC03F0
FC03F0
FC03F0
FFFFF0
FFFFF0
FFFFF0
7FFFE0
3FFFC0
3FFFC0
ENDCHAR
STARTCHAR 0056
ENCODING 86
SWIDTH 565 0
DWIDTH 22 0
BBX 22 27 0 0
BITMAP
FC00FC
7C00FC
7E00FC
7E00F8
7E01F8
7E01F8
3E01F8
3E01F8
3F01F0
3F01F0
3F01F0
1F03F0
1F03F0
1F03E0
1F03E0
1F83E0
0F83E0
0F87E0
0F87C0
0F87C0
0F87C0
07FFC0
07FFC0
07FF80
07FF80
07FF80
03FF00
ENDCHAR
STARTCHAR 0057
ENCODING 87
SWIDTH 874 0
DWIDTH 34 0
BBX 31 27 2 0
BITMAP
FC00007E
FC0000FE
FC0000FE
FC0000FE
FC0000FC
FE0000FC
FE0000FC
7E0001FC
7E0FC1FC
7E0FE1F8
7F0FE1F8
7F1FE1F8
3F1FF1F8
3F1FF3F8
3F1EF3F0
3FBEF3F0
3FBEFBF0
1FFCFFF0
1FFC7FF0
1FFC7FE0
1FFC7FE0
0FF87FE0
0FF87FE0
0FF83FE0
0FF83FC0
0FF83FC0
07F03FC0
ENDCHAR
STARTCHAR 0058
ENCODING 88
SWIDTH 591 0
DWIDTH 23 0
BBX 20 27 2 0
BITMAP
FC03F0
FC03F0
FE07F0
FE07F0
FE07F0
7F0FE0
7F0FE0
3F9FC0
3F9FC0
1FBF80
1FFF80
0FFF00
0FFF00
0FFF00
0FFF00
1FFF80
1FFF80
3FBFC0
3F9FC0
7F1FC0
7F0FE0
7F0FE0
FE07F0
FE07F0
FC07F0
FC03F0
FC03F0
ENDCHAR
STARTCHAR 0059
ENCODING 89
SWIDTH 462 0
DWIDTH 18 0
BBX 18 27 0 0
BITMAP
FC0FC0
FC0FC0
FE0FC0
FE1FC0
7E1F80
7F1F80
3F3F80
3F3F00
1FBF00
1FFE00
0FFE00
0FFC00
0FFC00
07F800
07F800
03F800
03F000
03F000
03F000
03F000
03F000
03F000
03F000
03F000
03F000
03F000
03F000
ENDCHAR
STARTCHAR 005A
ENCODING 90
SWIDTH 565 0
DWIDTH 22 0
BBX 19 27 2 0
BITMAP
FFFF00
FFFF80
FFFF80
FFFFC0
FFFFC0
FFFFC0
007F80
007F00
00FF00
00FE00
01FE00
03FC00
03F800
07F800
07F000
0FF000
1FE000
1FC000
3FC000
7F8000
7F8000
FFFFC0
FFFFE0
FFFFE0
7FFFE0
3FFFE0
3FFFE0
ENDCHAR
STARTCHAR 005B
ENCODING 91
SWIDTH 231 0
DWIDTH 9 0
BBX 8 31 1 -2
BITMAP
FF
FF
FF
FE
F0
F0
F0
F0
F0
F0
F0
F0
F0
F0
F0
F0
F0
F0
F0
F0
F0
F0
F0
F0
F0
F0
F0
FE
FF
FF
FF
ENDCHAR
STARTCHAR 005C
ENCODING 92
SWIDTH 257 0
DWIDTH 10 0
BBX 12 31 -1 -2
BITMAP
F000
F000
7800
7800
7800
7800
3C00
3C00
3C00
3C00
1E00
1E00
1E00
1F00
0F00
0F00
0F00
0780
0780
0780
0780
03C0
03C0
03C0
03C0
01E0
01E0
01E0
01F0
00F0
00F0
ENDCHAR
STARTCHAR 005D
ENCODING 93
SWIDTH 231 0
DWIDTH 9 0
BBX 8 31 1 -2
BITMAP
FF
FF
FF
FF
0F
0F
0F
0F
0F
0F
0F
0F
0F
0F
0F
0F
0F
0F
0F
0F
0F
0F
0F
0F
0F
0F
0F
FF
FF
FF
FF
ENDCHAR
STARTCHAR 005E
ENCODING 94
SWIDTH 565 0
DWIDTH 22 0
BBX 21 14 1 13
BITMAP
01FC00
03FE00
03FE00
07FF00
079F00
0F8F80
0F0F80
1F07C0
3E07C0
3E03E0
7C03E0
7C01F0
F801F8
F800F8
ENDCHAR
STARTCHAR 005F
ENCODING 95
SWIDTH 411 0
DWIDTH 16 0
BBX 15 4 1 0
BITMAP
FFFE
FFFE
FFFE
FFFE
ENDCHAR
STARTCHAR 0060
ENCODING 96
SWIDTH 385 0
DWIDTH 15 0
BBX 14 4 1 29
BITMAP
F000
FF80
FFFC
1FFC
ENDCHAR
STARTCHAR 0061
ENCODING 97
SWIDTH 565 0
DWIDTH 22 0
BBX 22 27 0 0
BITMAP
03FF80
07FF80
07FFC0
07FFC0
07FFC0
07FFC0
0FC7C0
0F87E0
0F87E0
0F83E0
0F83E0
1F83E0
1F83F0
1F03F0
1F03F0
1F01F0
3F83F0
3FFFF8
3FFFF8
3FFFF8
3FFFF8
7E01F8
7E00FC
7E00FC
7E00FC
7E00FC
FE00FC
ENDCHAR
STARTCHAR 0062
ENCODING 98
SWIDTH 565 0
DWIDTH 22 0
BBX 19 27 2 0
BITMAP
FFFF00
FFFF80
FFFFC0
FFFFE0
FFFFE0
FC0FE0
FC07E0
FC07E0
FC07E0
FC07E0
FC0FE0
FFFFE0
FFFF80
FFFF80
FFFFE0
FFFFE0
FC0FE0
FC07E0
FC07E0
FC07E0
FC07E0
FC0FE0
FFFFE0
FFFFC0
FFFFC0
FFFF80
FFFF00
ENDCHAR
STARTCHAR 0063
ENCODING 99
SWIDTH 540 0
DWIDTH 21 0
BBX 18 27 2 0
BITMAP
FFFE00
FFFF00
FFFF80
FFFF80
FFFFC0
FFFFC0
FC0FC0
FC0000
FC0000
FC0000
FC0000
FC0000
FC0000
FC0000
FC0000
FC0000
FC0000
FC0000
FC0000
FC0000
FC1FC0
FFFFC0
FFFFC0
FFFF80
FFFF00
FFFF00
FFFE00
ENDCHAR
STARTCHAR 0064
ENCODING 100
SWIDTH 565 0
DWIDTH 22 0
BBX 19 27 2 0
BITMAP
FFFF00
FFFF80
FFFFC0
FFFFE0
FFFFE0
FFFFE0
FC0FE0
FC07E0
FC07E0
FC07E0
FC07E0
FC07E0
FC07E0
FC07E0
FC07E0
FC07E0
FC07E0
FC07E0
FC07E0
FC07E0
FC0FE0
FFFFE0
FFFFE0
FFFFC0
FFFFC0
FFFF80
FFFF00
ENDCHAR
STARTCHAR 0065
ENCODING 101
SWIDTH 540 0
DWIDTH 21 0
BBX 18 27 2 0
BITMAP
FFFE00
FFFF00
FFFF00
FFFF80
FFFFC0
FFFFC0
FC0FC0
FC0000
FC0000
FC0000
FC0000
FFF800
FFF800
FFF800
FFF800
FFF800
FC0000
FC0000
FC0000
FC0000
FC0FC0
FFFFC0
FFFFC0
FFFF80
FFFF00
FFFF00
FFFE00
ENDCHAR
STARTCHAR 0066
ENCODING 102
SWIDTH 488 0
DWIDTH 19 0
BBX 16 27 2 0
BITMAP
FFFC
FFFE
FFFF
FFFF
FFFF
FFFF
FC0F
FC00
FC00
FC00
FC00
FC00
FFFC
FFFC
FFFC
FFFC
FFFC
FC00
FC00
FC00
FC00
FC00
FC00
FC00
FC00
FC00
FC00
ENDCHAR
STARTCHAR 0067
ENCODING 103
SWIDTH 540 0
DWIDTH 21 0
BBX 18 27 2 0
BITMAP
FFFE00
FFFF00
FFFF80
FFFFC0
FFFFC0
FFFFC0
FC0FC0
FC0000
FC0000
FC0000
FC0000
FC7FC0
FC7FC0
FC7FC0
FC7FC0
FC7FC0
FC7FC0
FC0FC0
FC0FC0
FC0FC0
FC0FC0
FFFFC0
FFFFC0
FFFFC0
FFFFC0
FFFFC0
FFF9C0
ENDCHAR
STARTCHAR 0068
ENCODING 104
SWIDTH 565 0
DWIDTH 22 0
BBX 19 27 2 0
BITMAP
FC07E0
FC07E0
FC07E0
FC07E0
FC07E0
FC07E0
FC07E0
FC07E0
FC07E0
FC0FE0
FFFFE0
FFFFE0
FFFFE0
FFFFE0
FFFFE0
FFFFE0
FC0FE0
FC07E0
FC07E0
FC07E0
FC07E0
FC07E0
FC07E0
FC07E0
FC07E0
FC07E0
FC07E0
ENDCHAR
STARTCHAR 0069
ENCODING 105
SWIDTH 231 0
DWIDTH 9 0
BBX 6 27 2 0
BITMAP
FC
FC
FC
FC
FC
FC
FC
FC
FC
FC
FC
FC
FC
FC
FC
FC
FC
FC
FC
FC
FC
FC
FC
FC
FC
FC
FC
ENDCHAR
STARTCHAR 006A
ENCODING 106
SWIDTH 488 0
DWIDTH 19 0
BBX 16 27 2 0
BITMAP
1FFF
1FFF
1FFF
1FFF
1FFF
1FFF
003F
003F
003F
003F
003F
003F
003F
003F
003F
003F
003F
003F
003F
003F
FC3F
FFFF
FFFF
FFFF
7FFF
3FFF
3FFF
ENDCHAR
STARTCHAR 006B
ENCODING 107
SWIDTH 565 0
DWIDTH 22 0
BBX 19 27 2 0
BITMAP
FC0FE0
FC0FE0
FC1FE0
FC3FC0
FC3FC0
FC7F80
FCFF00
FCFE00
FDFE00
FFFC00
FFF800
FFF800
FFF000
FFE000
FFF000
FFF800
FFF800
FFFC00
FDFE00
FCFF00
FCFF00
FC7F80
FC3FC0
FC1FC0
FC1FE0
FC0FE0
FC07E0
ENDCHAR
STARTCHAR 006C
ENCODING 108
SWIDTH 411 0
DWIDTH 16 0
BBX 14 27 2 0
BITMAP
FC00
FC00
FC00
FC00
FC00
FC00
FC00
FC00
FC00
FC00
FC00
FC00
FC00
FC00
FC00
FC00
FC00
FC00
FC00
FC00
FC00
FFFC
FFFC
FFFC
FFF8
FFF0
FFE0
ENDCHAR
STARTCHAR 006D
ENCODING 109
SWIDTH 694 0
DWIDTH 27 0
BBX 23 27 2 0
BITMAP
3F83F8
7F83FC
7FC7FC
FFC7FE
FFC7FE
FFC7FE
FFC7FE
FFC7FE
FFE7FE
FDEF7E
FDEF7E
FDEF7E
FDEF7E
FDEF7E
FDEF7E
FCFE7E
FCFE7E
FCFE7E
FCFE7E
FCFE7E
FC7C7E
FC007E
FC007E
FC007E
FC007E
FC007E
FC007E
ENDCHAR
STARTCHAR 006E
ENCODING 110
SWIDTH 565 0
DWIDTH 22 0
BBX 19 27 2 0
BITMAP
3C07E0
7C07E0
7E07E0
FE07E0
FF07E0
FF07E0
FF87E0
FF87E0
FFC7E0
FFC7E0
FFC7E0
FFE7E0
FFE7E0
FDFFE0
FDFFE0
FDFFE0
FCFFE0
FCFFE0
FC7FE0
FC7FE0
FC3FE0
FC3FE0
FC1FE0
FC1FC0
FC0F80
FC0F80
FC0F00
ENDCHAR
STARTCHAR 006F
ENCODING 111
SWIDTH 617 0
DWIDTH 24 0
BBX 21 27 2 0
BITMAP
3FFFC0
7FFFE0
7FFFE0
FFFFF0
FFFFF8
FFFFF8
FC03F8
FC01F8
FC01F8
FC01F8
FC01F8
FC01F8
FC01F8
FC01F8
FC01F8
FC01F8
FC01F8
FC01F8
FC01F8
FC01F8
FC03F8
FFFFF8
FFFFF8
FFFFF0
7FFFE0
3FFFE0
3FFFC0
ENDCHAR
STARTCHAR 0070
ENCODING 112
SWIDTH 540 0
DWIDTH 21 0
BBX 18 27 2 0
BITMAP
FFFE00
FFFF00
FFFF00
FFFF80
FFFFC0
FFFFC0
FC1FC0
FC1FC0
FC1FC0
FC1FC0
FC1FC0
FC1FC0
FFFFC0
FFFFC0
FFFF80
FFFF00
FFFF00
FFFE00
FC0000
FC0000
FC0000
FC0000
FC0000
FC0000
FC0000
FC0000
FC0000
ENDCHAR
STARTCHAR 0071
ENCODING 113
SWIDTH 642 0
DWIDTH 25 0
BBX 23 27 2 -1
BITMAP
3FFFC0
7FFFE0
7FFFE0
FFFFF0
FFFFF8
FFFFF8
FC03F8
FC01F8
FC01F8
FC01F8
FC01F8
FC01F8
FC01F8
FC01F8
FC01F8
FC01F8
FC01F8
FC01F8
FC01F8
FC01F8
FC03F8
FFFFFE
FFFFFE
FFFFFE
7FFFFE
3FFFFC
3FFFD8
ENDCHAR
STARTCHAR 0072
ENCODING 114
SWIDTH 540 0
DWIDTH 21 0
BBX 18 27 2 0
BITMAP
FFFE00
FFFF00
FFFF00
FFFF80
FFFF80
FFFF80
FC1F80
FC1F80
FC1F80
FC1F80
FC1F80
FFFF80
FFFF00
FFFF00
FFFE00
FFFE00
FFFE00
FC7E00
FC7F00
FC3F00
FC3F80
FC3F80
FC1FC0
FC1FC0
FC1FC0
FC0FC0
FC0FC0
ENDCHAR
STARTCHAR 0073
ENCODING 115
SWIDTH 540 0
DWIDTH 21 0
BBX 18 27 2 0
BITMAP
FFFE00
FFFF00
FFFF00
FFFF80
FFFFC0
FFFFC0
FC0FC0
FE0000
FF0000
7F8000
3FC000
1FE000
0FF000
07F800
03FC00
01FE00
00FF00
007F80
007FC0
003FC0
F81FC0
FFFFC0
FFFFC0
FFFFC0
7FFFC0
3FFFC0
3FFF80
ENDCHAR
STARTCHAR 0074
ENCODING 116
SWIDTH 514 0
DWIDTH 20 0
BBX 21 27 0 0
BITMAP
1FFFC0
3FFFE0
7FFFF0
FFFFF0
FFFFF8
FDFBF8
F9F8F8
F1F878
01F800
01F800
01F800
01F800
01F800
01F800
01F800
01F800
01F800
01F800
01F800
01F800
01F800
01F800
01F800
01F800
01F800
01F800
01F800
ENDCHAR
STARTCHAR 0075
ENCODING 117
SWIDTH 591 0
DWIDTH 23 0
BBX 20 27 2 0
BITMAP
FC03F0
FC03F0
FC03F0
FC03F0
FC03F0
FC03F0
FC03F0
FC03F0
FC03F0
FC03F0
FC03F0
FC03F0
FC03F0
FC03F0
FC03F0
FC03F0
FC03F0
FC03F0
FC03F0
FC03F0
FC03F0
FFFFF0
FFFFF0
FFFFF0
7FFFE0
3FFFC0
3FFFC0
ENDCHAR
STARTCHAR 0076
ENCODING 118
SWIDTH 565 0
DWIDTH 22 0
BBX 22 27 0 0
BITMAP
FC00FC
7C00FC
7E00FC
7E00F8
7E01F8
7E01F8
3E01F8
3E01F8
3F01F0
3F01F0
3F01F0
1F03F0
1F03F0
1F03E0
1F03E0
1F83E0
0F83E0
0F87E0
0F87C0
0F87C0
0F87C0
07FFC0
07FFC0
07FF80
07FF80
07FF80
03FF00
ENDCHAR
STARTCHAR 0077
ENCODING 119
SWIDTH 874 0
DWIDTH 34 0
BBX 31 27 2 0
BITMAP
FC00007E
FC0000FE
FC0000FE
FC0000FE
FC0000FC
FE0000FC
FE0000FC
7E0001FC
7E0FC1FC
7E0FE1F8
7F0FE1F8
7F1FE1F8
3F1FF1F8
3F1FF3F8
3F1EF3F0
3FBEF3F0
3FBEFBF0
1FFCFFF0
1FFC7FF0
1FFC7FE0
1FFC7FE0
0FF87FE0
0FF87FE0
0FF83FE0
0FF83FC0
0FF83FC0
07F03FC0
ENDCHAR
STARTCHAR 0078
ENCODING 120
SWIDTH 591 0
DWIDTH 23 0
BBX 20 27 2 0
BITMAP
FC03F0
FC03F0
FE07F0
FE07F0
FE07F0
7F0FE0
7F0FE0
3F9FC0
3F9FC0
1FBF80
1FFF80
0FFF00
0FFF00
0FFF00
0FFF00
1FFF80
1FFF80
3FBFC0
3F9FC0
7F1FC0
7F0FE0
7F0FE0
FE07F0
FE07F0
FC07F0
FC03F0
FC03F0
ENDCHAR
STARTCHAR 0079
ENCODING 121
SWIDTH 462 0
DWIDTH 18 0
BBX 18 27 0 0
BITMAP
FC0FC0
FC0FC0
FE0FC0
FE1FC0
7E1F80
7F1F80
3F3F80
3F3F00
1FBF00
1FFE00
0FFE00
0FFC00
0FFC00
07F800
07F800
03F800
03F000
03F000
03F000
03F000
03F000
03F000
03F000
03F000
03F000
03F000
03F000
ENDCHAR
STARTCHAR 007A
ENCODING 122
SWIDTH 565 0
DWIDTH 22 0
BBX 19 27 2 0
BITMAP
FFFF00
FFFF80
FFFF80
FFFFC0
FFFFC0
FFFFC0
007F80
007F00
00FF00
00FE00
01FE00
03FC00
03F800
07F800
07F000
0FF000
1FE000
1FC000
3FC000
7F8000
7F8000
FFFFC0
FFFFE0
FFFFE0
7FFFE0
3FFFE0
3FFFE0
ENDCHAR
STARTCHAR 007B
ENCODING 123
SWIDTH 282 0
DWIDTH 11 0
BBX 10 31 1 -2
BITMAP
3FC0
3FC0
3FC0
3F80
3C00
3C00
3C00
3C00
3C00
3C00
3C00
3C00
3C00
7C00
F000
F000
F000
7800
3C00
3C00
3C00
3C00
3C00
3C00
3C00
3C00
3C00
3F80
3FC0
3FC0
3FC0
ENDCHAR
STARTCHAR 007C
ENCODING 124
SWIDTH 128 0
DWIDTH 5 0
BBX 4 31 1 -2
BITMAP
F0
F0
F0
F0
F0
F0
F0
F0
F0
F0
F0
F0
F0
F0
F0
F0
F0
F0
F0
F0
F0
F0
F0
F0
F0
F0
F0
F0
F0
F0
F0
ENDCHAR
STARTCHAR 007D
ENCODING 125
SWIDTH 282 0
DWIDTH 11 0
BBX 10 31 1 -2
BITMAP
FE00
FE00
FE00
FE00
1E00
1E00
1E00
1E00
1E00
1E00
1E00
1E00
1E00
0F80
07C0
03C0
07C0
0F80
1E00
1E00
1E00
1E00
1E00
1E00
1E00
1E00
1E00
FE00
FE00
FE00
FE00
ENDCHAR
STARTCHAR 007E
ENCODING 126
SWIDTH 437 0
DWIDTH 17 0
BBX 16 5 1 11
BITMAP
0E00
3FC3
FFFF
F1FF
E03C
ENDCHAR
STARTCHAR 00A1
ENCODING 161
SWIDTH 154 0
DWIDTH 6 0
BBX 5 27 1 0
BITMAP
F8
F8
F8
F8
00
00
00
70
70
70
70
70
70
70
70
70
F0
F0
F8
F8
F8
F8
F8
F8
F8
F8
F0
ENDCHAR
STARTCHAR 00A2
ENCODING 162
SWIDTH 540 0
DWIDTH 21 0
BBX 18 35 2 -4
BITMAP
03C000
03C000
03C000
03C000
FFFE00
FFFF00
FFFF80
FFFF80
FFFFC0
FFFFC0
FC0FC0
FC0000
FC0000
FC0000
FC0000
FC0000
FC0000
FC0000
FC0000
FC0000
FC0000
FC0000
FC0000
FC0000
FC1FC0
FFFFC0
FFFFC0
FFFF80
FFFF00
FFFF00
FFFE00
03C000
03C000
03C000
03C000
ENDCHAR
STARTCHAR 00A3
ENCODING 163
SWIDTH 488 0
DWIDTH 19 0
BBX 16 27 2 0
BITMAP
FFFF
FFFF
FFFF
FFFF
FFFF
FFFF
FC3F
FC1F
FC00
7C00
FFFF
FFFF
FFFF
FFFF
3F00
1F80
1F80
1F80
3F00
7E00
FC00
FFFE
FFFF
FFFF
FFFF
FFFF
FFFF
ENDCHAR
STARTCHAR 00A4
ENCODING 164
SWIDTH 308 0
DWIDTH 12 0
BBX 11 10 1 8
BITMAP
C060
7FC0
7FC0
7FC0
71C0
71C0
71C0
7FC0
7FC0
C060
ENDCHAR
STARTCHAR 00A5
ENCODING 165
SWIDTH 462 0
DWIDTH 18 0
BBX 18 27 0 0
BITMAP
FC0FC0
FC0FC0
FE0FC0
FE1FC0
7E1F80
7F1F80
3F3F80
3F3F00
1FBF00
1FFE00
0FFE00
0FFC00
07FC00
07F800
3FFF00
3FFF00
3FFF00
03F000
03F000
3FFF00
3FFF00
3FFF00
3FFF00
03F000
03F000
03F000
03F000
ENDCHAR
STARTCHAR 00A6
ENCODING 166
SWIDTH 128 0
DWIDTH 5 0
BBX 4 30 1 -1
BITMAP
F0
F0
F0
F0
F0
F0
F0
F0
F0
F0
F0
F0
F0
F0
00
00
00
F0
F0
F0
F0
F0
F0
F0
F0
F0
F0
F0
F0
F0
ENDCHAR
STARTCHAR 00A7
ENCODING 167
SWIDTH 411 0
DWIDTH 16 0
BBX 13 27 2 0
BITMAP
7FF0
7FF0
7FF8
7FF8
7878
7C00
7E00
3F00
FF80
FFC0
FFE0
FFF0
F1F8
F8F8
FC78
7FF8
3FF8
1FF8
0FF8
07E0
03F0
01F0
F0F0
FFF0
FFF0
7FF0
7FF0
ENDCHAR
STARTCHAR 00A8
ENCODING 168
SWIDTH 282 0
DWIDTH 11 0
BBX 10 3 1 29
BITMAP
E3C0
E3C0
E3C0
ENDCHAR
STARTCHAR 00A9
ENCODING 169
SWIDTH 720 0
DWIDTH 28 0
BBX 27 31 1 -2
BITMAP
7FFFFFC0
FFFFFFE0
FFFFFFE0
FFFFFFE0
F00001E0
F00001E0
F00001E0
F0FF81E0
F0FFC1E0
F0FFC1E0
F0FFE1E0
F0E1E1E0
F0E001E0
F0E001E0
F0E001E0
F0E001E0
F0E001E0
F0E001E0
F0E001E0
F0E1E1E0
F0FFE1E0
F0FFC1E0
F0FFC1E0
F0FF81E0
F00001E0
F00001E0
F00001E0
FFFFFFE0
FFFFFFE0
FFFFFFC0
7FFFFF80
ENDCHAR
STARTCHAR 00AB
ENCODING 171
SWIDTH 462 0
DWIDTH 18 0
BBX 16 15 1 6
BITMAP
0101
0707
0F0F
1F1F
3C3C
F8F8
F0F0
F0F0
F0F0
7C7C
3E3E
1F1F
0707
0303
0101
ENDCHAR
STARTCHAR 00AC
ENCODING 172
SWIDTH 540 0
DWIDTH 21 0
BBX 20 10 1 5
BITMAP
FFFFF0
FFFFF0
FFFFF0
FFFFF0
0000F0
0000F0
0000F0
0000F0
0000F0
0000F0
ENDCHAR
STARTCHAR 00AE
ENCODING 174
SWIDTH 385 0
DWIDTH 15 0
BBX 13 15 1 12
BITMAP
FFF8
FFF8
C018
CF18
CF98
CD98
CD98
CF98
CD98
CD98
CD98
C018
C018
FFF8
FFF8
ENDCHAR
STARTCHAR 00AF
ENCODING 175
SWIDTH 411 0
DWIDTH 16 0
BBX 15 4 1 29
BITMAP
FFFE
FFFE
FFFE
FFFE
ENDCHAR
STARTCHAR 00B0
ENCODING 176
SWIDTH 231 0
DWIDTH 9 0
BBX 8 8 1 19
BITMAP
FF
FF
E7
E7
E7
FF
FF
7E
ENDCHAR
STARTCHAR 00B1
ENCODING 177
SWIDTH 411 0
DWIDTH 16 0
BBX 15 20 1 1
BITMAP
0780
0780
0780
0780
0780
FFFE
FFFE
FFFE
FFFE
0780
0780
0780
0780
0780
0780
0000
FFFE
FFFE
FFFE
FFFE
ENDCHAR
STARTCHAR 00B4
ENCODING 180
SWIDTH 385 0
DWIDTH 15 0
BBX 14 4 1 29
BITMAP
007C
7FFC
FFE0
FC00
ENDCHAR
STARTCHAR 00B6
ENCODING 182
SWIDTH 411 0
DWIDTH 16 0
BBX 13 27 2 0
BITMAP
FF98
FF98
FF98
FF98
FF98
FF98
FF98
FF98
FF98
FF98
FF98
FF98
0198
0198
0198
0198
0198
0198
0198
0198
0198
0198
0198
0198
0198
0198
0198
ENDCHAR
STARTCHAR 00B7
ENCODING 183
SWIDTH 154 0
DWIDTH 6 0
BBX 5 6 1 12
BITMAP
F8
F8
F8
F8
F8
F8
ENDCHAR
STARTCHAR 00B8
ENCODING 184
SWIDTH 180 0
DWIDTH 7 0
BBX 6 6 1 -6
BITMAP
0C
38
38
18
F8
F0
ENDCHAR
STARTCHAR 00BB
ENCODING 187
SWIDTH 462 0
DWIDTH 18 0
BBX 16 15 1 6
BITMAP
C0C0
E0E0
F0F0
7878
3E3E
1F1F
0F0F
0F0F
0F0F
1E1E
7C7C
F8F8
F0F0
C0C0
8080
ENDCHAR
STARTCHAR 00BC
ENCODING 188
SWIDTH 565 0
DWIDTH 22 0
BBX 19 27 2 0
BITMAP
3C0380
7C0780
FC0700
FC0F00
DC0E00
1C1E00
1C1C00
1C3C00
1C3800
1C7800
1C7000
1C7000
1CF000
00E3C0
01E7C0
01C7C0
03CFC0
039FC0
079DC0
073DC0
0F39C0
0E3FE0
1E3FE0
1C3FE0
3C01C0
3801C0
7801C0
ENDCHAR
STARTCHAR 00BD
ENCODING 189
SWIDTH 617 0
DWIDTH 24 0
BBX 21 27 2 0
BITMAP
3C0380
7C0780
FC0700
FC0F00
DC0E00
1C1E00
1C1C00
1C3C00
1C3800
1C7800
1C7000
1C7000
1CF000
00E3F8
01E7F8
01CFF8
03CF38
038038
078078
0700F0
0F01F0
0E03E0
1E07C0
1C0780
3C0FF8
380FF8
780FF8
ENDCHAR
STARTCHAR 00BE
ENCODING 190
SWIDTH 617 0
DWIDTH 24 0
BBX 21 27 2 0
BITMAP
FF00E0
FF01E0
7F01C0
0703C0
070380
7F0780
7F0700
7F0F00
070E00
071E00
7F1C00
FF3C00
FF3800
0038E0
0079F0
0071F0
00F3F0
00E7F0
01E770
01CF70
03CE70
038FF8
078FF8
070FF8
0F0070
0E0070
1E0070
ENDCHAR
STARTCHAR 00BF
ENCODING 191
SWIDTH 514 0
DWIDTH 20 0
BBX 17 27 2 0
BITMAP
07E000
07E000
07E000
07E000
000000
000000
000000
07E000
07E000
07E000
07E000
07E000
0FC000
1FC000
1F8000
3F0000
7F0000
7E0000
FC0000
FC0F80
FC0F80
FFFF80
FFFF80
FFFF80
FFFF00
FFFE00
FFFE00
ENDCHAR
STARTCHAR 00C0
ENCODING 192
SWIDTH 565 0
DWIDTH 22 0
BBX 22 33 0 0
BITMAP
0F0000
0FF800
0FFFC0
01FFC0
000000
000000
03FF80
07FF80
07FFC0
07FFC0
07FFC0
07FFC0
0FC7C0
0F87E0
0F87E0
0F83E0
0F83E0
1F83E0
1F83F0
1F03F0
1F03F0
1F01F0
3F83F0
3FFFF8
3FFFF8
3FFFF8
3FFFF8
7E01F8
7E00FC
7E00FC
7E00FC
7E00FC
FE00FC
ENDCHAR
STARTCHAR 00C1
ENCODING 193
SWIDTH 565 0
DWIDTH 22 0
BBX 22 33 0 0
BITMAP
0007C0
07FFC0
0FFE00
0FC000
000000
000000
03FF80
07FF80
07FFC0
07FFC0
07FFC0
07FFC0
0FC7C0
0F87E0
0F87E0
0F83E0
0F83E0
1F83E0
1F83F0
1F03F0
1F03F0
1F01F0
3F83F0
3FFFF8
3FFFF8
3FFFF8
3FFFF8
7E01F8
7E00FC
7E00FC
7E00FC
7E00FC
FE00FC
ENDCHAR
STARTCHAR 00C2
ENCODING 194
SWIDTH 565 0
DWIDTH 22 0
BBX 22 34 0 0
BITMAP
03FF00
07FF80
0FFFC0
1F03E0
1E01E0
000000
000000
03FF80
07FF80
07FFC0
07FFC0
07FFC0
07FFC0
0FC7C0
0F87E0
0F87E0
0F83E0
0F83E0
1F83E0
1F83F0
1F03F0
1F03F0
1F01F0
3F83F0
3FFFF8
3FFFF8
3FFFF8
3FFFF8
7E01F8
7E00FC
7E00FC
7E00FC
7E00FC
FE00FC
ENDCHAR
STARTCHAR 00C3
ENCODING 195
SWIDTH 565 0
DWIDTH 22 0
BBX 22 34 0 0
BITMAP
01C000
07F860
1FFFE0
1F3FE0
1C07C0
000000
000000
03FF80
07FF80
07FFC0
07FFC0
07FFC0
07FFC0
0FC7C0
0F87E0
0F87E0
0F83E0
0F83E0
1F83E0
1F83F0
1F03F0
1F03F0
1F01F0
3F83F0
3FFFF8
3FFFF8
3FFFF8
3FFFF8
7E01F8
7E00FC
7E00FC
7E00FC
7E00FC
FE00FC
ENDCHAR
STARTCHAR 00C4
ENCODING 196
SWIDTH 565 0
DWIDTH 22 0
BBX 22 32 0 0
BITMAP
01C700
01C700
01C700
000000
000000
03FF80
07FF80
07FFC0
07FFC0
07FFC0
07FFC0
0FC7C0
0F87E0
0F87E0
0F83E0
0F83E0
1F83E0
1F83F0
1F03F0
1F03F0
1F01F0
3F83F0
3FFFF8
3FFFF8
3FFFF8
3FFFF8
7E01F8
7E00FC
7E00FC
7E00FC
7E00FC
FE00FC
ENDCHAR
STARTCHAR 00C5
ENCODING 197
SWIDTH 565 0
DWIDTH 22 0
BBX 22 34 0 0
BITMAP
007C00
006C00
004C00
006C00
007C00
000000
000000
03FF80
07FF80
07FFC0
07FFC0
07FFC0
07FFC0
0FC7C0
0F87E0
0F87E0
0F83E0
0F83E0
1F83E0
1F83F0
1F03F0
1F03F0
1F01F0
3F83F0
3FFFF8
3FFFF8
3FFFF8
3FFFF8
7E01F8
7E00FC
7E00FC
7E00FC
7E00FC
FE00FC
ENDCHAR
STARTCHAR 00C6
ENCODING 198
SWIDTH 822 0
DWIDTH 32 0
BBX 31 27 0 0
BITMAP
03FFFFF8
07FFFFF8
07FFFFFC
07FFFFFE
07FFFFFE
07FFFFFE
0FC7E03E
0F87E000
0F87E000
0F87E000
0F87E000
1F87FFC0
1F87FFC0
1F07FFC0
1F07FFC0
1F07FFC0
3F87E000
3FFFE000
3FFFE000
3FFFE000
3FFFE03E
7E07FFFE
7E07FFFE
7E07FFFE
7E07FFFC
7E07FFF8
FE07FFF0
ENDCHAR
STARTCHAR 00C7
ENCODING 199
SWIDTH 540 0
DWIDTH 21 0
BBX 18 33 2 -6
BITMAP
FFFE00
FFFF00
FFFF80
FFFF80
FFFFC0
FFFFC0
FC0FC0
FC0000
FC0000
FC0000
FC0000
FC0000
FC0000
FC0000
FC0000
FC0000
FC0000
FC0000
FC0000
FC0000
FC1FC0
FFFFC0
FFFFC0
FFFF80
FFFF00
FFFF00
FFFE00
00E000
03C000
03C000
00C000
07C000
0F8000
ENDCHAR
STARTCHAR 00C8
ENCODING 200
SWIDTH 540 0
DWIDTH 21 0
BBX 18 33 2 0
BITMAP
780000
7FC000
7FFE00
0FFE00
000000
000000
FFFE00
FFFF00
FFFF00
FFFF80
FFFFC0
FFFFC0
FC0FC0
FC0000
FC0000
FC0000
FC0000
FFF800
FFF800
FFF800
FFF800
FFF800
FC0000
FC0000
FC0000
FC0000
FC0FC0
FFFFC0
FFFFC0
FFFF80
FFFF00
FFFF00
FFFE00
ENDCHAR
STARTCHAR 00C9
ENCODING 201
SWIDTH 540 0
DWIDTH 21 0
BBX 18 33 2 0
BITMAP
001E00
3FFE00
7FF800
7F0000
000000
000000
FFFE00
FFFF00
FFFF00
FFFF80
FFFFC0
FFFFC0
FC0FC0
FC0000
FC0000
FC0000
FC0000
FFF800
FFF800
FFF800
FFF800
FFF800
FC0000
FC0000
FC0000
FC0000
FC0FC0
FFFFC0
FFFFC0
FFFF80
FFFF00
FFFF00
FFFE00
ENDCHAR
STARTCHAR 00CA
ENCODING 202
SWIDTH 540 0
DWIDTH 21 0
BBX 18 34 2 0
BITMAP
1FF000
3FF800
FFFE00
F81E00
E00E00
000000
000000
FFFE00
FFFF00
FFFF00
FFFF80
FFFFC0
FFFFC0
FC0FC0
FC0000
FC0000
FC0000
FC0000
FFF800
FFF800
FFF800
FFF800
FFF800
FC0000
FC0000
FC0000
FC0000
FC0FC0
FFFFC0
FFFFC0
FFFF80
FFFF00
FFFF00
FFFE00
ENDCHAR
STARTCHAR 00CB
ENCODING 203
SWIDTH 540 0
DWIDTH 21 0
BBX 18 32 2 0
BITMAP
1E7800
1E7800
1E7800
000000
000000
FFFE00
FFFF00
FFFF00
FFFF80
FFFFC0
FFFFC0
FC0FC0
FC0000
FC0000
FC0000
FC0000
FFF800
FFF800
FFF800
FFF800
FFF800
FC0000
FC0000
FC0000
FC0000
FC0FC0
FFFFC0
FFFFC0
FFFF80
FFFF00
FFFF00
FFFE00
ENDCHAR
STARTCHAR 00CC
ENCODING 204
SWIDTH 231 0
DWIDTH 9 0
BBX 14 33 -2 0
BITMAP
F000
FF80
FFFC
0FFC
0000
0000
0FC0
0FC0
0FC0
0FC0
0FC0
0FC0
0FC0
0FC0
0FC0
0FC0
0FC0
0FC0
0FC0
0FC0
0FC0
0FC0
0FC0
0FC0
0FC0
0FC0
0FC0
0FC0
0FC0
0FC0
0FC0
0FC0
0FC0
ENDCHAR
STARTCHAR 00CD
ENCODING 205
SWIDTH 231 0
DWIDTH 9 0
BBX 14 33 -2 0
BITMAP
007C
FFFC
FFE0
FC00
0000
0000
0FC0
0FC0
0FC0
0FC0
0FC0
0FC0
0FC0
0FC0
0FC0
0FC0
0FC0
0FC0
0FC0
0FC0
0FC0
0FC0
0FC0
0FC0
0FC0
0FC0
0FC0
0FC0
0FC0
0FC0
0FC0
0FC0
0FC0
ENDCHAR
STARTCHAR 00CE
ENCODING 206
SWIDTH 488 0
DWIDTH 19 0
BBX 15 34 2 0
BITMAP
1FF0
3FF8
FFFE
F81E
E00E
0000
0000
07E0
07E0
07E0
07E0
07E0
07E0
07E0
07E0
07E0
07E0
07E0
07E0
07E0
07E0
07E0
07E0
07E0
07E0
07E0
07E0
07E0
07E0
07E0
07E0
07E0
07E0
07E0
ENDCHAR
STARTCHAR 00CF
ENCODING 207
SWIDTH 231 0
DWIDTH 9 0
BBX 10 32 0 0
BITMAP
E3C0
E3C0
E3C0
0000
0000
3F00
3F00
3F00
3F00
3F00
3F00
3F00
3F00
3F00
3F00
3F00
3F00
3F00
3F00
3F00
3F00
3F00
3F00
3F00
3F00
3F00
3F00
3F00
3F00
3F00
3F00
3F00
ENDCHAR
STARTCHAR 00D0
ENCODING 208
SWIDTH 565 0
DWIDTH 22 0
BBX 22 27 -1 0
BITMAP
1FFFE0
1FFFF0
1FFFF8
1FFFFC
1FFFFC
1FFFFC
1F81FC
1F80FC
1F80FC
1F80FC
1F80FC
1F80FC
FFF0FC
FFF0FC
FFF0FC
FFF0FC
1F80FC
1F80FC
1F80FC
1F80FC
1F81FC
1FFFFC
1FFFFC
1FFFF8
1FFFF8
1FFFF0
1FFFE0
ENDCHAR
STARTCHAR 00D1
ENCODING 209
SWIDTH 565 0
DWIDTH 22 0
BBX 19 34 2 0
BITMAP
070000
1FE180
3FFF80
7C7F80
701F00
000000
000000
3C07E0
7C07E0
7E07E0
FE07E0
FF07E0
FF07E0
FF87E0
FF87E0
FFC7E0
FFC7E0
FFC7E0
FFE7E0
FFE7E0
FDFFE0
FDFFE0
FDFFE0
FCFFE0
FCFFE0
FC7FE0
FC7FE0
FC3FE0
FC3FE0
FC1FE0
FC1FC0
FC0F80
FC0F80
FC0F00
ENDCHAR
STARTCHAR 00D2
ENCODING 210
SWIDTH 617 0
DWIDTH 24 0
BBX 21 33 2 0
BITMAP
1E0000
1FF000
1FFF80
01FF80
000000
000000
3FFFC0
7FFFE0
7FFFE0
FFFFF0
FFFFF8
FFFFF8
FC03F8
FC01F8
FC01F8
FC01F8
FC01F8
FC01F8
FC01F8
FC01F8
FC01F8
FC01F8
FC01F8
FC01F8
FC01F8
FC01F8
FC03F8
FFFFF8
FFFFF8
FFFFF0
7FFFE0
3FFFE0
3FFFC0
ENDCHAR
STARTCHAR 00D3
ENCODING 211
SWIDTH 617 0
DWIDTH 24 0
BBX 21 33 2 0
BITMAP
000780
0FFF80
1FFE00
1FC000
000000
000000
3FFFC0
7FFFE0
7FFFE0
FFFFF0
FFFFF8
FFFFF8
FC03F8
FC01F8
FC01F8
FC01F8
FC01F8
FC01F8
FC01F8
FC01F8
FC01F8
FC01F8
FC01F8
FC01F8
FC01F8
FC01F8
FC03F8
FFFFF8
FFFFF8
FFFFF0
7FFFE0
3FFFE0
3FFFC0
ENDCHAR
STARTCHAR 00D4
ENCODING 212
SWIDTH 617 0
DWIDTH 24 0
BBX 21 34 2 0
BITMAP
07FE00
0FFF00
1FFF80
3E07C0
3C03C0
000000
000000
3FFFC0
7FFFE0
7FFFE0
FFFFF0
FFFFF8
FFFFF8
FC03F8
FC01F8
FC01F8
FC01F8
FC01F8
FC01F8
FC01F8
FC01F8
FC01F8
FC01F8
FC01F8
FC01F8
FC01F8
FC01F8
FC03F8
FFFFF8
FFFFF8
FFFFF0
7FFFE0
3FFFE0
3FFFC0
ENDCHAR
STARTCHAR 00D5
ENCODING 213
SWIDTH 617 0
DWIDTH 24 0
BBX 21 34 2 0
BITMAP
038000
0FF0C0
3FFFC0
3C7FC0
380F00
000000
000000
3FFFC0
7FFFE0
7FFFE0
FFFFF0
FFFFF8
FFFFF8
FC03F8
FC01F8
FC01F8
FC01F8
FC01F8
FC01F8
FC01F8
FC01F8
FC01F8
FC01F8
FC01F8
FC01F8
FC01F8
FC01F8
FC03F8
FFFFF8
FFFFF8
FFFFF0
7FFFE0
3FFFE0
3FFFC0
ENDCHAR
STARTCHAR 00D6
ENCODING 214
SWIDTH 617 0
DWIDTH 24 0
BBX 21 32 2 0
BITMAP
079E00
079E00
079E00
000000
000000
3FFFC0
7FFFE0
7FFFE0
FFFFF0
FFFFF8
FFFFF8
FC03F8
FC01F8
FC01F8
FC01F8
FC01F8
FC01F8
FC01F8
FC01F8
FC01F8
FC01F8
FC01F8
FC01F8
FC01F8
FC01F8
FC03F8
FFFFF8
FFFFF8
FFFFF0
7FFFE0
3FFFE0
3FFFC0
ENDCHAR
STARTCHAR 00D7
ENCODING 215
SWIDTH 385 0
DWIDTH 15 0
BBX 14 12 1 7
BITMAP
3030
7878
FCFC
7FF8
3FF0
1FC0
1FE0
3FF0
7FF8
FCFC
7878
2010
ENDCHAR
STARTCHAR 00D8
ENCODING 216
SWIDTH 617 0
DWIDTH 24 0
BBX 21 33 2 -3
BITMAP
0001F0
0001E0
0003E0
3FFFC0
7FFFE0
7FFFE0
FFFFF0
FFFFF8
FFFFF8
FC1FF8
FC1FF8
FC3DF8
FC3DF8
FC7DF8
FC79F8
FCF9F8
FCF1F8
FDF1F8
FDE1F8
FFE1F8
FFC1F8
FFC1F8
FF81F8
FF83F8
FFFFF8
FFFFF8
FFFFF0
7FFFE0
3FFFE0
3FFFC0
7C0000
780000
F80000
ENDCHAR
STARTCHAR 00D9
ENCODING 217
SWIDTH 591 0
DWIDTH 23 0
BBX 20 33 2 0
BITMAP
1E0000
1FF000
1FFF80
03FF80
000000
000000
FC03F0
FC03F0
FC03F0
FC03F0
FC03F0
FC03F0
FC03F0
FC03F0
FC03F0
FC03F0
FC03F0
FC03F0
FC03F0
FC03F0
FC03F0
FC03F0
FC03F0
FC03F0
FC03F0
FC03F0
FC03F0
FFFFF0
FFFFF0
FFFFF0
7FFFE0
3FFFC0
3FFFC0
ENDCHAR
STARTCHAR 00DA
ENCODING 218
SWIDTH 591 0
DWIDTH 23 0
BBX 20 33 2 0
BITMAP
000F80
0FFF80
1FFC00
1FC000
000000
000000
FC03F0
FC03F0
FC03F0
FC03F0
FC03F0
FC03F0
FC03F0
FC03F0
FC03F0
FC03F0
FC03F0
FC03F0
FC03F0
FC03F0
FC03F0
FC03F0
FC03F0
FC03F0
FC03F0
FC03F0
FC03F0
FFFFF0
FFFFF0
FFFFF0
7FFFE0
3FFFC0
3FFFC0
ENDCHAR
STARTCHAR 00DB
ENCODING 219
SWIDTH 591 0
DWIDTH 23 0
BBX 20 34 2 0
BITMAP
07FE00
0FFF00
1FFF80
3E07C0
3C03C0
000000
000000
FC03F0
FC03F0
FC03F0
FC03F0
FC03F0
FC03F0
FC03F0
FC03F0
FC03F0
FC03F0
FC03F0
FC03F0
FC03F0
FC03F0
FC03F0
FC03F0
FC03F0
FC03F0
FC03F0
FC03F0
FC03F0
FFFFF0
FFFFF0
FFFFF0
7FFFE0
3FFFC0
3FFFC0
ENDCHAR
STARTCHAR 00DC
ENCODING 220
SWIDTH 591 0
DWIDTH 23 0
BBX 20 32 2 0
BITMAP
079E00
079E00
079E00
000000
000000
FC03F0
FC03F0
FC03F0
FC03F0
FC03F0
FC03F0
FC03F0
FC03F0
FC03F0
FC03F0
FC03F0
FC03F0
FC03F0
FC03F0
FC03F0
FC03F0
FC03F0
FC03F0
FC03F0
FC03F0
FC03F0
FFFFF0
FFFFF0
FFFFF0
7FFFE0
3FFFC0
3FFFC0
ENDCHAR
STARTCHAR 00DD
ENCODING 221
SWIDTH 462 0
DWIDTH 18 0
BBX 18 33 0 0
BITMAP
001F00
1FFF00
3FF800
3F0000
000000
000000
FC0FC0
FC0FC0
FE0FC0
FE1FC0
7E1F80
7F1F80
3F3F80
3F3F00
1FBF00
1FFE00
0FFE00
0FFC00
0FFC00
07F800
07F800
03F800
03F000
03F000
03F000
03F000
03F000
03F000
03F000
03F000
03F000
03F000
03F000
ENDCHAR
STARTCHAR 00DE
ENCODING 222
SWIDTH 540 0
DWIDTH 21 0
BBX 18 32 2 0
BITMAP
FC0000
FC0000
FC0000
FC0000
FC0000
FFFE00
FFFF00
FFFF00
FFFF80
FFFFC0
FFFFC0
FC1FC0
FC1FC0
FC1FC0
FC1FC0
FC1FC0
FC1FC0
FFFFC0
FFFFC0
FFFF80
FFFF00
FFFF00
FFFE00
FC0000
FC0000
FC0000
FC0000
FC0000
FC0000
FC0000
FC0000
FC0000
ENDCHAR
STARTCHAR 00DF
ENCODING 223
SWIDTH 565 0
DWIDTH 22 0
BBX 19 27 2 0
BITMAP
3FFF00
7FFF80
7FFFC0
FFFFE0
FFFFE0
FC0FE0
FC07E0
FC07E0
FC07E0
FC07E0
FCFFE0
FCFFE0
FCFF80
FCFF80
FCFFE0
FCFFE0
FC07E0
FC07E0
FC07E0
FC07E0
FC07E0
FC0FE0
FCFFE0
FCFFC0
FCFFC0
FCFF80
FCFF00
ENDCHAR
STARTCHAR 00E0
ENCODING 224
SWIDTH 565 0
DWIDTH 22 0
BBX 22 33 0 0
BITMAP
0F0000
0FF800
0FFFC0
01FFC0
000000
000000
03FF80
07FF80
07FFC0
07FFC0
07FFC0
07FFC0
0FC7C0
0F87E0
0F87E0
0F83E0
0F83E0
1F83E0
1F83F0
1F03F0
1F03F0
1F01F0
3F83F0
3FFFF8
3FFFF8
3FFFF8
3FFFF8
7E01F8
7E00FC
7E00FC
7E00FC
7E00FC
FE00FC
ENDCHAR
STARTCHAR 00E1
ENCODING 225
SWIDTH 565 0
DWIDTH 22 0
BBX 22 33 0 0
BITMAP
0007C0
07FFC0
0FFE00
0FC000
000000
000000
03FF80
07FF80
07FFC0
07FFC0
07FFC0
07FFC0
0FC7C0
0F87E0
0F87E0
0F83E0
0F83E0
1F83E0
1F83F0
1F03F0
1F03F0
1F01F0
3F83F0
3FFFF8
3FFFF8
3FFFF8
3FFFF8
7E01F8
7E00FC
7E00FC
7E00FC
7E00FC
FE00FC
ENDCHAR
STARTCHAR 00E2
ENCODING 226
SWIDTH 565 0
DWIDTH 22 0
BBX 22 34 0 0
BITMAP
03FF00
07FF80
0FFFC0
1F03E0
1E01E0
000000
000000
03FF80
07FF80
07FFC0
07FFC0
07FFC0
07FFC0
0FC7C0
0F87E0
0F87E0
0F83E0
0F83E0
1F83E0
1F83F0
1F03F0
1F03F0
1F01F0
3F83F0
3FFFF8
3FFFF8
3FFFF8
3FFFF8
7E01F8
7E00FC
7E00FC
7E00FC
7E00FC
FE00FC
ENDCHAR
STARTCHAR 00E3
ENCODING 227
SWIDTH 565 0
DWIDTH 22 0
BBX 22 34 0 0
BITMAP
01C000
07F860
1FFFE0
1F3FE0
1C07C0
000000
000000
03FF80
07FF80
07FFC0
07FFC0
07FFC0
07FFC0
0FC7C0
0F87E0
0F87E0
0F83E0
0F83E0
1F83E0
1F83F0
1F03F0
1F03F0
1F01F0
3F83F0
3FFFF8
3FFFF8
3FFFF8
3FFFF8
7E01F8
7E00FC
7E00FC
7E00FC
7E00FC
FE00FC
ENDCHAR
STARTCHAR 00E4
ENCODING 228
SWIDTH 565 0
DWIDTH 22 0
BBX 22 32 0 0
BITMAP
01C700
01C700
01C700
000000
000000
03FF80
07FF80
07FFC0
07FFC0
07FFC0
07FFC0
0FC7C0
0F87E0
0F87E0
0F83E0
0F83E0
1F83E0
1F83F0
1F03F0
1F03F0
1F01F0
3F83F0
3FFFF8
3FFFF8
3FFFF8
3FFFF8
7E01F8
7E00FC
7E00FC
7E00FC
7E00FC
FE00FC
ENDCHAR
STARTCHAR 00E5
ENCODING 229
SWIDTH 565 0
DWIDTH 22 0
BBX 22 34 0 0
BITMAP
007C00
006C00
004C00
006C00
007C00
000000
000000
03FF80
07FF80
07FFC0
07FFC0
07FFC0
07FFC0
0FC7C0
0F87E0
0F87E0
0F83E0
0F83E0
1F83E0
1F83F0
1F03F0
1F03F0
1F01F0
3F83F0
3FFFF8
3FFFF8
3FFFF8
3FFFF8
7E01F8
7E00FC
7E00FC
7E00FC
7E00FC
FE00FC
ENDCHAR
STARTCHAR 00E6
ENCODING 230
SWIDTH 822 0
DWIDTH 32 0
BBX 31 27 0 0
BITMAP
03FFFFF8
07FFFFF8
07FFFFFC
07FFFFFE
07FFFFFE
07FFFFFE
0FC7E03E
0F87E000
0F87E000
0F87E000
0F87E000
1F87FFC0
1F87FFC0
1F07FFC0
1F07FFC0
1F07FFC0
3F87E000
3FFFE000
3FFFE000
3FFFE000
3FFFE03E
7E07FFFE
7E07FFFE
7E07FFFE
7E07FFFC
7E07FFF8
FE07FFF0
ENDCHAR
STARTCHAR 00E7
ENCODING 231
SWIDTH 540 0
DWIDTH 21 0
BBX 18 33 2 -6
BITMAP
FFFE00
FFFF00
FFFF80
FFFF80
FFFFC0
FFFFC0
FC0FC0
FC0000
FC0000
FC0000
FC0000
FC0000
FC0000
FC0000
FC0000
FC0000
FC0000
FC0000
FC0000
FC0000
FC1FC0
FFFFC0
FFFFC0
FFFF80
FFFF00
FFFF00
FFFE00
00E000
03C000
03C000
00C000
07C000
0F8000
ENDCHAR
STARTCHAR 00E8
ENCODING 232
SWIDTH 540 0
DWIDTH 21 0
BBX 18 33 2 0
BITMAP
780000
7FC000
7FFE00
0FFE00
000000
000000
FFFE00
FFFF00
FFFF00
FFFF80
FFFFC0
FFFFC0
FC0FC0
FC0000
FC0000
FC0000
FC0000
FFF800
FFF800
FFF800
FFF800
FFF800
FC0000
FC0000
FC0000
FC0000
FC0FC0
FFFFC0
FFFFC0
FFFF80
FFFF00
FFFF00
FFFE00
ENDCHAR
STARTCHAR 00E9
ENCODING 233
SWIDTH 540 0
DWIDTH 21 0
BBX 18 33 2 0
BITMAP
001E00
3FFE00
7FF800
7F0000
000000
000000
FFFE00
FFFF00
FFFF00
FFFF80
FFFFC0
FFFFC0
FC0FC0
FC0000
FC0000
FC0000
FC0000
FFF800
FFF800
FFF800
FFF800
FFF800
FC0000
FC0000
FC0000
FC0000
FC0FC0
FFFFC0
FFFFC0
FFFF80
FFFF00
FFFF00
FFFE00
ENDCHAR
STARTCHAR 00EA
ENCODING 234
SWIDTH 540 0
DWIDTH 21 0
BBX 18 34 2 0
BITMAP
1FF000
3FF800
FFFE00
F81E00
E00E00
000000
000000
FFFE00
FFFF00
FFFF00
FFFF80
FFFFC0
FFFFC0
FC0FC0
FC0000
FC0000
FC0000
FC0000
FFF800
FFF800
FFF800
FFF800
FFF800
FC0000
FC0000
FC0000
FC0000
FC0FC0
FFFFC0
FFFFC0
FFFF80
FFFF00
FFFF00
FFFE00
ENDCHAR
STARTCHAR 00EB
ENCODING 235
SWIDTH 540 0
DWIDTH 21 0
BBX 18 32 2 0
BITMAP
1C7800
1C7800
1C7800
000000
000000
FFFE00
FFFF00
FFFF00
FFFF80
FFFFC0
FFFFC0
FC0FC0
FC0000
FC0000
FC0000
FC0000
FFF800
FFF800
FFF800
FFF800
FFF800
FC0000
FC0000
FC0000
FC0000
FC0FC0
FFFFC0
FFFFC0
FFFF80
FFFF00
FFFF00
FFFE00
ENDCHAR
STARTCHAR 00EC
ENCODING 236
SWIDTH 231 0
DWIDTH 9 0
BBX 14 33 -2 0
BITMAP
F000
FF00
FFF8
1FFC
0000
0000
0FC0
0FC0
0FC0
0FC0
0FC0
0FC0
0FC0
0FC0
0FC0
0FC0
0FC0
0FC0
0FC0
0FC0
0FC0
0FC0
0FC0
0FC0
0FC0
0FC0
0FC0
0FC0
0FC0
0FC0
0FC0
0FC0
0FC0
ENDCHAR
STARTCHAR 00ED
ENCODING 237
SWIDTH 231 0
DWIDTH 9 0
BBX 14 33 -2 0
BITMAP
007C
FFFC
FFE0
FC00
0000
0000
0FC0
0FC0
0FC0
0FC0
0FC0
0FC0
0FC0
0FC0
0FC0
0FC0
0FC0
0FC0
0FC0
0FC0
0FC0
0FC0
0FC0
0FC0
0FC0
0FC0
0FC0
0FC0
0FC0
0FC0
0FC0
0FC0
0FC0
ENDCHAR
STARTCHAR 00EE
ENCODING 238
SWIDTH 488 0
DWIDTH 19 0
BBX 16 34 2 0
BITMAP
1FF0
3FFC
FFFE
F81F
E00E
0000
0000
07E0
07E0
07E0
07E0
07E0
07E0
07E0
07E0
07E0
07E0
07E0
07E0
07E0
07E0
07E0
07E0
07E0
07E0
07E0
07E0
07E0
07E0
07E0
07E0
07E0
07E0
07E0
ENDCHAR
STARTCHAR 00EF
ENCODING 239
SWIDTH 231 0
DWIDTH 9 0
BBX 10 32 0 0
BITMAP
E3C0
E3C0
E3C0
0000
0000
3F00
3F00
3F00
3F00
3F00
3F00
3F00
3F00
3F00
3F00
3F00
3F00
3F00
3F00
3F00
3F00
3F00
3F00
3F00
3F00
3F00
3F00
3F00
3F00
3F00
3F00
3F00
ENDCHAR
STARTCHAR 00F0
ENCODING 240
SWIDTH 565 0
DWIDTH 22 0
BBX 22 27 -1 0
BITMAP
1FFFE0
1FFFF0
1FFFF8
1FFFFC
1FFFFC
1FFFFC
1F81FC
1F80FC
1F80FC
1F80FC
1F80FC
1F80FC
FFF0FC
FFF0FC
FFF0FC
FFF0FC
1F80FC
1F80FC
1F80FC
1F80FC
1F81FC
1FFFFC
1FFFFC
1FFFF8
1FFFF8
1FFFF0
1FFFE0
ENDCHAR
STARTCHAR 00F1
ENCODING 241
SWIDTH 565 0
DWIDTH 22 0
BBX 19 34 2 0
BITMAP
070000
1FE180
3FFF80
7C7F80
701F00
000000
000000
3C07E0
7C07E0
7E07E0
FE07E0
FF07E0
FF07E0
FF87E0
FF87E0
FFC7E0
FFC7E0
FFC7E0
FFE7E0
FFE7E0
FDFFE0
FDFFE0
FDFFE0
FCFFE0
FCFFE0
FC7FE0
FC7FE0
FC3FE0
FC3FE0
FC1FE0
FC1FC0
FC0F80
FC0F80
FC0F00
ENDCHAR
STARTCHAR 00F2
ENCODING 242
SWIDTH 617 0
DWIDTH 24 0
BBX 21 33 2 0
BITMAP
1E0000
1FF000
1FFF00
03FF80
000000
000000
3FFFC0
7FFFE0
7FFFE0
FFFFF0
FFFFF8
FFFFF8
FC03F8
FC01F8
FC01F8
FC01F8
FC01F8
FC01F8
FC01F8
FC01F8
FC01F8
FC01F8
FC01F8
FC01F8
FC01F8
FC01F8
FC03F8
FFFFF8
FFFFF8
FFFFF0
7FFFE0
3FFFE0
3FFFC0
ENDCHAR
STARTCHAR 00F3
ENCODING 243
SWIDTH 617 0
DWIDTH 24 0
BBX 21 33 2 0
BITMAP
000F80
0FFF80
1FFC00
1F8000
000000
000000
3FFFC0
7FFFE0
7FFFE0
FFFFF0
FFFFF8
FFFFF8
FC03F8
FC01F8
FC01F8
FC01F8
FC01F8
FC01F8
FC01F8
FC01F8
FC01F8
FC01F8
FC01F8
FC01F8
FC01F8
FC01F8
FC03F8
FFFFF8
FFFFF8
FFFFF0
7FFFE0
3FFFE0
3FFFC0
ENDCHAR
STARTCHAR 00F4
ENCODING 244
SWIDTH 617 0
DWIDTH 24 0
BBX 21 34 2 0
BITMAP
07FE00
0FFF00
1FFF80
3E07C0
3C03C0
000000
000000
3FFFC0
7FFFE0
7FFFE0
FFFFF0
FFFFF8
FFFFF8
FC03F8
FC01F8
FC01F8
FC01F8
FC01F8
FC01F8
FC01F8
FC01F8
FC01F8
FC01F8
FC01F8
FC01F8
FC01F8
FC01F8
FC03F8
FFFFF8
FFFFF8
FFFFF0
7FFFE0
3FFFE0
3FFFC0
ENDCHAR
STARTCHAR 00F5
ENCODING 245
SWIDTH 617 0
DWIDTH 24 0
BBX 21 34 2 0
BITMAP
038000
0FF0C0
3FFFC0
3C7FC0
380F00
000000
000000
3FFFC0
7FFFE0
7FFFE0
FFFFF0
FFFFF8
FFFFF8
FC03F8
FC01F8
FC01F8
FC01F8
FC01F8
FC01F8
FC01F8
FC01F8
FC01F8
FC01F8
FC01F8
FC01F8
FC01F8
FC01F8
FC03F8
FFFFF8
FFFFF8
FFFFF0
7FFFE0
3FFFE0
3FFFC0
ENDCHAR
STARTCHAR 00F6
ENCODING 246
SWIDTH 617 0
DWIDTH 24 0
BBX 21 32 2 0
BITMAP
079E00
079E00
079E00
000000
000000
3FFFC0
7FFFE0
7FFFE0
FFFFF0
FFFFF8
FFFFF8
FC03F8
FC01F8
FC01F8
FC01F8
FC01F8
FC01F8
FC01F8
FC01F8
FC01F8
FC01F8
FC01F8
FC01F8
FC01F8
FC01F8
FC03F8
FFFFF8
FFFFF8
FFFFF0
7FFFE0
3FFFE0
3FFFC0
ENDCHAR
STARTCHAR 00F7
ENCODING 247
SWIDTH 411 0
DWIDTH 16 0
BBX 15 14 1 7
BITMAP
0780
0780
0780
0780
0000
FFFE
FFFE
FFFE
FFFE
0000
0780
0780
0780
0780
ENDCHAR
STARTCHAR 00F8
ENCODING 248
SWIDTH 617 0
DWIDTH 24 0
BBX 21 33 2 -3
BITMAP
0001F0
0001E0
0003E0
3FFFC0
7FFFE0
7FFFE0
FFFFF0
FFFFF8
FFFFF8
FC1FF8
FC1FF8
FC3DF8
FC3DF8
FC7DF8
FC79F8
FCF9F8
FCF1F8
FDF1F8
FDE1F8
FFE1F8
FFC1F8
FFC1F8
FF81F8
FF83F8
FFFFF8
FFFFF8
FFFFF0
7FFFE0
3FFFE0
3FFFC0
7C0000
780000
F80000
ENDCHAR
STARTCHAR 00F9
ENCODING 249
SWIDTH 591 0
DWIDTH 23 0
BBX 20 33 2 0
BITMAP
1E0000
1FF000
1FFF80
03FF80
000000
000000
FC03F0
FC03F0
FC03F0
FC03F0
FC03F0
FC03F0
FC03F0
FC03F0
FC03F0
FC03F0
FC03F0
FC03F0
FC03F0
FC03F0
FC03F0
FC03F0
FC03F0
FC03F0
FC03F0
FC03F0
FC03F0
FFFFF0
FFFFF0
FFFFF0
7FFFE0
3FFFC0
3FFFC0
ENDCHAR
STARTCHAR 00FA
ENCODING 250
SWIDTH 591 0
DWIDTH 23 0
BBX 20 33 2 0
BITMAP
000F80
0FFF80
1FFC00
1FC000
000000
000000
FC03F0
FC03F0
FC03F0
FC03F0
FC03F0
FC03F0
FC03F0
FC03F0
FC03F0
FC03F0
FC03F0
FC03F0
FC03F0
FC03F0
FC03F0
FC03F0
FC03F0
FC03F0
FC03F0
FC03F0
FC03F0
FFFFF0
FFFFF0
FFFFF0
7FFFE0
3FFFC0
3FFFC0
ENDCHAR
STARTCHAR 00FB
ENCODING 251
SWIDTH 591 0
DWIDTH 23 0
BBX 20 34 2 0
BITMAP
07FE00
0FFF00
1FFF80
3E07C0
3C03C0
000000
000000
FC03F0
FC03F0
FC03F0
FC03F0
FC03F0
FC03F0
FC03F0
FC03F0
FC03F0
FC03F0
FC03F0
FC03F0
FC03F0
FC03F0
FC03F0
FC03F0
FC03F0
FC03F0
FC03F0
FC03F0
FC03F0
FFFFF0
FFFFF0
FFFFF0
7FFFE0
3FFFC0
3FFFC0
ENDCHAR
STARTCHAR 00FC
ENCODING 252
SWIDTH 591 0
DWIDTH 23 0
BBX 20 32 2 0
BITMAP
079E00
079E00
079E00
000000
000000
FC03F0
FC03F0
FC03F0
FC03F0
FC03F0
FC03F0
FC03F0
FC03F0
FC03F0
FC03F0
FC03F0
FC03F0
FC03F0
FC03F0
FC03F0
FC03F0
FC03F0
FC03F0
FC03F0
FC03F0
FC03F0
FFFFF0
FFFFF0
FFFFF0
7FFFE0
3FFFC0
3FFFC0
ENDCHAR
STARTCHAR 00FD
ENCODING 253
SWIDTH 462 0
DWIDTH 18 0
BBX 18 33 0 0
BITMAP
001F00
1FFF00
3FF800
3F0000
000000
000000
FC0FC0
FC0FC0
FE0FC0
FE1FC0
7E1F80
7F1F80
3F3F80
3F3F00
1FBF00
1FFE00
0FFE00
0FFC00
0FFC00
07F800
07F800
03F800
03F000
03F000
03F000
03F000
03F000
03F000
03F000
03F000
03F000
03F000
03F000
ENDCHAR
STARTCHAR 00FE
ENCODING 254
SWIDTH 540 0
DWIDTH 21 0
BBX 18 32 2 0
BITMAP
FC0000
FC0000
FC0000
FC0000
FC0000
FFFE00
FFFF00
FFFF00
FFFF80
FFFFC0
FFFFC0
FC1FC0
FC1FC0
FC1FC0
FC1FC0
FC1FC0
FC1FC0
FFFFC0
FFFFC0
FFFF80
FFFF00
FFFF00
FFFE00
FC0000
FC0000
FC0000
FC0000
FC0000
FC0000
FC0000
FC0000
FC0000
ENDCHAR
STARTCHAR 00FF
ENCODING 255
SWIDTH 462 0
DWIDTH 18 0
BBX 18 32 0 0
BITMAP
0F1C00
0F1C00
0F1C00
000000
000000
FC0FC0
FC0FC0
FE0FC0
FE1FC0
7E1F80
7F1F80
3F3F80
3F3F00
1FBF00
1FFE00
0FFE00
0FFC00
0FFC00
07F800
07F800
03F800
03F000
03F000
03F000
03F000
03F000
03F000
03F000
03F000
03F000
03F000
03F000
ENDCHAR
STARTCHAR 0100
ENCODING 256
SWIDTH 565 0
DWIDTH 22 0
BBX 22 33 0 0
BITMAP
0FFFE0
0FFFE0
0FFFE0
0FFFE0
000000
000000
03FF80
07FF80
07FFC0
07FFC0
07FFC0
07FFC0
0FC7C0
0F87E0
0F87E0
0F83E0
0F83E0
1F83E0
1F83F0
1F03F0
1F03F0
1F01F0
3F83F0
3FFFF8
3FFFF8
3FFFF8
3FFFF8
7E01F8
7E00FC
7E00FC
7E00FC
7E00FC
FE00FC
ENDCHAR
STARTCHAR 0101
ENCODING 257
SWIDTH 565 0
DWIDTH 22 0
BBX 22 33 0 0
BITMAP
0FFFE0
0FFFE0
0FFFE0
0FFFE0
000000
000000
03FF80
07FF80
07FFC0
07FFC0
07FFC0
07FFC0
0FC7C0
0F87E0
0F87E0
0F83E0
0F83E0
1F83E0
1F83F0
1F03F0
1F03F0
1F01F0
3F83F0
3FFFF8
3FFFF8
3FFFF8
3FFFF8
7E01F8
7E00FC
7E00FC
7E00FC
7E00FC
FE00FC
ENDCHAR
STARTCHAR 0102
ENCODING 258
SWIDTH 565 0
DWIDTH 22 0
BBX 22 34 0 0
BITMAP
1C00E0
1E01E0
1FFFE0
0FFFC0
07FF80
000000
000000
03FF80
07FF80
07FFC0
07FFC0
07FFC0
07FFC0
0FC7C0
0F87E0
0F87E0
0F83E0
0F83E0
1F83E0
1F83F0
1F03F0
1F03F0
1F01F0
3F83F0
3FFFF8
3FFFF8
3FFFF8
3FFFF8
7E01F8
7E00FC
7E00FC
7E00FC
7E00FC
FE00FC
ENDCHAR
STARTCHAR 0103
ENCODING 259
SWIDTH 565 0
DWIDTH 22 0
BBX 22 34 0 0
BITMAP
1C00E0
1E01E0
1FFFE0
0FFFC0
07FF80
000000
000000
03FF80
07FF80
07FFC0
07FFC0
07FFC0
07FFC0
0FC7C0
0F87E0
0F87E0
0F83E0
0F83E0
1F83E0
1F83F0
1F03F0
1F03F0
1F01F0
3F83F0
3FFFF8
3FFFF8
3FFFF8
3FFFF8
7E01F8
7E00FC
7E00FC
7E00FC
7E00FC
FE00FC
ENDCHAR
STARTCHAR 0104
ENCODING 260
SWIDTH 565 0
DWIDTH 22 0
BBX 25 33 0 -6
BITMAP
03FF8000
07FF8000
07FFC000
07FFC000
07FFC000
07FFC000
0FC7C000
0F87E000
0F87E000
0F83E000
0F83E000
1F83E000
1F83F000
1F03F000
1F03F000
1F01F000
3F83F000
3FFFF800
3FFFF800
3FFFF800
3FFFF800
7E01F800
7E00FC00
7E00FC00
7E00FC00
7E00FC00
FE00FC00
00001C00
00001800
00003800
00003B80
00003F00
00003F00
ENDCHAR
STARTCHAR 0105
ENCODING 261
SWIDTH 565 0
DWIDTH 22 0
BBX 25 33 0 -6
BITMAP
03FF8000
07FF8000
07FFC000
07FFC000
07FFC000
07FFC000
0FC7C000
0F87E000
0F87E000
0F83E000
0F83E000
1F83E000
1F83F000
1F03F000
1F03F000
1F01F000
3F83F000
3FFFF800
3FFFF800
3FFFF800
3FFFF800
7E01F800
7E00FC00
7E00FC00
7E00FC00
7E00FC00
FE00FC00
00001C00
00001800
00003800
00003B80
00003F00
00003F00
ENDCHAR
STARTCHAR 0106
ENCODING 262
SWIDTH 540 0
DWIDTH 21 0
BBX 18 33 2 0
BITMAP
001F00
3FFF00
3FF800
3F0000
000000
000000
FFFE00
FFFF00
FFFF80
FFFF80
FFFFC0
FFFFC0
FC0FC0
FC0000
FC0000
FC0000
FC0000
FC0000
FC0000
FC0000
FC0000
FC0000
FC0000
FC0000
FC0000
FC0000
FC1FC0
FFFFC0
FFFFC0
FFFF80
FFFF00
FFFF00
FFFE00
ENDCHAR
STARTCHAR 0107
ENCODING 263
SWIDTH 540 0
DWIDTH 21 0
BBX 18 33 2 0
BITMAP
001F00
3FFF00
3FF800
3F0000
000000
000000
FFFE00
FFFF00
FFFF80
FFFF80
FFFFC0
FFFFC0
FC0FC0
FC0000
FC0000
FC0000
FC0000
FC0000
FC0000
FC0000
FC0000
FC0000
FC0000
FC0000
FC0000
FC0000
FC1FC0
FFFFC0
FFFFC0
FFFF80
FFFF00
FFFF00
FFFE00
ENDCHAR
STARTCHAR 0108
ENCODING 264
SWIDTH 540 0
DWIDTH 21 0
BBX 18 34 2 0
BITMAP
1FF000
3FF800
FFFE00
F81E00
E00E00
000000
000000
FFFE00
FFFF00
FFFF80
FFFF80
FFFFC0
FFFFC0
FC0FC0
FC0000
FC0000
FC0000
FC0000
FC0000
FC0000
FC0000
FC0000
FC0000
FC0000
FC0000
FC0000
FC0000
FC1FC0
FFFFC0
FFFFC0
FFFF80
FFFF00
FFFF00
FFFE00
ENDCHAR
STARTCHAR 0109
ENCODING 265
SWIDTH 540 0
DWIDTH 21 0
BBX 18 34 2 0
BITMAP
1FF000
3FF800
FFFE00
F81E00
E00E00
000000
000000
FFFE00
FFFF00
FFFF80
FFFF80
FFFFC0
FFFFC0
FC0FC0
FC0000
FC0000
FC0000
FC0000
FC0000
FC0000
FC0000
FC0000
FC0000
FC0000
FC0000
FC0000
FC0000
FC1FC0
FFFFC0
FFFFC0
FFFF80
FFFF00
FFFF00
FFFE00
ENDCHAR
STARTCHAR 010A
ENCODING 266
SWIDTH 540 0
DWIDTH 21 0
BBX 18 33 2 0
BITMAP
03E000
03E000
03E000
03E000
000000
000000
FFFE00
FFFF00
FFFF80
FFFF80
FFFFC0
FFFFC0
FC0FC0
FC0000
FC0000
FC0000
FC0000
FC0000
FC0000
FC0000
FC0000
FC0000
FC0000
FC0000
FC0000
FC0000
FC1FC0
FFFFC0
FFFFC0
FFFF80
FFFF00
FFFF00
FFFE00
ENDCHAR
STARTCHAR 010B
ENCODING 267
SWIDTH 540 0
DWIDTH 21 0
BBX 18 33 2 0
BITMAP
03E000
03E000
03E000
03E000
000000
000000
FFFE00
FFFF00
FFFF80
FFFF80
FFFFC0
FFFFC0
FC0FC0
FC0000
FC0000
FC0000
FC0000
FC0000
FC0000
FC0000
FC0000
FC0000
FC0000
FC0000
FC0000
FC0000
FC1FC0
FFFFC0
FFFFC0
FFFF80
FFFF00
FFFF00
FFFE00
ENDCHAR
STARTCHAR 010C
ENCODING 268
SWIDTH 540 0
DWIDTH 21 0
BBX 18 34 2 0
BITMAP
101800
183800
1C7800
0FF000
07E000
000000
000000
FFFE00
FFFF00
FFFF80
FFFF80
FFFFC0
FFFFC0
FC0FC0
FC0000
FC0000
FC0000
FC0000
FC0000
FC0000
FC0000
FC0000
FC0000
FC0000
FC0000
FC0000
FC0000
FC1FC0
FFFFC0
FFFFC0
FFFF80
FFFF00
FFFF00
FFFE00
ENDCHAR
STARTCHAR 010D
ENCODING 269
SWIDTH 540 0
DWIDTH 21 0
BBX 18 34 2 0
BITMAP
101800
183800
1C7800
0FF000
07E000
000000
000000
FFFE00
FFFF00
FFFF80
FFFF80
FFFFC0
FFFFC0
FC0FC0
FC0000
FC0000
FC0000
FC0000
FC0000
FC0000
FC0000
FC0000
FC0000
FC0000
FC0000
FC0000
FC0000
FC1FC0
FFFFC0
FFFFC0
FFFF80
FFFF00
FFFF00
FFFE00
ENDCHAR
STARTCHAR 010E
ENCODING 270
SWIDTH 565 0
DWIDTH 22 0
BBX 19 34 2 0
BITMAP
0C0400
0E0C00
0F1C00
07F800
03F000
000000
000000
FFFF00
FFFF80
FFFFC0
FFFFE0
FFFFE0
FFFFE0
FC0FE0
FC07E0
FC07E0
FC07E0
FC07E0
FC07E0
FC07E0
FC07E0
FC07E0
FC07E0
FC07E0
FC07E0
FC07E0
FC07E0
FC0FE0
FFFFE0
FFFFE0
FFFFC0
FFFFC0
FFFF80
FFFF00
ENDCHAR
STARTCHAR 010F
ENCODING 271
SWIDTH 745 0
DWIDTH 29 0
BBX 27 27 2 0
BITMAP
FFFF01E0
FFFF81E0
FFFFC1E0
FFFFE1E0
FFFFE1E0
FFFFE3C0
FC0FE3C0
FC07E780
FC07EF80
FC07E000
FC07E000
FC07E000
FC07E000
FC07E000
FC07E000
FC07E000
FC07E000
FC07E000
FC07E000
FC07E000
FC0FE000
FFFFE000
FFFFE000
FFFFC000
FFFFC000
FFFF8000
FFFF0000
ENDCHAR
STARTCHAR 0110
ENCODING 272
SWIDTH 565 0
DWIDTH 22 0
BBX 22 27 -1 0
BITMAP
1FFFE0
1FFFF0
1FFFF8
1FFFFC
1FFFFC
1FFFFC
1F81FC
1F80FC
1F80FC
1F80FC
1F80FC
1F80FC
FFF0FC
FFF0FC
FFF0FC
FFF0FC
1F80FC
1F80FC
1F80FC
1F80FC
1F81FC
1FFFFC
1FFFFC
1FFFF8
1FFFF8
1FFFF0
1FFFE0
ENDCHAR
STARTCHAR 0111
ENCODING 273
SWIDTH 565 0
DWIDTH 22 0
BBX 22 27 -1 0
BITMAP
1FFFE0
1FFFF0
1FFFF8
1FFFFC
1FFFFC
1FFFFC
1F81FC
1F80FC
1F80FC
1F80FC
1F80FC
1F80FC
FFF0FC
FFF0FC
FFF0FC
FFF0FC
1F80FC
1F80FC
1F80FC
1F80FC
1F81FC
1FFFFC
1FFFFC
1FFFF8
1FFFF8
1FFFF0
1FFFE0
ENDCHAR
STARTCHAR 0112
ENCODING 274
SWIDTH 540 0
DWIDTH 21 0
BBX 18 33 2 0
BITMAP
FFFE00
FFFE00
FFFE00
FFFE00
000000
000000
FFFE00
FFFF00
FFFF00
FFFF80
FFFFC0
FFFFC0
FC0FC0
FC0000
FC0000
FC0000
FC0000
FFF800
FFF800
FFF800
FFF800
FFF800
FC0000
FC0000
FC0000
FC0000
FC0FC0
FFFFC0
FFFFC0
FFFF80
FFFF00
FFFF00
FFFE00
ENDCHAR
STARTCHAR 0113
ENCODING 275
SWIDTH 540 0
DWIDTH 21 0
BBX 18 33 2 0
BITMAP
FFFE00
FFFE00
FFFE00
FFFE00
000000
000000
FFFE00
FFFF00
FFFF00
FFFF80
FFFFC0
FFFFC0
FC0FC0
FC0000
FC0000
FC0000
FC0000
FFF800
FFF800
FFF800
FFF800
FFF800
FC0000
FC0000
FC0000
FC0000
FC0FC0
FFFFC0
FFFFC0
FFFF80
FFFF00
FFFF00
FFFE00
ENDCHAR
STARTCHAR 0116
ENCODING 278
SWIDTH 540 0
DWIDTH 21 0
BBX 18 33 2 0
BITMAP
03C000
03C000
03C000
03C000
000000
000000
FFFE00
FFFF00
FFFF00
FFFF80
FFFFC0
FFFFC0
FC0FC0
FC0000
FC0000
FC0000
FC0000
FFF800
FFF800
FFF800
FFF800
FFF800
FC0000
FC0000
FC0000
FC0000
FC0FC0
FFFFC0
FFFFC0
FFFF80
FFFF00
FFFF00
FFFE00
ENDCHAR
STARTCHAR 0117
ENCODING 279
SWIDTH 540 0
DWIDTH 21 0
BBX 18 33 2 0
BITMAP
03C000
03C000
03C000
03C000
000000
000000
FFFE00
FFFF00
FFFF00
FFFF80
FFFFC0
FFFFC0
FC0FC0
FC0000
FC0000
FC0000
FC0000
FFF800
FFF800
FFF800
FFF800
FFF800
FC0000
FC0000
FC0000
FC0000
FC0FC0
FFFFC0
FFFFC0
FFFF80
FFFF00
FFFF00
FFFE00
ENDCHAR
STARTCHAR 0118
ENCODING 280
SWIDTH 540 0
DWIDTH 21 0
BBX 18 33 2 -6
BITMAP
FFFE00
FFFF00
FFFF00
FFFF80
FFFFC0
FFFFC0
FC0FC0
FC0000
FC0000
FC0000
FC0000
FFF800
FFF800
FFF800
FFF800
FFF800
FC0000
FC0000
FC0000
FC0000
FC0FC0
FFFFC0
FFFFC0
FFFF80
FFFF00
FFFF00
FFFE00
038000
030000
070000
066000
07E000
07E000
ENDCHAR
STARTCHAR 0119
ENCODING 281
SWIDTH 540 0
DWIDTH 21 0
BBX 18 33 2 -6
BITMAP
FFFE00
FFFF00
FFFF00
FFFF80
FFFFC0
FFFFC0
FC0FC0
FC0000
FC0000
FC0000
FC0000
FFF800
FFF800
FFF800
FFF800
FFF800
FC0000
FC0000
FC0000
FC0000
FC0FC0
FFFFC0
FFFFC0
FFFF80
FFFF00
FFFF00
FFFE00
038000
030000
070000
066000
07E000
07E000
ENDCHAR
STARTCHAR 011C
ENCODING 284
SWIDTH 540 0
DWIDTH 21 0
BBX 18 34 2 0
BITMAP
0FF800
1FFE00
7FFF00
7C0F00
700700
000000
000000
FFFE00
FFFF00
FFFF80
FFFFC0
FFFFC0
FFFFC0
FC0FC0
FC0000
FC0000
FC0000
FC0000
FC7FC0
FC7FC0
FC7FC0
FC7FC0
FC7FC0
FC7FC0
FC0FC0
FC0FC0
FC0FC0
FC0FC0
FFFFC0
FFFFC0
FFFFC0
FFFFC0
FFFFC0
FFF9C0
ENDCHAR
STARTCHAR 011D
ENCODING 285
SWIDTH 540 0
DWIDTH 21 0
BBX 18 34 2 0
BITMAP
0FF800
1FFE00
7FFF00
7C0F00
700700
000000
000000
FFFE00
FFFF00
FFFF80
FFFFC0
FFFFC0
FFFFC0
FC0FC0
FC0000
FC0000
FC0000
FC0000
FC7FC0
FC7FC0
FC7FC0
FC7FC0
FC7FC0
FC7FC0
FC0FC0
FC0FC0
FC0FC0
FC0FC0
FFFFC0
FFFFC0
FFFFC0
FFFFC0
FFFFC0
FFF9C0
ENDCHAR
STARTCHAR 011E
ENCODING 286
SWIDTH 540 0
DWIDTH 21 0
BBX 18 34 2 0
BITMAP
600300
780F00
7FFF00
3FFE00
1FFC00
000000
000000
FFFE00
FFFF00
FFFF80
FFFFC0
FFFFC0
FFFFC0
FC0FC0
FC0000
FC0000
FC0000
FC0000
FC7FC0
FC7FC0
FC7FC0
FC7FC0
FC7FC0
FC7FC0
FC0FC0
FC0FC0
FC0FC0
FC0FC0
FFFFC0
FFFFC0
FFFFC0
FFFFC0
FFFFC0
FFF9C0
ENDCHAR
STARTCHAR 011F
ENCODING 287
SWIDTH 540 0
DWIDTH 21 0
BBX 18 34 2 0
BITMAP
600300
780F00
7FFF00
3FFE00
1FFC00
000000
000000
FFFE00
FFFF00
FFFF80
FFFFC0
FFFFC0
FFFFC0
FC0FC0
FC0000
FC0000
FC0000
FC0000
FC7FC0
FC7FC0
FC7FC0
FC7FC0
FC7FC0
FC7FC0
FC0FC0
FC0FC0
FC0FC0
FC0FC0
FFFFC0
FFFFC0
FFFFC0
FFFFC0
FFFFC0
FFF9C0
ENDCHAR
STARTCHAR 0120
ENCODING 288
SWIDTH 540 0
DWIDTH 21 0
BBX 18 33 2 0
BITMAP
01E000
03E000
03E000
01E000
000000
000000
FFFE00
FFFF00
FFFF80
FFFFC0
FFFFC0
FFFFC0
FC0FC0
FC0000
FC0000
FC0000
FC0000
FC7FC0
FC7FC0
FC7FC0
FC7FC0
FC7FC0
FC7FC0
FC0FC0
FC0FC0
FC0FC0
FC0FC0
FFFFC0
FFFFC0
FFFFC0
FFFFC0
FFFFC0
FFF9C0
ENDCHAR
STARTCHAR 0121
ENCODING 289
SWIDTH 540 0
DWIDTH 21 0
BBX 18 33 2 0
BITMAP
01E000
03E000
03E000
01E000
000000
000000
FFFE00
FFFF00
FFFF80
FFFFC0
FFFFC0
FFFFC0
FC0FC0
FC0000
FC0000
FC0000
FC0000
FC7FC0
FC7FC0
FC7FC0
FC7FC0
FC7FC0
FC7FC0
FC0FC0
FC0FC0
FC0FC0
FC0FC0
FFFFC0
FFFFC0
FFFFC0
FFFFC0
FFFFC0
FFF9C0
ENDCHAR
STARTCHAR 0122
ENCODING 290
SWIDTH 540 0
DWIDTH 21 0
BBX 18 33 2 -6
BITMAP
FFFE00
FFFF00
FFFF80
FFFFC0
FFFFC0
FFFFC0
FC0FC0
FC0000
FC0000
FC0000
FC0000
FC7FC0
FC7FC0
FC7FC0
FC7FC0
FC7FC0
FC7FC0
FC0FC0
FC0FC0
FC0FC0
FC0FC0
FFFFC0
FFFFC0
FFFFC0
FFFFC0
FFFFC0
FFF9C0
000000
00C000
00C000
00C000
01C000
038000
ENDCHAR
STARTCHAR 0123
ENCODING 291
SWIDTH 540 0
DWIDTH 21 0
BBX 18 33 2 -6
BITMAP
FFFE00
FFFF00
FFFF80
FFFFC0
FFFFC0
FFFFC0
FC0FC0
FC0000
FC0000
FC0000
FC0000
FC7FC0
FC7FC0
FC7FC0
FC7FC0
FC7FC0
FC7FC0
FC0FC0
FC0FC0
FC0FC0
FC0FC0
FFFFC0
FFFFC0
FFFFC0
FFFFC0
FFFFC0
FFF9C0
000000
00C000
00C000
00C000
01C000
038000
ENDCHAR
STARTCHAR 0124
ENCODING 292
SWIDTH 565 0
DWIDTH 22 0
BBX 19 34 2 0
BITMAP
0FFC00
1FFE00
3FFF00
7C0F80
780780
000000
000000
FC07E0
FC07E0
FC07E0
FC07E0
FC07E0
FC07E0
FC07E0
FC07E0
FC07E0
FC0FE0
FFFFE0
FFFFE0
FFFFE0
FFFFE0
FFFFE0
FFFFE0
FC0FE0
FC07E0
FC07E0
FC07E0
FC07E0
FC07E0
FC07E0
FC07E0
FC07E0
FC07E0
FC07E0
ENDCHAR
STARTCHAR 0125
ENCODING 293
SWIDTH 565 0
DWIDTH 22 0
BBX 19 34 2 0
BITMAP
0FFC00
1FFE00
3FFF00
7C0F80
780780
000000
000000
FC07E0
FC07E0
FC07E0
FC07E0
FC07E0
FC07E0
FC07E0
FC07E0
FC07E0
FC0FE0
FFFFE0
FFFFE0
FFFFE0
FFFFE0
FFFFE0
FFFFE0
FC0FE0
FC07E0
FC07E0
FC07E0
FC07E0
FC07E0
FC07E0
FC07E0
FC07E0
FC07E0
FC07E0
ENDCHAR
STARTCHAR 0126
ENCODING 294
SWIDTH 565 0
DWIDTH 22 0
BBX 26 27 -2 0
BITMAP
0FC07E00
0FC07E00
FFFFFFC0
FFFFFFC0
FFFFFFC0
FFFFFFC0
0FC07E00
0FC07E00
0FC07E00
0FC0FE00
0FFFFE00
0FFFFE00
0FFFFE00
0FFFFE00
0FFFFE00
0FFFFE00
0FC0FE00
0FC07E00
0FC07E00
0FC07E00
0FC07E00
0FC07E00
0FC07E00
0FC07E00
0FC07E00
0FC07E00
0FC07E00
ENDCHAR
STARTCHAR 0127
ENCODING 295
SWIDTH 565 0
DWIDTH 22 0
BBX 26 27 -2 0
BITMAP
0FC07E00
0FC07E00
FFFFFFC0
FFFFFFC0
FFFFFFC0
FFFFFFC0
0FC07E00
0FC07E00
0FC07E00
0FC0FE00
0FFFFE00
0FFFFE00
0FFFFE00
0FFFFE00
0FFFFE00
0FFFFE00
0FC0FE00
0FC07E00
0FC07E00
0FC07E00
0FC07E00
0FC07E00
0FC07E00
0FC07E00
0FC07E00
0FC07E00
0FC07E00
ENDCHAR
STARTCHAR 0128
ENCODING 296
SWIDTH 231 0
DWIDTH 9 0
BBX 15 34 -3 0
BITMAP
0E00
3F86
FFFE
F1FE
C03C
0000
0000
07E0
07E0
07E0
07E0
07E0
07E0
07E0
07E0
07E0
07E0
07E0
07E0
07E0
07E0
07E0
07E0
07E0
07E0
07E0
07E0
07E0
07E0
07E0
07E0
07E0
07E0
07E0
ENDCHAR
STARTCHAR 0129
ENCODING 297
SWIDTH 231 0
DWIDTH 9 0
BBX 16 34 -3 0
BITMAP
0E00
3F83
FFFF
F1FF
C03C
0000
0000
07E0
07E0
07E0
07E0
07E0
07E0
07E0
07E0
07E0
07E0
07E0
07E0
07E0
07E0
07E0
07E0
07E0
07E0
07E0
07E0
07E0
07E0
07E0
07E0
07E0
07E0
07E0
ENDCHAR
STARTCHAR 012A
ENCODING 298
SWIDTH 231 0
DWIDTH 9 0
BBX 15 33 -3 0
BITMAP
FFFE
FFFE
FFFE
FFFE
0000
0000
07E0
07E0
07E0
07E0
07E0
07E0
07E0
07E0
07E0
07E0
07E0
07E0
07E0
07E0
07E0
07E0
07E0
07E0
07E0
07E0
07E0
07E0
07E0
07E0
07E0
07E0
07E0
ENDCHAR
STARTCHAR 012B
ENCODING 299
SWIDTH 231 0
DWIDTH 9 0
BBX 15 33 -3 0
BITMAP
FFFE
FFFE
FFFE
FFFE
0000
0000
07E0
07E0
07E0
07E0
07E0
07E0
07E0
07E0
07E0
07E0
07E0
07E0
07E0
07E0
07E0
07E0
07E0
07E0
07E0
07E0
07E0
07E0
07E0
07E0
07E0
07E0
07E0
ENDCHAR
STARTCHAR 012E
ENCODING 302
SWIDTH 231 0
DWIDTH 9 0
BBX 7 33 1 -6
BITMAP
7E
7E
7E
7E
7E
7E
7E
7E
7E
7E
7E
7E
7E
7E
7E
7E
7E
7E
7E
7E
7E
7E
7E
7E
7E
7E
7E
30
70
60
E6
FE
FC
ENDCHAR
STARTCHAR 012F
ENCODING 303
SWIDTH 231 0
DWIDTH 9 0
BBX 7 33 1 -6
BITMAP
7E
7E
7E
7E
7E
7E
7E
7E
7E
7E
7E
7E
7E
7E
7E
7E
7E
7E
7E
7E
7E
7E
7E
7E
7E
7E
7E
30
70
60
E6
FE
FC
ENDCHAR
STARTCHAR 0134
ENCODING 308
SWIDTH 488 0
DWIDTH 19 0
BBX 16 34 2 0
BITMAP
03F8
07FC
0FFE
1F1F
1C0F
0000
0000
1FFF
1FFF
1FFF
1FFF
1FFF
1FFF
003F
003F
003F
003F
003F
003F
003F
003F
003F
003F
003F
003F
003F
003F
FC3F
FFFF
FFFF
FFFF
7FFF
3FFF
3FFF
ENDCHAR
STARTCHAR 0135
ENCODING 309
SWIDTH 488 0
DWIDTH 19 0
BBX 16 34 2 0
BITMAP
03F8
07FC
0FFE
1F1F
1C0F
0000
0000
1FFF
1FFF
1FFF
1FFF
1FFF
1FFF
003F
003F
003F
003F
003F
003F
003F
003F
003F
003F
003F
003F
003F
003F
FC3F
FFFF
FFFF
FFFF
7FFF
3FFF
3FFF
ENDCHAR
STARTCHAR 0136
ENCODING 310
SWIDTH 565 0
DWIDTH 22 0
BBX 19 33 2 -6
BITMAP
FC0FE0
FC0FE0
FC1FE0
FC3FC0
FC3FC0
FC7F80
FCFF00
FCFE00
FDFE00
FFFC00
FFF800
FFF800
FFF000
FFE000
FFF000
FFF800
FFF800
FFFC00
FDFE00
FCFF00
FCFF00
FC7F80
FC3FC0
FC1FC0
FC1FE0
FC0FE0
FC07E0
000000
00C000
00E000
00E000
00C000
018000
ENDCHAR
STARTCHAR 0137
ENCODING 311
SWIDTH 565 0
DWIDTH 22 0
BBX 19 33 2 -6
BITMAP
FC0FE0
FC0FE0
FC1FE0
FC3FC0
FC3FC0
FC7F80
FCFF00
FCFE00
FDFE00
FFFC00
FFF800
FFF800
FFF000
FFE000
FFF000
FFF800
FFF800
FFFC00
FDFE00
FCFF00
FCFF00
FC7F80
FC3FC0
FC1FC0
FC1FE0
FC0FE0
FC07E0
000000
00C000
00E000
00E000
00C000
018000
ENDCHAR
STARTCHAR 0139
ENCODING 313
SWIDTH 411 0
DWIDTH 16 0
BBX 18 33 -2 0
BITMAP
007C00
7FFC00
FFE000
FE0000
000000
000000
0FC000
0FC000
0FC000
0FC000
0FC000
0FC000
0FC000
0FC000
0FC000
0FC000
0FC000
0FC000
0FC000
0FC000
0FC000
0FC000
0FC000
0FC000
0FC000
0FC000
0FC000
0FFFC0
0FFFC0
0FFFC0
0FFF80
0FFF00
0FFE00
ENDCHAR
STARTCHAR 013A
ENCODING 314
SWIDTH 411 0
DWIDTH 16 0
BBX 18 33 -2 0
BITMAP
007C00
7FFC00
FFE000
FE0000
000000
000000
0FC000
0FC000
0FC000
0FC000
0FC000
0FC000
0FC000
0FC000
0FC000
0FC000
0FC000
0FC000
0FC000
0FC000
0FC000
0FC000
0FC000
0FC000
0FC000
0FC000
0FC000
0FFFC0
0FFFC0
0FFFC0
0FFF80
0FFF00
0FFE00
ENDCHAR
STARTCHAR 013C
ENCODING 316
SWIDTH 411 0
DWIDTH 16 0
BBX 14 33 2 -6
BITMAP
FC00
FC00
FC00
FC00
FC00
FC00
FC00
FC00
FC00
FC00
FC00
FC00
FC00
FC00
FC00
FC00
FC00
FC00
FC00
FC00
FC00
FFFC
FFFC
FFFC
FFF8
FFF0
FFE0
0000
0300
0300
0300
0700
0E00
ENDCHAR
STARTCHAR 013D
ENCODING 317
SWIDTH 411 0
DWIDTH 16 0
BBX 17 34 -1 0
BITMAP
C06000
E0E000
F1E000
7FC000
3F8000
000000
000000
1F8000
1F8000
1F8000
1F8000
1F8000
1F8000
1F8000
1F8000
1F8000
1F8000
1F8000
1F8000
1F8000
1F8000
1F8000
1F8000
1F8000
1F8000
1F8000
1F8000
1F8000
1FFF80
1FFF80
1FFF80
1FFF00
1FFE00
1FFC00
ENDCHAR
STARTCHAR 013E
ENCODING 318
SWIDTH 411 0
DWIDTH 16 0
BBX 17 34 -1 0
BITMAP
C06000
E0E000
F1E000
7FC000
3F8000
000000
000000
1F8000
1F8000
1F8000
1F8000
1F8000
1F8000
1F8000
1F8000
1F8000
1F8000
1F8000
1F8000
1F8000
1F8000
1F8000
1F8000
1F8000
1F8000
1F8000
1F8000
1F8000
1FFF80
1FFF80
1FFF80
1FFF00
1FFE00
1FFC00
ENDCHAR
STARTCHAR 0141
ENCODING 321
SWIDTH 488 0
DWIDTH 19 0
BBX 18 27 2 0
BITMAP
1F8000
1F8000
1F8000
1F8000
1F8000
1F8000
1F8C00
1FBC00
1FFC00
1FFC00
1FF800
1FE000
3F8000
FF8000
FF8000
FF8000
FF8000
9F8000
1F8000
1F8000
1FC000
1FFFC0
1FFFC0
1FFF80
1FFF00
1FFF00
1FFE00
ENDCHAR
STARTCHAR 0142
ENCODING 322
SWIDTH 488 0
DWIDTH 19 0
BBX 18 27 2 0
BITMAP
1F8000
1F8000
1F8000
1F8000
1F8000
1F8000
1F8C00
1FBC00
1FFC00
1FFC00
1FF800
1FE000
3F8000
FF8000
FF8000
FF8000
FF8000
9F8000
1F8000
1F8000
1FC000
1FFFC0
1FFFC0
1FFF80
1FFF00
1FFF00
1FFE00
ENDCHAR
STARTCHAR 0143
ENCODING 323
SWIDTH 565 0
DWIDTH 22 0
BBX 19 33 2 0
BITMAP
001F00
1FFF00
3FF800
3F0000
000000
000000
3C07E0
7C07E0
7E07E0
FE07E0
FF07E0
FF07E0
FF87E0
FF87E0
FFC7E0
FFC7E0
FFC7E0
FFE7E0
FFE7E0
FDFFE0
FDFFE0
FDFFE0
FCFFE0
FCFFE0
FC7FE0
FC7FE0
FC3FE0
FC3FE0
FC1FE0
FC1FC0
FC0F80
FC0F80
FC0F00
ENDCHAR
STARTCHAR 0144
ENCODING 324
SWIDTH 565 0
DWIDTH 22 0
BBX 19 33 2 0
BITMAP
001F00
1FFF00
3FF800
3F0000
000000
000000
3C07E0
7C07E0
7E07E0
FE07E0
FF07E0
FF07E0
FF87E0
FF87E0
FFC7E0
FFC7E0
FFC7E0
FFE7E0
FFE7E0
FDFFE0
FDFFE0
FDFFE0
FCFFE0
FCFFE0
FC7FE0
FC7FE0
FC3FE0
FC3FE0
FC1FE0
FC1FC0
FC0F80
FC0F80
FC0F00
ENDCHAR
STARTCHAR 0145
ENCODING 325
SWIDTH 565 0
DWIDTH 22 0
BBX 19 33 2 -6
BITMAP
3C07E0
7C07E0
7E07E0
FE07E0
FF07E0
FF07E0
FF87E0
FF87E0
FFC7E0
FFC7E0
FFC7E0
FFE7E0
FFE7E0
FDFFE0
FDFFE0
FDFFE0
FCFFE0
FCFFE0
FC7FE0
FC7FE0
FC3FE0
FC3FE0
FC1FE0
FC1FC0
FC0F80
FC0F80
FC0F00
000000
006000
006000
006000
00E000
01C000
ENDCHAR
STARTCHAR 0146
ENCODING 326
SWIDTH 565 0
DWIDTH 22 0
BBX 19 33 2 -6
BITMAP
3C07E0
7C07E0
7E07E0
FE07E0
FF07E0
FF07E0
FF87E0
FF87E0
FFC7E0
FFC7E0
FFC7E0
FFE7E0
FFE7E0
FDFFE0
FDFFE0
FDFFE0
FCFFE0
FCFFE0
FC7FE0
FC7FE0
FC3FE0
FC3FE0
FC1FE0
FC1FC0
FC0F80
FC0F80
FC0F00
000000
006000
006000
006000
00E000
01C000
ENDCHAR
STARTCHAR 0147
ENCODING 327
SWIDTH 565 0
DWIDTH 22 0
BBX 19 34 2 0
BITMAP
0C0400
0E0C00
0F1C00
07F800
03F000
000000
000000
3C07E0
7C07E0
7E07E0
FE07E0
FF07E0
FF07E0
FF87E0
FF87E0
FFC7E0
FFC7E0
FFC7E0
FFE7E0
FFE7E0
FDFFE0
FDFFE0
FDFFE0
FCFFE0
FCFFE0
FC7FE0
FC7FE0
FC3FE0
FC3FE0
FC1FE0
FC1FC0
FC0F80
FC0F80
FC0F00
ENDCHAR
STARTCHAR 0148
ENCODING 328
SWIDTH 565 0
DWIDTH 22 0
BBX 19 34 2 0
BITMAP
0C0400
0E0C00
0F1C00
07F800
03F000
000000
000000
3C07E0
7C07E0
7E07E0
FE07E0
FF07E0
FF07E0
FF87E0
FF87E0
FFC7E0
FFC7E0
FFC7E0
FFE7E0
FFE7E0
FDFFE0
FDFFE0
FDFFE0
FCFFE0
FCFFE0
FC7FE0
FC7FE0
FC3FE0
FC3FE0
FC1FE0
FC1FC0
FC0F80
FC0F80
FC0F00
ENDCHAR
STARTCHAR 014C
ENCODING 332
SWIDTH 617 0
DWIDTH 24 0
BBX 21 33 2 0
BITMAP
3FFFC0
3FFFC0
3FFFC0
3FFFC0
000000
000000
3FFFC0
7FFFE0
7FFFE0
FFFFF0
FFFFF8
FFFFF8
FC03F8
FC01F8
FC01F8
FC01F8
FC01F8
FC01F8
FC01F8
FC01F8
FC01F8
FC01F8
FC01F8
FC01F8
FC01F8
FC01F8
FC03F8
FFFFF8
FFFFF8
FFFFF0
7FFFE0
3FFFE0
3FFFC0
ENDCHAR
STARTCHAR 014D
ENCODING 333
SWIDTH 617 0
DWIDTH 24 0
BBX 21 33 2 0
BITMAP
3FFFC0
3FFFC0
3FFFC0
3FFFC0
000000
000000
3FFFC0
7FFFE0
7FFFE0
FFFFF0
FFFFF8
FFFFF8
FC03F8
FC01F8
FC01F8
FC01F8
FC01F8
FC01F8
FC01F8
FC01F8
FC01F8
FC01F8
FC01F8
FC01F8
FC01F8
FC01F8
FC03F8
FFFFF8
FFFFF8
FFFFF0
7FFFE0
3FFFE0
3FFFC0
ENDCHAR
STARTCHAR 0150
ENCODING 336
SWIDTH 617 0
DWIDTH 24 0
BBX 21 35 2 0
BITMAP
006600
006600
00EE00
00CC00
01DC00
019800
000000
000000
3FFFC0
7FFFE0
7FFFE0
FFFFF0
FFFFF8
FFFFF8
FC03F8
FC01F8
FC01F8
FC01F8
FC01F8
FC01F8
FC01F8
FC01F8
FC01F8
FC01F8
FC01F8
FC01F8
FC01F8
FC01F8
FC03F8
FFFFF8
FFFFF8
FFFFF0
7FFFE0
3FFFE0
3FFFC0
ENDCHAR
STARTCHAR 0151
ENCODING 337
SWIDTH 617 0
DWIDTH 24 0
BBX 21 35 2 0
BITMAP
006600
006600
00EE00
00CC00
01DC00
019800
000000
000000
3FFFC0
7FFFE0
7FFFE0
FFFFF0
FFFFF8
FFFFF8
FC03F8
FC01F8
FC01F8
FC01F8
FC01F8
FC01F8
FC01F8
FC01F8
FC01F8
FC01F8
FC01F8
FC01F8
FC01F8
FC01F8
FC03F8
FFFFF8
FFFFF8
FFFFF0
7FFFE0
3FFFE0
3FFFC0
ENDCHAR
STARTCHAR 0152
ENCODING 338
SWIDTH 848 0
DWIDTH 33 0
BBX 30 27 2 0
BITMAP
3FFFFFE0
7FFFFFF0
7FFFFFF8
FFFFFFF8
FFFFFFFC
FFFFFFFC
FC0FC07C
FC0FC000
FC0FC000
FC0FC000
FC0FC000
FC0FFF80
FC0FFF80
FC0FFF80
FC0FFF80
FC0FFF80
FC0FC000
FC0FC000
FC0FC000
FC0FC000
FC0FC07C
FFFFFFFC
FFFFFFFC
FFFFFFF8
7FFFFFF8
3FFFFFF0
3FFFFFE0
ENDCHAR
STARTCHAR 0153
ENCODING 339
SWIDTH 848 0
DWIDTH 33 0
BBX 30 27 2 0
BITMAP
3FFFFFE0
7FFFFFF0
7FFFFFF8
FFFFFFF8
FFFFFFFC
FFFFFFFC
FC0FC07C
FC0FC000
FC0FC000
FC0FC000
FC0FC000
FC0FFF80
FC0FFF80
FC0FFF80
FC0FFF80
FC0FFF80
FC0FC000
FC0FC000
FC0FC000
FC0FC000
FC0FC07C
FFFFFFFC
FFFFFFFC
FFFFFFF8
7FFFFFF8
3FFFFFF0
3FFFFFE0
ENDCHAR
STARTCHAR 0154
ENCODING 340
SWIDTH 540 0
DWIDTH 21 0
BBX 18 33 2 0
BITMAP
001F00
3FFF00
3FF800
3F0000
000000
000000
FFFE00
FFFF00
FFFF00
FFFF80
FFFF80
FFFF80
FC1F80
FC1F80
FC1F80
FC1F80
FC1F80
FFFF80
FFFF00
FFFF00
FFFE00
FFFE00
FFFE00
FC7E00
FC7F00
FC3F00
FC3F80
FC3F80
FC1FC0
FC1FC0
FC1FC0
FC0FC0
FC0FC0
ENDCHAR
STARTCHAR 0155
ENCODING 341
SWIDTH 540 0
DWIDTH 21 0
BBX 18 33 2 0
BITMAP
001F00
3FFF00
3FF800
3F0000
000000
000000
FFFE00
FFFF00
FFFF00
FFFF80
FFFF80
FFFF80
FC1F80
FC1F80
FC1F80
FC1F80
FC1F80
FFFF80
FFFF00
FFFF00
FFFE00
FFFE00
FFFE00
FC7E00
FC7F00
FC3F00
FC3F80
FC3F80
FC1FC0
FC1FC0
FC1FC0
FC0FC0
FC0FC0
ENDCHAR
STARTCHAR 0156
ENCODING 342
SWIDTH 540 0
DWIDTH 21 0
BBX 18 33 2 -6
BITMAP
FFFE00
FFFF00
FFFF00
FFFF80
FFFF80
FFFF80
FC1F80
FC1F80
FC1F80
FC1F80
FC1F80
FFFF80
FFFF00
FFFF00
FFFE00
FFFE00
FFFE00
FC7E00
FC7F00
FC3F00
FC3F80
FC3F80
FC1FC0
FC1FC0
FC1FC0
FC0FC0
FC0FC0
000000
00C000
00E000
00E000
00C000
018000
ENDCHAR
STARTCHAR 0157
ENCODING 343
SWIDTH 540 0
DWIDTH 21 0
BBX 18 33 2 -6
BITMAP
FFFE00
FFFF00
FFFF00
FFFF80
FFFF80
FFFF80
FC1F80
FC1F80
FC1F80
FC1F80
FC1F80
FFFF80
FFFF00
FFFF00
FFFE00
FFFE00
FFFE00
FC7E00
FC7F00
FC3F00
FC3F80
FC3F80
FC1FC0
FC1FC0
FC1FC0
FC0FC0
FC0FC0
000000
00C000
00E000
00E000
00C000
018000
ENDCHAR
STARTCHAR 0158
ENCODING 344
SWIDTH 540 0
DWIDTH 21 0
BBX 18 34 2 0
BITMAP
101800
183800
1C7800
0FF000
07E000
000000
000000
FFFE00
FFFF00
FFFF00
FFFF80
FFFF80
FFFF80
FC1F80
FC1F80
FC1F80
FC1F80
FC1F80
FFFF80
FFFF00
FFFF00
FFFE00
FFFE00
FFFE00
FC7E00
FC7F00
FC3F00
FC3F80
FC3F80
FC1FC0
FC1FC0
FC1FC0
FC0FC0
FC0FC0
ENDCHAR
STARTCHAR 0159
ENCODING 345
SWIDTH 540 0
DWIDTH 21 0
BBX 18 34 2 0
BITMAP
101800
183800
1C7800
0FF000
07E000
000000
000000
FFFE00
FFFF00
FFFF00
FFFF80
FFFF80
FFFF80
FC1F80
FC1F80
FC1F80
FC1F80
FC1F80
FFFF80
FFFF00
FFFF00
FFFE00
FFFE00
FFFE00
FC7E00
FC7F00
FC3F00
FC3F80
FC3F80
FC1FC0
FC1FC0
FC1FC0
FC0FC0
FC0FC0
ENDCHAR
STARTCHAR 015C
ENCODING 348
SWIDTH 540 0
DWIDTH 21 0
BBX 18 34 2 0
BITMAP
1FF000
3FFC00
FFFE00
F81F00
E00F00
000000
000000
FFFE00
FFFF00
FFFF00
FFFF80
FFFFC0
FFFFC0
FC0FC0
FE0000
FF0000
7F8000
3FC000
1FE000
0FF000
07F800
03FC00
01FE00
00FF00
007F80
007FC0
003FC0
F81FC0
FFFFC0
FFFFC0
FFFFC0
7FFFC0
3FFFC0
3FFF80
ENDCHAR
STARTCHAR 015D
ENCODING 349
SWIDTH 540 0
DWIDTH 21 0
BBX 18 34 2 0
BITMAP
1FF000
3FFC00
FFFE00
F81F00
E00F00
000000
000000
FFFE00
FFFF00
FFFF00
FFFF80
FFFFC0
FFFFC0
FC0FC0
FE0000
FF0000
7F8000
3FC000
1FE000
0FF000
07F800
03FC00
01FE00
00FF00
007F80
007FC0
003FC0
F81FC0
FFFFC0
FFFFC0
FFFFC0
7FFFC0
3FFFC0
3FFF80
ENDCHAR
STARTCHAR 015E
ENCODING 350
SWIDTH 540 0
DWIDTH 21 0
BBX 18 33 2 -6
BITMAP
FFFE00
FFFF00
FFFF00
FFFF80
FFFFC0
FFFFC0
FC0FC0
FE0000
FF0000
7F8000
3FC000
1FE000
0FF000
07F800
03FC00
01FE00
00FF00
007F80
007FC0
003FC0
F81FC0
FFFFC0
FFFFC0
FFFFC0
7FFFC0
3FFFC0
3FFF80
007000
01E000
01E000
006000
03E000
07C000
ENDCHAR
STARTCHAR 015F
ENCODING 351
SWIDTH 540 0
DWIDTH 21 0
BBX 18 33 2 -6
BITMAP
FFFE00
FFFF00
FFFF00
FFFF80
FFFFC0
FFFFC0
FC0FC0
FE0000
FF0000
7F8000
3FC000
1FE000
0FF000
07F800
03FC00
01FE00
00FF00
007F80
007FC0
003FC0
F81FC0
FFFFC0
FFFFC0
FFFFC0
7FFFC0
3FFFC0
3FFF80
007000
01E000
01E000
006000
03E000
07C000
ENDCHAR
STARTCHAR 0160
ENCODING 352
SWIDTH 540 0
DWIDTH 21 0
BBX 18 34 2 0
BITMAP
180800
1C1800
1E3800
0FF000
07E000
000000
000000
FFFE00
FFFF00
FFFF00
FFFF80
FFFFC0
FFFFC0
FC0FC0
FE0000
FF0000
7F8000
3FC000
1FE000
0FF000
07F800
03FC00
01FE00
00FF00
007F80
007FC0
003FC0
F81FC0
FFFFC0
FFFFC0
FFFFC0
7FFFC0
3FFFC0
3FFF80
ENDCHAR
STARTCHAR 0161
ENCODING 353
SWIDTH 540 0
DWIDTH 21 0
BBX 18 34 2 0
BITMAP
180800
1C1800
1E3800
0FF000
07E000
000000
000000
FFFE00
FFFF00
FFFF00
FFFF80
FFFFC0
FFFFC0
FC0FC0
FE0000
FF0000
7F8000
3FC000
1FE000
0FF000
07F800
03FC00
01FE00
00FF00
007F80
007FC0
003FC0
F81FC0
FFFFC0
FFFFC0
FFFFC0
7FFFC0
3FFFC0
3FFF80
ENDCHAR
STARTCHAR 0162
ENCODING 354
SWIDTH 514 0
DWIDTH 20 0
BBX 21 33 0 -6
BITMAP
1FFFC0
3FFFE0
7FFFF0
FFFFF0
FFFFF8
FDFBF8
F9F8F8
F1F878
01F800
01F800
01F800
01F800
01F800
01F800
01F800
01F800
01F800
01F800
01F800
01F800
01F800
01F800
01F800
01F800
01F800
01F800
01F800
001800
007000
007000
003000
01F000
01E000
ENDCHAR
STARTCHAR 0163
ENCODING 355
SWIDTH 514 0
DWIDTH 20 0
BBX 21 33 0 -6
BITMAP
1FFFC0
3FFFE0
7FFFF0
FFFFF0
FFFFF8
FDFBF8
F9F8F8
F1F878
01F800
01F800
01F800
01F800
01F800
01F800
01F800
01F800
01F800
01F800
01F800
01F800
01F800
01F800
01F800
01F800
01F800
01F800
01F800
001800
007000
007000
003000
01F000
01E000
ENDCHAR
STARTCHAR 0164
ENCODING 356
SWIDTH 514 0
DWIDTH 20 0
BBX 21 34 0 0
BITMAP
060300
070700
078F00
03FE00
01F800
000000
000000
1FFFC0
3FFFE0
7FFFF0
FFFFF0
FFFFF8
FDFBF8
F9F8F8
F1F878
01F800
01F800
01F800
01F800
01F800
01F800
01F800
01F800
01F800
01F800
01F800
01F800
01F800
01F800
01F800
01F800
01F800
01F800
01F800
ENDCHAR
STARTCHAR 0165
ENCODING 357
SWIDTH 514 0
DWIDTH 20 0
BBX 21 34 0 0
BITMAP
060300
070700
078F00
03FE00
01F800
000000
000000
1FFFC0
3FFFE0
7FFFF0
FFFFF0
FFFFF8
FDFBF8
F9F8F8
F1F878
01F800
01F800
01F800
01F800
01F800
01F800
01F800
01F800
01F800
01F800
01F800
01F800
01F800
01F800
01F800
01F800
01F800
01F800
01F800
ENDCHAR
STARTCHAR 0166
ENCODING 358
SWIDTH 514 0
DWIDTH 20 0
BBX 21 27 0 0
BITMAP
1FFFC0
3FFFE0
7FFFF0
FFFFF0
FFFFF8
FDFBF8
F9F8F8
F1F878
01F800
01F800
01F800
01F800
1FFFC0
1FFFC0
1FFFC0
1FFFC0
01F800
01F800
01F800
01F800
01F800
01F800
01F800
01F800
01F800
01F800
01F800
ENDCHAR
STARTCHAR 0167
ENCODING 359
SWIDTH 514 0
DWIDTH 20 0
BBX 21 27 0 0
BITMAP
1FFFC0
3FFFE0
7FFFF0
FFFFF0
FFFFF8
FDFBF8
F9F8F8
F1F878
01F800
01F800
01F800
01F800
1FFFC0
1FFFC0
1FFFC0
1FFFC0
01F800
01F800
01F800
01F800
01F800
01F800
01F800
01F800
01F800
01F800
01F800
ENDCHAR
STARTCHAR 0168
ENCODING 360
SWIDTH 591 0
DWIDTH 23 0
BBX 20 34 2 0
BITMAP
038000
0FF0C0
3FFFC0
3C7FC0
380F00
000000
000000
FC03F0
FC03F0
FC03F0
FC03F0
FC03F0
FC03F0
FC03F0
FC03F0
FC03F0
FC03F0
FC03F0
FC03F0
FC03F0
FC03F0
FC03F0
FC03F0
FC03F0
FC03F0
FC03F0
FC03F0
FC03F0
FFFFF0
FFFFF0
FFFFF0
7FFFE0
3FFFC0
3FFFC0
ENDCHAR
STARTCHAR 0169
ENCODING 361
SWIDTH 591 0
DWIDTH 23 0
BBX 20 34 2 0
BITMAP
038000
0FF0C0
3FFFC0
3C7FC0
380F00
000000
000000
FC03F0
FC03F0
FC03F0
FC03F0
FC03F0
FC03F0
FC03F0
FC03F0
FC03F0
FC03F0
FC03F0
FC03F0
FC03F0
FC03F0
FC03F0
FC03F0
FC03F0
FC03F0
FC03F0
FC03F0
FC03F0
FFFFF0
FFFFF0
FFFFF0
7FFFE0
3FFFC0
3FFFC0
ENDCHAR
STARTCHAR 016A
ENCODING 362
SWIDTH 591 0
DWIDTH 23 0
BBX 20 33 2 0
BITMAP
3FFFC0
3FFFC0
3FFFC0
3FFFC0
000000
000000
FC03F0
FC03F0
FC03F0
FC03F0
FC03F0
FC03F0
FC03F0
FC03F0
FC03F0
FC03F0
FC03F0
FC03F0
FC03F0
FC03F0
FC03F0
FC03F0
FC03F0
FC03F0
FC03F0
FC03F0
FC03F0
FFFFF0
FFFFF0
FFFFF0
7FFFE0
3FFFC0
3FFFC0
ENDCHAR
STARTCHAR 016B
ENCODING 363
SWIDTH 591 0
DWIDTH 23 0
BBX 20 33 2 0
BITMAP
3FFFC0
3FFFC0
3FFFC0
3FFFC0
000000
000000
FC03F0
FC03F0
FC03F0
FC03F0
FC03F0
FC03F0
FC03F0
FC03F0
FC03F0
FC03F0
FC03F0
FC03F0
FC03F0
FC03F0
FC03F0
FC03F0
FC03F0
FC03F0
FC03F0
FC03F0
FC03F0
FFFFF0
FFFFF0
FFFFF0
7FFFE0
3FFFC0
3FFFC0
ENDCHAR
STARTCHAR 016E
ENCODING 366
SWIDTH 591 0
DWIDTH 23 0
BBX 20 34 2 0
BITMAP
01F000
019800
019800
019800
01F000
000000
000000
FC03F0
FC03F0
FC03F0
FC03F0
FC03F0
FC03F0
FC03F0
FC03F0
FC03F0
FC03F0
FC03F0
FC03F0
FC03F0
FC03F0
FC03F0
FC03F0
FC03F0
FC03F0
FC03F0
FC03F0
FC03F0
FFFFF0
FFFFF0
FFFFF0
7FFFE0
3FFFC0
3FFFC0
ENDCHAR
STARTCHAR 016F
ENCODING 367
SWIDTH 591 0
DWIDTH 23 0
BBX 20 34 2 0
BITMAP
01F000
019800
019800
019800
01F000
000000
000000
FC03F0
FC03F0
FC03F0
FC03F0
FC03F0
FC03F0
FC03F0
FC03F0
FC03F0
FC03F0
FC03F0
FC03F0
FC03F0
FC03F0
FC03F0
FC03F0
FC03F0
FC03F0
FC03F0
FC03F0
FC03F0
FFFFF0
FFFFF0
FFFFF0
7FFFE0
3FFFC0
3FFFC0
ENDCHAR
STARTCHAR 0170
ENCODING 368
SWIDTH 591 0
DWIDTH 23 0
BBX 20 35 2 0
BITMAP
006E00
006E00
00EE00
00CC00
01DC00
019800
000000
000000
FC03F0
FC03F0
FC03F0
FC03F0
FC03F0
FC03F0
FC03F0
FC03F0
FC03F0
FC03F0
FC03F0
FC03F0
FC03F0
FC03F0
FC03F0
FC03F0
FC03F0
FC03F0
FC03F0
FC03F0
FC03F0
FFFFF0
FFFFF0
FFFFF0
7FFFE0
3FFFC0
3FFFC0
ENDCHAR
STARTCHAR 0171
ENCODING 369
SWIDTH 591 0
DWIDTH 23 0
BBX 20 35 2 0
BITMAP
006E00
006E00
00EE00
00CC00
01DC00
019800
000000
000000
FC03F0
FC03F0
FC03F0
FC03F0
FC03F0
FC03F0
FC03F0
FC03F0
FC03F0
FC03F0
FC03F0
FC03F0
FC03F0
FC03F0
FC03F0
FC03F0
FC03F0
FC03F0
FC03F0
FC03F0
FC03F0
FFFFF0
FFFFF0
FFFFF0
7FFFE0
3FFFC0
3FFFC0
ENDCHAR
STARTCHAR 0172
ENCODING 370
SWIDTH 591 0
DWIDTH 23 0
BBX 20 33 2 -6
BITMAP
FC03F0
FC03F0
FC03F0
FC03F0
FC03F0
FC03F0
FC03F0
FC03F0
FC03F0
FC03F0
FC03F0
FC03F0
FC03F0
FC03F0
FC03F0
FC03F0
FC03F0
FC03F0
FC03F0
FC03F0
FC03F0
FFFFF0
FFFFF0
FFFFF0
7FFFE0
3FFFC0
3FFFC0
00E000
00C000
01C000
019800
01F800
01F800
ENDCHAR
STARTCHAR 0173
ENCODING 371
SWIDTH 591 0
DWIDTH 23 0
BBX 20 33 2 -6
BITMAP
FC03F0
FC03F0
FC03F0
FC03F0
FC03F0
FC03F0
FC03F0
FC03F0
FC03F0
FC03F0
FC03F0
FC03F0
FC03F0
FC03F0
FC03F0
FC03F0
FC03F0
FC03F0
FC03F0
FC03F0
FC03F0
FFFFF0
FFFFF0
FFFFF0
7FFFE0
3FFFC0
3FFFC0
00E000
00C000
01C000
019800
01F800
01F800
ENDCHAR
STARTCHAR 0174
ENCODING 372
SWIDTH 874 0
DWIDTH 34 0
BBX 31 34 2 0
BITMAP
003FF000
007FF800
00FFFC00
01F03E00
01E01E00
00000000
00000000
FC00007E
FC0000FE
FC0000FE
FC0000FE
FC0000FC
FE0000FC
FE0000FC
7E0001FC
7E0FC1FC
7E0FE1F8
7F0FE1F8
7F1FE1F8
3F1FF1F8
3F1FF3F8
3F1EF3F0
3FBEF3F0
3FBEFBF0
1FFCFFF0
1FFC7FF0
1FFC7FE0
1FFC7FE0
0FF87FE0
0FF87FE0
0FF83FE0
0FF83FC0
0FF83FC0
07F03FC0
ENDCHAR
STARTCHAR 0175
ENCODING 373
SWIDTH 874 0
DWIDTH 34 0
BBX 31 34 2 0
BITMAP
003FF000
007FF800
00FFFC00
01F03E00
01E01E00
00000000
00000000
FC00007E
FC0000FE
FC0000FE
FC0000FE
FC0000FC
FE0000FC
FE0000FC
7E0001FC
7E0FC1FC
7E0FE1F8
7F0FE1F8
7F1FE1F8
3F1FF1F8
3F1FF3F8
3F1EF3F0
3FBEF3F0
3FBEFBF0
1FFCFFF0
1FFC7FF0
1FFC7FE0
1FFC7FE0
0FF87FE0
0FF87FE0
0FF83FE0
0FF83FC0
0FF83FC0
07F03FC0
ENDCHAR
STARTCHAR 0176
ENCODING 374
SWIDTH 462 0
DWIDTH 18 0
BBX 18 34 0 0
BITMAP
0FFC00
1FFE00
3FFF00
7C0F80
780780
000000
000000
FC0FC0
FC0FC0
FE0FC0
FE1FC0
7E1F80
7F1F80
3F3F80
3F3F00
1FBF00
1FFE00
0FFE00
0FFC00
0FFC00
07F800
07F800
03F800
03F000
03F000
03F000
03F000
03F000
03F000
03F000
03F000
03F000
03F000
03F000
ENDCHAR
STARTCHAR 0177
ENCODING 375
SWIDTH 462 0
DWIDTH 18 0
BBX 18 34 0 0
BITMAP
0FFC00
1FFE00
3FFF00
7C0F80
780780
000000
000000
FC0FC0
FC0FC0
FE0FC0
FE1FC0
7E1F80
7F1F80
3F3F80
3F3F00
1FBF00
1FFE00
0FFE00
0FFC00
0FFC00
07F800
07F800
03F800
03F000
03F000
03F000
03F000
03F000
03F000
03F000
03F000
03F000
03F000
03F000
ENDCHAR
STARTCHAR 0178
ENCODING 376
SWIDTH 462 0
DWIDTH 18 0
BBX 18 32 0 0
BITMAP
0F1C00
0F1C00
0F1C00
000000
000000
FC0FC0
FC0FC0
FE0FC0
FE1FC0
7E1F80
7F1F80
3F3F80
3F3F00
1FBF00
1FFE00
0FFE00
0FFC00
0FFC00
07F800
07F800
03F800
03F000
03F000
03F000
03F000
03F000
03F000
03F000
03F000
03F000
03F000
03F000
ENDCHAR
STARTCHAR 017B
ENCODING 379
SWIDTH 565 0
DWIDTH 22 0
BBX 19 33 2 0
BITMAP
01E000
01E000
01E000
01E000
000000
000000
FFFF00
FFFF80
FFFF80
FFFFC0
FFFFC0
FFFFC0
007F80
007F00
00FF00
00FE00
01FE00
03FC00
03F800
07F800
07F000
0FF000
1FE000
1FC000
3FC000
7F8000
7F8000
FFFFC0
FFFFE0
FFFFE0
7FFFE0
3FFFE0
3FFFE0
ENDCHAR
STARTCHAR 017C
ENCODING 380
SWIDTH 565 0
DWIDTH 22 0
BBX 19 35 2 0
BITMAP
01E000
01E000
01E000
01E000
00E000
000000
000000
000000
FFFF00
FFFF80
FFFF80
FFFFC0
FFFFC0
FFFFC0
007F80
007F00
00FF00
00FE00
01FE00
03FC00
03F800
07F800
07F000
0FF000
1FE000
1FC000
3FC000
7F8000
7F8000
FFFFC0
FFFFE0
FFFFE0
7FFFE0
3FFFE0
3FFFE0
ENDCHAR
STARTCHAR 017D
ENCODING 381
SWIDTH 565 0
DWIDTH 22 0
BBX 19 34 2 0
BITMAP
080400
0C1C00
0E3C00
07F800
03F000
000000
000000
FFFF00
FFFF80
FFFF80
FFFFC0
FFFFC0
FFFFC0
007F80
007F00
00FF00
00FE00
01FE00
03FC00
03F800
07F800
07F000
0FF000
1FE000
1FC000
3FC000
7F8000
7F8000
FFFFC0
FFFFE0
FFFFE0
7FFFE0
3FFFE0
3FFFE0
ENDCHAR
STARTCHAR 017E
ENCODING 382
SWIDTH 565 0
DWIDTH 22 0
BBX 19 34 2 0
BITMAP
0C0400
0E0C00
0F1C00
07F800
03F000
000000
000000
FFFF00
FFFF80
FFFF80
FFFFC0
FFFFC0
FFFFC0
007F80
007F00
00FF00
00FE00
01FE00
03FC00
03F800
07F800
07F000
0FF000
1FE000
1FC000
3FC000
7F8000
7F8000
FFFFC0
FFFFE0
FFFFE0
7FFFE0
3FFFE0
3FFFE0
ENDCHAR
STARTCHAR 01A0
ENCODING 416
SWIDTH 617 0
DWIDTH 24 0
BBX 22 30 2 0
BITMAP
00001C
00001C
00003C
3FFFFC
7FFFF8
7FFFF0
FFFFF0
FFFFF8
FFFFF8
FC03F8
FC01F8
FC01F8
FC01F8
FC01F8
FC01F8
FC01F8
FC01F8
FC01F8
FC01F8
FC01F8
FC01F8
FC01F8
FC01F8
FC03F8
FFFFF8
FFFFF8
FFFFF0
7FFFE0
3FFFE0
3FFFC0
ENDCHAR
STARTCHAR 01A1
ENCODING 417
SWIDTH 617 0
DWIDTH 24 0
BBX 22 30 2 0
BITMAP
00001C
00001C
00003C
3FFFFC
7FFFF8
7FFFF0
FFFFF0
FFFFF8
FFFFF8
FC03F8
FC01F8
FC01F8
FC01F8
FC01F8
FC01F8
FC01F8
FC01F8
FC01F8
FC01F8
FC01F8
FC01F8
FC01F8
FC01F8
FC03F8
FFFFF8
FFFFF8
FFFFF0
7FFFE0
3FFFE0
3FFFC0
ENDCHAR
STARTCHAR 01AF
ENCODING 431
SWIDTH 591 0
DWIDTH 23 0
BBX 22 30 2 0
BITMAP
000018
00001C
00003C
FC03FC
FC03F8
FC03F0
FC03F0
FC03F0
FC03F0
FC03F0
FC03F0
FC03F0
FC03F0
FC03F0
FC03F0
FC03F0
FC03F0
FC03F0
FC03F0
FC03F0
FC03F0
FC03F0
FC03F0
FC03F0
FFFFF0
FFFFF0
FFFFF0
7FFFE0
3FFFC0
3FFFC0
ENDCHAR
STARTCHAR 01B0
ENCODING 432
SWIDTH 591 0
DWIDTH 23 0
BBX 22 30 2 0
BITMAP
000018
00001C
00003C
FC03FC
FC03F8
FC03F0
FC03F0
FC03F0
FC03F0
FC03F0
FC03F0
FC03F0
FC03F0
FC03F0
FC03F0
FC03F0
FC03F0
FC03F0
FC03F0
FC03F0
FC03F0
FC03F0
FC03F0
FC03F0
FFFFF0
FFFFF0
FFFFF0
7FFFE0
3FFFC0
3FFFC0
ENDCHAR
STARTCHAR 0218
ENCODING 536
SWIDTH 540 0
DWIDTH 21 0
BBX 18 33 2 -6
BITMAP
FFFE00
FFFF00
FFFF00
FFFF80
FFFFC0
FFFFC0
FC0FC0
FE0000
FF0000
7F8000
3FC000
1FE000
0FF000
07F800
03FC00
01FE00
00FF00
007F80
007FC0
003FC0
F81FC0
FFFFC0
FFFFC0
FFFFC0
7FFFC0
3FFFC0
3FFF80
000000
00C000
00E000
00E000
00C000
018000
ENDCHAR
STARTCHAR 0219
ENCODING 537
SWIDTH 540 0
DWIDTH 21 0
BBX 18 33 2 -6
BITMAP
FFFE00
FFFF00
FFFF00
FFFF80
FFFFC0
FFFFC0
FC0FC0
FE0000
FF0000
7F8000
3FC000
1FE000
0FF000
07F800
03FC00
01FE00
00FF00
007F80
007FC0
003FC0
F81FC0
FFFFC0
FFFFC0
FFFFC0
7FFFC0
3FFFC0
3FFF80
000000
00C000
00E000
00E000
00C000
018000
ENDCHAR
STARTCHAR 021A
ENCODING 538
SWIDTH 514 0
DWIDTH 20 0
BBX 21 33 0 -6
BITMAP
1FFFC0
3FFFE0
7FFFF0
FFFFF0
FFFFF8
FDFBF8
F9F8F8
F1F878
01F800
01F800
01F800
01F800
01F800
01F800
01F800
01F800
01F800
01F800
01F800
01F800
01F800
01F800
01F800
01F800
01F800
01F800
01F800
000000
007000
007000
007000
006000
00E000
ENDCHAR
STARTCHAR 021B
ENCODING 539
SWIDTH 514 0
DWIDTH 20 0
BBX 21 33 0 -6
BITMAP
1FFFC0
3FFFE0
7FFFF0
FFFFF0
FFFFF8
FDFBF8
F9F8F8
F1F878
01F800
01F800
01F800
01F800
01F800
01F800
01F800
01F800
01F800
01F800
01F800
01F800
01F800
01F800
01F800
01F800
01F800
01F800
01F800
000000
007000
007000
007000
006000
00E000
ENDCHAR
STARTCHAR 0259
ENCODING 601
SWIDTH 540 0
DWIDTH 21 0
BBX 18 27 2 0
BITMAP
3FFFC0
7FFFC0
7FFFC0
FFFFC0
FFFFC0
FFFFC0
F80FC0
000FC0
000FC0
000FC0
000FC0
FF8FC0
FF8FC0
FF8FC0
FF8FC0
FF8FC0
FF8FC0
FC0FC0
FC0FC0
FC0FC0
FC0FC0
FFFFC0
FFFFC0
FFFFC0
FFFFC0
FFFFC0
EFFFC0
ENDCHAR
STARTCHAR 02C6
ENCODING 710
SWIDTH 437 0
DWIDTH 17 0
BBX 16 5 1 29
BITMAP
1FF8
3FFC
7FFE
F81F
F00F
ENDCHAR
STARTCHAR 02C7
ENCODING 711
SWIDTH 282 0
DWIDTH 11 0
BBX 10 5 1 29
BITMAP
80C0
C1C0
E3C0
7F80
3F00
ENDCHAR
STARTCHAR 02D8
ENCODING 728
SWIDTH 437 0
DWIDTH 17 0
BBX 16 5 1 29
BITMAP
E007
F00F
FFFF
7FFE
3FF8
ENDCHAR
STARTCHAR 02D9
ENCODING 729
SWIDTH 154 0
DWIDTH 6 0
BBX 5 5 1 30
BITMAP
F0
F8
F8
F8
70
ENDCHAR
STARTCHAR 02DA
ENCODING 730
SWIDTH 180 0
DWIDTH 7 0
BBX 5 5 1 29
BITMAP
F8
D8
C8
D8
F8
ENDCHAR
STARTCHAR 02DB
ENCODING 731
SWIDTH 205 0
DWIDTH 8 0
BBX 7 6 1 -6
BITMAP
70
60
E0
EE
FC
FC
ENDCHAR
STARTCHAR 02DC
ENCODING 732
SWIDTH 437 0
DWIDTH 17 0
BBX 16 5 1 29
BITMAP
0E00
3FC3
FFFF
F1FF
C03C
ENDCHAR
STARTCHAR 02DD
ENCODING 733
SWIDTH 231 0
DWIDTH 9 0
BBX 8 6 1 29
BITMAP
33
33
77
76
EE
EE
ENDCHAR
STARTCHAR 1E20
ENCODING 7712
SWIDTH 540 0
DWIDTH 21 0
BBX 18 33 2 0
BITMAP
FFFF00
FFFF00
FFFF00
FFFF00
000000
000000
FFFE00
FFFF00
FFFF80
FFFFC0
FFFFC0
FFFFC0
FC0FC0
FC0000
FC0000
FC0000
FC0000
FC7FC0
FC7FC0
FC7FC0
FC7FC0
FC7FC0
FC7FC0
FC0FC0
FC0FC0
FC0FC0
FC0FC0
FFFFC0
FFFFC0
FFFFC0
FFFFC0
FFFFC0
FFF9C0
ENDCHAR
STARTCHAR 1E3E
ENCODING 7742
SWIDTH 694 0
DWIDTH 27 0
BBX 23 33 2 0
BITMAP
0003E0
03FFE0
07FF00
07E000
000000
000000
3F83F8
7F83FC
7FC7FC
FFC7FE
FFC7FE
FFC7FE
FFC7FE
FFC7FE
FFE7FE
FDEF7E
FDEF7E
FDEF7E
FDEF7E
FDEF7E
FDEF7E
FCFE7E
FCFE7E
FCFE7E
FCFE7E
FCFE7E
FC7C7E
FC007E
FC007E
FC007E
FC007E
FC007E
FC007E
ENDCHAR
STARTCHAR 1E3F
ENCODING 7743
SWIDTH 694 0
DWIDTH 27 0
BBX 23 33 2 0
BITMAP
0003E0
03FFE0
07FF00
07E000
000000
000000
3F83F8
7F83FC
7FC7FC
FFC7FE
FFC7FE
FFC7FE
FFC7FE
FFC7FE
FFE7FE
FDEF7E
FDEF7E
FDEF7E
FDEF7E
FDEF7E
FDEF7E
FCFE7E
FCFE7E
FCFE7E
FCFE7E
FCFE7E
FC7C7E
FC007E
FC007E
FC007E
FC007E
FC007E
FC007E
ENDCHAR
STARTCHAR 1E44
ENCODING 7748
SWIDTH 565 0
DWIDTH 22 0
BBX 19 33 2 0
BITMAP
01E000
01E000
01E000
01E000
000000
000000
3C07E0
7C07E0
7E07E0
FE07E0
FF07E0
FF07E0
FF87E0
FF87E0
FFC7E0
FFC7E0
FFC7E0
FFE7E0
FFE7E0
FDFFE0
FDFFE0
FDFFE0
FCFFE0
FCFFE0
FC7FE0
FC7FE0
FC3FE0
FC3FE0
FC1FE0
FC1FC0
FC0F80
FC0F80
FC0F00
ENDCHAR
STARTCHAR 1E45
ENCODING 7749
SWIDTH 565 0
DWIDTH 22 0
BBX 19 33 2 0
BITMAP
01E000
01E000
01E000
01E000
000000
000000
3C07E0
7C07E0
7E07E0
FE07E0
FF07E0
FF07E0
FF87E0
FF87E0
FFC7E0
FFC7E0
FFC7E0
FFE7E0
FFE7E0
FDFFE0
FDFFE0
FDFFE0
FCFFE0
FCFFE0
FC7FE0
FC7FE0
FC3FE0
FC3FE0
FC1FE0
FC1FC0
FC0F80
FC0F80
FC0F00
ENDCHAR
STARTCHAR 1E80
ENCODING 7808
SWIDTH 874 0
DWIDTH 34 0
BBX 31 33 2 0
BITMAP
00F00000
00FF8000
00FFFC00
001FFC00
00000000
00000000
FC00007E
FC0000FE
FC0000FE
FC0000FE
FC0000FC
FE0000FC
FE0000FC
7E0001FC
7E0FC1FC
7E0FE1F8
7F0FE1F8
7F1FE1F8
3F1FF1F8
3F1FF3F8
3F1EF3F0
3FBEF3F0
3FBEFBF0
1FFCFFF0
1FFC7FF0
1FFC7FE0
1FFC7FE0
0FF87FE0
0FF87FE0
0FF83FE0
0FF83FC0
0FF83FC0
07F03FC0
ENDCHAR
STARTCHAR 1E81
ENCODING 7809
SWIDTH 874 0
DWIDTH 34 0
BBX 31 33 2 0
BITMAP
00F00000
00FF8000
00FFFC00
001FFC00
00000000
00000000
FC00007E
FC0000FE
FC0000FE
FC0000FE
FC0000FC
FE0000FC
FE0000FC
7E0001FC
7E0FC1FC
7E0FE1F8
7F0FE1F8
7F1FE1F8
3F1FF1F8
3F1FF3F8
3F1EF3F0
3FBEF3F0
3FBEFBF0
1FFCFFF0
1FFC7FF0
1FFC7FE0
1FFC7FE0
0FF87FE0
0FF87FE0
0FF83FE0
0FF83FC0
0FF83FC0
07F03FC0
ENDCHAR
STARTCHAR 1E82
ENCODING 7810
SWIDTH 874 0
DWIDTH 34 0
BBX 31 33 2 0
BITMAP
00007C00
007FFC00
00FFE000
00FC0000
00000000
00000000
FC00007E
FC0000FE
FC0000FE
FC0000FE
FC0000FC
FE0000FC
FE0000FC
7E0001FC
7E0FC1FC
7E0FE1F8
7F0FE1F8
7F1FE1F8
3F1FF1F8
3F1FF3F8
3F1EF3F0
3FBEF3F0
3FBEFBF0
1FFCFFF0
1FFC7FF0
1FFC7FE0
1FFC7FE0
0FF87FE0
0FF87FE0
0FF83FE0
0FF83FC0
0FF83FC0
07F03FC0
ENDCHAR
STARTCHAR 1E83
ENCODING 7811
SWIDTH 874 0
DWIDTH 34 0
BBX 31 33 2 0
BITMAP
00007C00
007FFC00
00FFE000
00FC0000
00000000
00000000
FC00007E
FC0000FE
FC0000FE
FC0000FE
FC0000FC
FE0000FC
FE0000FC
7E0001FC
7E0FC1FC
7E0FE1F8
7F0FE1F8
7F1FE1F8
3F1FF1F8
3F1FF3F8
3F1EF3F0
3FBEF3F0
3FBEFBF0
1FFCFFF0
1FFC7FF0
1FFC7FE0
1FFC7FE0
0FF87FE0
0FF87FE0
0FF83FE0
0FF83FC0
0FF83FC0
07F03FC0
ENDCHAR
STARTCHAR 1E84
ENCODING 7812
SWIDTH 874 0
DWIDTH 34 0
BBX 31 32 2 0
BITMAP
003CF000
003CF000
003CF000
00000000
00000000
FC00007E
FC0000FE
FC0000FE
FC0000FE
FC0000FC
FE0000FC
FE0000FC
7E0001FC
7E0FC1FC
7E0FE1F8
7F0FE1F8
7F1FE1F8
3F1FF1F8
3F1FF3F8
3F1EF3F0
3FBEF3F0
3FBEFBF0
1FFCFFF0
1FFC7FF0
1FFC7FE0
1FFC7FE0
0FF87FE0
0FF87FE0
0FF83FE0
0FF83FC0
0FF83FC0
07F03FC0
ENDCHAR
STARTCHAR 1E85
ENCODING 7813
SWIDTH 874 0
DWIDTH 34 0
BBX 31 32 2 0
BITMAP
003CF000
003CF000
003CF000
00000000
00000000
FC00007E
FC0000FE
FC0000FE
FC0000FE
FC0000FC
FE0000FC
FE0000FC
7E0001FC
7E0FC1FC
7E0FE1F8
7F0FE1F8
7F1FE1F8
3F1FF1F8
3F1FF3F8
3F1EF3F0
3FBEF3F0
3FBEFBF0
1FFCFFF0
1FFC7FF0
1FFC7FE0
1FFC7FE0
0FF87FE0
0FF87FE0
0FF83FE0
0FF83FC0
0FF83FC0
07F03FC0
ENDCHAR
STARTCHAR 1EA0
ENCODING 7840
SWIDTH 565 0
DWIDTH 22 0
BBX 22 31 0 -4
BITMAP
03FF80
07FF80
07FFC0
07FFC0
07FFC0
07FFC0
0FC7C0
0F87E0
0F87E0
0F83E0
0F83E0
1F83E0
1F83F0
1F03F0
1F03F0
1F01F0
3F83F0
3FFFF8
3FFFF8
3FFFF8
3FFFF8
7E01F8
7E00FC
7E00FC
7E00FC
7E00FC
FE00FC
000000
000000
007C00
007C00
ENDCHAR
STARTCHAR 1EA1
ENCODING 7841
SWIDTH 565 0
DWIDTH 22 0
BBX 22 31 0 -4
BITMAP
03FF80
07FF80
07FFC0
07FFC0
07FFC0
07FFC0
0FC7C0
0F87E0
0F87E0
0F83E0
0F83E0
1F83E0
1F83F0
1F03F0
1F03F0
1F01F0
3F83F0
3FFFF8
3FFFF8
3FFFF8
3FFFF8
7E01F8
7E00FC
7E00FC
7E00FC
7E00FC
FE00FC
000000
000000
007C00
007C00
ENDCHAR
STARTCHAR 1EA2
ENCODING 7842
SWIDTH 565 0
DWIDTH 22 0
BBX 22 35 0 0
BITMAP
007C00
00FE00
00CE00
001C00
001800
001800
000000
000000
03FF80
07FF80
07FFC0
07FFC0
07FFC0
07FFC0
0FC7C0
0F87E0
0F87E0
0F83E0
0F83E0
1F83E0
1F83F0
1F03F0
1F03F0
1F01F0
3F83F0
3FFFF8
3FFFF8
3FFFF8
3FFFF8
7E01F8
7E00FC
7E00FC
7E00FC
7E00FC
FE00FC
ENDCHAR
STARTCHAR 1EA3
ENCODING 7843
SWIDTH 565 0
DWIDTH 22 0
BBX 22 35 0 0
BITMAP
007C00
00FE00
00CE00
001C00
001800
001800
000000
000000
03FF80
07FF80
07FFC0
07FFC0
07FFC0
07FFC0
0FC7C0
0F87E0
0F87E0
0F83E0
0F83E0
1F83E0
1F83F0
1F03F0
1F03F0
1F01F0
3F83F0
3FFFF8
3FFFF8
3FFFF8
3FFFF8
7E01F8
7E00FC
7E00FC
7E00FC
7E00FC
FE00FC
ENDCHAR
STARTCHAR 1EA4
ENCODING 7844
SWIDTH 565 0
DWIDTH 22 0
BBX 22 39 0 0
BITMAP
007FC0
0FFFC0
0FFC00
0F8000
000000
03FF00
07FF80
0FFFC0
1F03E0
1E01E0
000000
000000
03FF80
07FF80
07FFC0
07FFC0
07FFC0
07FFC0
0FC7C0
0F87E0
0F87E0
0F83E0
0F83E0
1F83E0
1F83F0
1F03F0
1F03F0
1F01F0
3F83F0
3FFFF8
3FFFF8
3FFFF8
3FFFF8
7E01F8
7E00FC
7E00FC
7E00FC
7E00FC
FE00FC
ENDCHAR
STARTCHAR 1EA5
ENCODING 7845
SWIDTH 565 0
DWIDTH 22 0
BBX 22 39 0 0
BITMAP
007FC0
0FFFC0
0FFC00
0F8000
000000
03FF00
07FF80
0FFFC0
1F03E0
1E01E0
000000
000000
03FF80
07FF80
07FFC0
07FFC0
07FFC0
07FFC0
0FC7C0
0F87E0
0F87E0
0F83E0
0F83E0
1F83E0
1F83F0
1F03F0
1F03F0
1F01F0
3F83F0
3FFFF8
3FFFF8
3FFFF8
3FFFF8
7E01F8
7E00FC
7E00FC
7E00FC
7E00FC
FE00FC
ENDCHAR
STARTCHAR 1EA6
ENCODING 7846
SWIDTH 565 0
DWIDTH 22 0
BBX 22 39 0 0
BITMAP
0FC000
0FFE00
0FFFC0
001FC0
000000
03FF00
07FF80
0FFFC0
1F03E0
1E01E0
000000
000000
03FF80
07FF80
07FFC0
07FFC0
07FFC0
07FFC0
0FC7C0
0F87E0
0F87E0
0F83E0
0F83E0
1F83E0
1F83F0
1F03F0
1F03F0
1F01F0
3F83F0
3FFFF8
3FFFF8
3FFFF8
3FFFF8
7E01F8
7E00FC
7E00FC
7E00FC
7E00FC
FE00FC
ENDCHAR
STARTCHAR 1EA7
ENCODING 7847
SWIDTH 565 0
DWIDTH 22 0
BBX 22 39 0 0
BITMAP
0FC000
0FFE00
0FFFC0
001FC0
000000
03FF00
07FF80
0FFFC0
1F03E0
1E01E0
000000
000000
03FF80
07FF80
07FFC0
07FFC0
07FFC0
07FFC0
0FC7C0
0F87E0
0F87E0
0F83E0
0F83E0
1F83E0
1F83F0
1F03F0
1F03F0
1F01F0
3F83F0
3FFFF8
3FFFF8
3FFFF8
3FFFF8
7E01F8
7E00FC
7E00FC
7E00FC
7E00FC
FE00FC
ENDCHAR
STARTCHAR 1EA8
ENCODING 7848
SWIDTH 565 0
DWIDTH 22 0
BBX 22 41 0 0
BITMAP
00FE00
00FE00
00CE00
001C00
001800
001800
000000
03FF00
07FF80
0FFFC0
1F03E0
1E01E0
000000
000000
03FF80
07FF80
07FFC0
07FFC0
07FFC0
07FFC0
0FC7C0
0F87E0
0F87E0
0F83E0
0F83E0
1F83E0
1F83F0
1F03F0
1F03F0
1F01F0
3F83F0
3FFFF8
3FFFF8
3FFFF8
3FFFF8
7E01F8
7E00FC
7E00FC
7E00FC
7E00FC
FE00FC
ENDCHAR
STARTCHAR 1EA9
ENCODING 7849
SWIDTH 565 0
DWIDTH 22 0
BBX 22 41 0 0
BITMAP
00FE00
00FE00
00CE00
001C00
001800
001800
000000
03FF00
07FF80
0FFFC0
1F03E0
1E01E0
000000
000000
03FF80
07FF80
07FFC0
07FFC0
07FFC0
07FFC0
0FC7C0
0F87E0
0F87E0
0F83E0
0F83E0
1F83E0
1F83F0
1F03F0
1F03F0
1F01F0
3F83F0
3FFFF8
3FFFF8
3FFFF8
3FFFF8
7E01F8
7E00FC
7E00FC
7E00FC
7E00FC
FE00FC
ENDCHAR
STARTCHAR 1EAA
ENCODING 7850
SWIDTH 565 0
DWIDTH 22 0
BBX 22 40 0 0
BITMAP
01E000
07FC60
1FFFE0
1E1FE0
1C0380
000000
03FF00
07FF80
0FFFC0
1F03E0
1E01E0
000000
000000
03FF80
07FF80
07FFC0
07FFC0
07FFC0
07FFC0
0FC7C0
0F87E0
0F87E0
0F83E0
0F83E0
1F83E0
1F83F0
1F03F0
1F03F0
1F01F0
3F83F0
3FFFF8
3FFFF8
3FFFF8
3FFFF8
7E01F8
7E00FC
7E00FC
7E00FC
7E00FC
FE00FC
ENDCHAR
STARTCHAR 1EAB
ENCODING 7851
SWIDTH 565 0
DWIDTH 22 0
BBX 22 40 0 0
BITMAP
01E000
07FC60
1FFFE0
1E1FE0
1C0380
000000
03FF00
07FF80
0FFFC0
1F03E0
1E01E0
000000
000000
03FF80
07FF80
07FFC0
07FFC0
07FFC0
07FFC0
0FC7C0
0F87E0
0F87E0
0F83E0
0F83E0
1F83E0
1F83F0
1F03F0
1F03F0
1F01F0
3F83F0
3FFFF8
3FFFF8
3FFFF8
3FFFF8
7E01F8
7E00FC
7E00FC
7E00FC
7E00FC
FE00FC
ENDCHAR
STARTCHAR 1EAC
ENCODING 7852
SWIDTH 565 0
DWIDTH 22 0
BBX 22 38 0 -4
BITMAP
03FF00
07FF80
0FFFC0
1F03E0
1E01E0
000000
000000
03FF80
07FF80
07FFC0
07FFC0
07FFC0
07FFC0
0FC7C0
0F87E0
0F87E0
0F83E0
0F83E0
1F83E0
1F83F0
1F03F0
1F03F0
1F01F0
3F83F0
3FFFF8
3FFFF8
3FFFF8
3FFFF8
7E01F8
7E00FC
7E00FC
7E00FC
7E00FC
FE00FC
000000
000000
007C00
007C00
ENDCHAR
STARTCHAR 1EAD
ENCODING 7853
SWIDTH 565 0
DWIDTH 22 0
BBX 22 38 0 -4
BITMAP
03FF00
07FF80
0FFFC0
1F03E0
1E01E0
000000
000000
03FF80
07FF80
07FFC0
07FFC0
07FFC0
07FFC0
0FC7C0
0F87E0
0F87E0
0F83E0
0F83E0
1F83E0
1F83F0
1F03F0
1F03F0
1F01F0
3F83F0
3FFFF8
3FFFF8
3FFFF8
3FFFF8
7E01F8
7E00FC
7E00FC
7E00FC
7E00FC
FE00FC
000000
000000
007C00
007C00
ENDCHAR
STARTCHAR 1EAE
ENCODING 7854
SWIDTH 565 0
DWIDTH 22 0
BBX 22 39 0 0
BITMAP
007FC0
0FFFC0
0FFC00
0F8000
000000
1C00E0
1E01E0
1FFFE0
0FFFC0
07FF80
000000
000000
03FF80
07FF80
07FFC0
07FFC0
07FFC0
07FFC0
0FC7C0
0F87E0
0F87E0
0F83E0
0F83E0
1F83E0
1F83F0
1F03F0
1F03F0
1F01F0
3F83F0
3FFFF8
3FFFF8
3FFFF8
3FFFF8
7E01F8
7E00FC
7E00FC
7E00FC
7E00FC
FE00FC
ENDCHAR
STARTCHAR 1EAF
ENCODING 7855
SWIDTH 565 0
DWIDTH 22 0
BBX 22 39 0 0
BITMAP
007FC0
0FFFC0
0FFC00
0F8000
000000
1C00E0
1E01E0
1FFFE0
0FFFC0
07FF80
000000
000000
03FF80
07FF80
07FFC0
07FFC0
07FFC0
07FFC0
0FC7C0
0F87E0
0F87E0
0F83E0
0F83E0
1F83E0
1F83F0
1F03F0
1F03F0
1F01F0
3F83F0
3FFFF8
3FFFF8
3FFFF8
3FFFF8
7E01F8
7E00FC
7E00FC
7E00FC
7E00FC
FE00FC
ENDCHAR
STARTCHAR 1EB0
ENCODING 7856
SWIDTH 565 0
DWIDTH 22 0
BBX 22 39 0 0
BITMAP
0FC000
0FFE00
0FFFC0
001FC0
000000
1C00E0
1E01E0
1FFFE0
0FFFC0
07FF80
000000
000000
03FF80
07FF80
07FFC0
07FFC0
07FFC0
07FFC0
0FC7C0
0F87E0
0F87E0
0F83E0
0F83E0
1F83E0
1F83F0
1F03F0
1F03F0
1F01F0
3F83F0
3FFFF8
3FFFF8
3FFFF8
3FFFF8
7E01F8
7E00FC
7E00FC
7E00FC
7E00FC
FE00FC
ENDCHAR
STARTCHAR 1EB1
ENCODING 7857
SWIDTH 565 0
DWIDTH 22 0
BBX 22 39 0 0
BITMAP
0FC000
0FFE00
0FFFC0
001FC0
000000
1C00E0
1E01E0
1FFFE0
0FFFC0
07FF80
000000
000000
03FF80
07FF80
07FFC0
07FFC0
07FFC0
07FFC0
0FC7C0
0F87E0
0F87E0
0F83E0
0F83E0
1F83E0
1F83F0
1F03F0
1F03F0
1F01F0
3F83F0
3FFFF8
3FFFF8
3FFFF8
3FFFF8
7E01F8
7E00FC
7E00FC
7E00FC
7E00FC
FE00FC
ENDCHAR
STARTCHAR 1EB2
ENCODING 7858
SWIDTH 565 0
DWIDTH 22 0
BBX 22 40 0 0
BITMAP
007C00
00FE00
00FE00
000C00
001C00
001800
1C00E0
1E01E0
1FFFE0
0FFFC0
07FF80
000000
000000
03FF80
07FF80
07FFC0
07FFC0
07FFC0
07FFC0
0FC7C0
0F87E0
0F87E0
0F83E0
0F83E0
1F83E0
1F83F0
1F03F0
1F03F0
1F01F0
3F83F0
3FFFF8
3FFFF8
3FFFF8
3FFFF8
7E01F8
7E00FC
7E00FC
7E00FC
7E00FC
FE00FC
ENDCHAR
STARTCHAR 1EB3
ENCODING 7859
SWIDTH 565 0
DWIDTH 22 0
BBX 22 40 0 0
BITMAP
007C00
00FE00
00FE00
000C00
001C00
001800
1C00E0
1E01E0
1FFFE0
0FFFC0
07FF80
000000
000000
03FF80
07FF80
07FFC0
07FFC0
07FFC0
07FFC0
0FC7C0
0F87E0
0F87E0
0F83E0
0F83E0
1F83E0
1F83F0
1F03F0
1F03F0
1F01F0
3F83F0
3FFFF8
3FFFF8
3FFFF8
3FFFF8
7E01F8
7E00FC
7E00FC
7E00FC
7E00FC
FE00FC
ENDCHAR
STARTCHAR 1EB4
ENCODING 7860
SWIDTH 565 0
DWIDTH 22 0
BBX 22 40 0 0
BITMAP
01E000
07FC60
1FFFE0
1E1FE0
1C0380
000000
1C00E0
1E01E0
1FFFE0
0FFFC0
07FF80
000000
000000
03FF80
07FF80
07FFC0
07FFC0
07FFC0
07FFC0
0FC7C0
0F87E0
0F87E0
0F83E0
0F83E0
1F83E0
1F83F0
1F03F0
1F03F0
1F01F0
3F83F0
3FFFF8
3FFFF8
3FFFF8
3FFFF8
7E01F8
7E00FC
7E00FC
7E00FC
7E00FC
FE00FC
ENDCHAR
STARTCHAR 1EB5
ENCODING 7861
SWIDTH 565 0
DWIDTH 22 0
BBX 22 40 0 0
BITMAP
01E000
07FC60
1FFFE0
1E1FE0
1C0380
000000
1C00E0
1E01E0
1FFFE0
0FFFC0
07FF80
000000
000000
03FF80
07FF80
07FFC0
07FFC0
07FFC0
07FFC0
0FC7C0
0F87E0
0F87E0
0F83E0
0F83E0
1F83E0
1F83F0
1F03F0
1F03F0
1F01F0
3F83F0
3FFFF8
3FFFF8
3FFFF8
3FFFF8
7E01F8
7E00FC
7E00FC
7E00FC
7E00FC
FE00FC
ENDCHAR
STARTCHAR 1EB6
ENCODING 7862
SWIDTH 565 0
DWIDTH 22 0
BBX 22 38 0 -4
BITMAP
1C00E0
1E01E0
1FFFE0
0FFFC0
07FF80
000000
000000
03FF80
07FF80
07FFC0
07FFC0
07FFC0
07FFC0
0FC7C0
0F87E0
0F87E0
0F83E0
0F83E0
1F83E0
1F83F0
1F03F0
1F03F0
1F01F0
3F83F0
3FFFF8
3FFFF8
3FFFF8
3FFFF8
7E01F8
7E00FC
7E00FC
7E00FC
7E00FC
FE00FC
000000
000000
007C00
007C00
ENDCHAR
STARTCHAR 1EB7
ENCODING 7863
SWIDTH 565 0
DWIDTH 22 0
BBX 22 38 0 -4
BITMAP
1C00E0
1E01E0
1FFFE0
0FFFC0
07FF80
000000
000000
03FF80
07FF80
07FFC0
07FFC0
07FFC0
07FFC0
0FC7C0
0F87E0
0F87E0
0F83E0
0F83E0
1F83E0
1F83F0
1F03F0
1F03F0
1F01F0
3F83F0
3FFFF8
3FFFF8
3FFFF8
3FFFF8
7E01F8
7E00FC
7E00FC
7E00FC
7E00FC
FE00FC
000000
000000
007C00
007C00
ENDCHAR
STARTCHAR 1EB8
ENCODING 7864
SWIDTH 540 0
DWIDTH 21 0
BBX 18 31 2 -4
BITMAP
FFFE00
FFFF00
FFFF00
FFFF80
FFFFC0
FFFFC0
FC0FC0
FC0000
FC0000
FC0000
FC0000
FFF800
FFF800
FFF800
FFF800
FFF800
FC0000
FC0000
FC0000
FC0000
FC0FC0
FFFFC0
FFFFC0
FFFF80
FFFF00
FFFF00
FFFE00
000000
000000
07E000
07E000
ENDCHAR
STARTCHAR 1EB9
ENCODING 7865
SWIDTH 540 0
DWIDTH 21 0
BBX 18 31 2 -4
BITMAP
FFFE00
FFFF00
FFFF00
FFFF80
FFFFC0
FFFFC0
FC0FC0
FC0000
FC0000
FC0000
FC0000
FFF800
FFF800
FFF800
FFF800
FFF800
FC0000
FC0000
FC0000
FC0000
FC0FC0
FFFFC0
FFFFC0
FFFF80
FFFF00
FFFF00
FFFE00
000000
000000
07E000
07E000
ENDCHAR
STARTCHAR 1EBA
ENCODING 7866
SWIDTH 540 0
DWIDTH 21 0
BBX 18 35 2 0
BITMAP
07E000
0FF000
0E6000
00C000
01C000
018000
000000
000000
FFFE00
FFFF00
FFFF00
FFFF80
FFFFC0
FFFFC0
FC0FC0
FC0000
FC0000
FC0000
FC0000
FFF800
FFF800
FFF800
FFF800
FFF800
FC0000
FC0000
FC0000
FC0000
FC0FC0
FFFFC0
FFFFC0
FFFF80
FFFF00
FFFF00
FFFE00
ENDCHAR
STARTCHAR 1EBB
ENCODING 7867
SWIDTH 540 0
DWIDTH 21 0
BBX 18 35 2 0
BITMAP
07E000
0FF000
0E6000
00C000
01C000
018000
000000
000000
FFFE00
FFFF00
FFFF00
FFFF80
FFFFC0
FFFFC0
FC0FC0
FC0000
FC0000
FC0000
FC0000
FFF800
FFF800
FFF800
FFF800
FFF800
FC0000
FC0000
FC0000
FC0000
FC0FC0
FFFFC0
FFFFC0
FFFF80
FFFF00
FFFF00
FFFE00
ENDCHAR
STARTCHAR 1EBC
ENCODING 7868
SWIDTH 540 0
DWIDTH 21 0
BBX 18 34 2 0
BITMAP
0E0000
3F8200
FFFE00
F1FE00
C03C00
000000
000000
FFFE00
FFFF00
FFFF00
FFFF80
FFFFC0
FFFFC0
FC0FC0
FC0000
FC0000
FC0000
FC0000
FFF800
FFF800
FFF800
FFF800
FFF800
FC0000
FC0000
FC0000
FC0000
FC0FC0
FFFFC0
FFFFC0
FFFF80
FFFF00
FFFF00
FFFE00
ENDCHAR
STARTCHAR 1EBD
ENCODING 7869
SWIDTH 540 0
DWIDTH 21 0
BBX 18 34 2 0
BITMAP
0E0000
3F8200
FFFE00
F1FE00
C03C00
000000
000000
FFFE00
FFFF00
FFFF00
FFFF80
FFFFC0
FFFFC0
FC0FC0
FC0000
FC0000
FC0000
FC0000
FFF800
FFF800
FFF800
FFF800
FFF800
FC0000
FC0000
FC0000
FC0000
FC0FC0
FFFFC0
FFFFC0
FFFF80
FFFF00
FFFF00
FFFE00
ENDCHAR
STARTCHAR 1EBE
ENCODING 7870
SWIDTH 540 0
DWIDTH 21 0
BBX 18 39 2 0
BITMAP
01FE00
7FFE00
7FE000
7C0000
000000
1FF000
3FF800
FFFE00
F81E00
E00E00
000000
000000
FFFE00
FFFF00
FFFF00
FFFF80
FFFFC0
FFFFC0
FC0FC0
FC0000
FC0000
FC0000
FC0000
FFF800
FFF800
FFF800
FFF800
FFF800
FC0000
FC0000
FC0000
FC0000
FC0FC0
FFFFC0
FFFFC0
FFFF80
FFFF00
FFFF00
FFFE00
ENDCHAR
STARTCHAR 1EBF
ENCODING 7871
SWIDTH 540 0
DWIDTH 21 0
BBX 18 39 2 0
BITMAP
01FE00
7FFE00
7FE000
7C0000
000000
1FF000
3FF800
FFFE00
F81E00
E00E00
000000
000000
FFFE00
FFFF00
FFFF00
FFFF80
FFFFC0
FFFFC0
FC0FC0
FC0000
FC0000
FC0000
FC0000
FFF800
FFF800
FFF800
FFF800
FFF800
FC0000
FC0000
FC0000
FC0000
FC0FC0
FFFFC0
FFFFC0
FFFF80
FFFF00
FFFF00
FFFE00
ENDCHAR
STARTCHAR 1EC0
ENCODING 7872
SWIDTH 540 0
DWIDTH 21 0
BBX 18 39 2 0
BITMAP
7E0000
7FF000
3FFE00
00FE00
000000
1FF000
3FF800
FFFE00
F81E00
E00E00
000000
000000
FFFE00
FFFF00
FFFF00
FFFF80
FFFFC0
FFFFC0
FC0FC0
FC0000
FC0000
FC0000
FC0000
FFF800
FFF800
FFF800
FFF800
FFF800
FC0000
FC0000
FC0000
FC0000
FC0FC0
FFFFC0
FFFFC0
FFFF80
FFFF00
FFFF00
FFFE00
ENDCHAR
STARTCHAR 1EC1
ENCODING 7873
SWIDTH 540 0
DWIDTH 21 0
BBX 18 39 2 0
BITMAP
7E0000
7FF000
3FFE00
00FE00
000000
1FF000
3FF800
FFFE00
F81E00
E00E00
000000
000000
FFFE00
FFFF00
FFFF00
FFFF80
FFFFC0
FFFFC0
FC0FC0
FC0000
FC0000
FC0000
FC0000
FFF800
FFF800
FFF800
FFF800
FFF800
FC0000
FC0000
FC0000
FC0000
FC0FC0
FFFFC0
FFFFC0
FFFF80
FFFF00
FFFF00
FFFE00
ENDCHAR
STARTCHAR 1EC2
ENCODING 7874
SWIDTH 540 0
DWIDTH 21 0
BBX 18 41 2 0
BITMAP
07E000
0FF000
0EE000
01C000
01C000
018000
000000
1FF000
3FF800
FFFE00
F81E00
E00E00
000000
000000
FFFE00
FFFF00
FFFF00
FFFF80
FFFFC0
FFFFC0
FC0FC0
FC0000
FC0000
FC0000
FC0000
FFF800
FFF800
FFF800
FFF800
FFF800
FC0000
FC0000
FC0000
FC0000
FC0FC0
FFFFC0
FFFFC0
FFFF80
FFFF00
FFFF00
FFFE00
ENDCHAR
STARTCHAR 1EC3
ENCODING 7875
SWIDTH 540 0
DWIDTH 21 0
BBX 18 41 2 0
BITMAP
07E000
0FF000
0EE000
01C000
01C000
018000
000000
1FF000
3FF800
FFFE00
F81E00
E00E00
000000
000000
FFFE00
FFFF00
FFFF00
FFFF80
FFFFC0
FFFFC0
FC0FC0
FC0000
FC0000
FC0000
FC0000
FFF800
FFF800
FFF800
FFF800
FFF800
FC0000
FC0000
FC0000
FC0000
FC0FC0
FFFFC0
FFFFC0
FFFF80
FFFF00
FFFF00
FFFE00
ENDCHAR
STARTCHAR 1EC4
ENCODING 7876
SWIDTH 540 0
DWIDTH 21 0
BBX 18 40 2 0
BITMAP
1E0000
7FC600
FFFE00
E0FE00
C03800
000000
1FF000
3FF800
FFFE00
F81E00
E00E00
000000
000000
FFFE00
FFFF00
FFFF00
FFFF80
FFFFC0
FFFFC0
FC0FC0
FC0000
FC0000
FC0000
FC0000
FFF800
FFF800
FFF800
FFF800
FFF800
FC0000
FC0000
FC0000
FC0000
FC0FC0
FFFFC0
FFFFC0
FFFF80
FFFF00
FFFF00
FFFE00
ENDCHAR
STARTCHAR 1EC5
ENCODING 7877
SWIDTH 540 0
DWIDTH 21 0
BBX 18 40 2 0
BITMAP
1E0000
7FC600
FFFE00
E0FE00
C03800
000000
1FF000
3FF800
FFFE00
F81E00
E00E00
000000
000000
FFFE00
FFFF00
FFFF00
FFFF80
FFFFC0
FFFFC0
FC0FC0
FC0000
FC0000
FC0000
FC0000
FFF800
FFF800
FFF800
FFF800
FFF800
FC0000
FC0000
FC0000
FC0000
FC0FC0
FFFFC0
FFFFC0
FFFF80
FFFF00
FFFF00
FFFE00
ENDCHAR
STARTCHAR 1EC6
ENCODING 7878
SWIDTH 540 0
DWIDTH 21 0
BBX 18 38 2 -4
BITMAP
1FF000
3FF800
FFFE00
F81E00
E00E00
000000
000000
FFFE00
FFFF00
FFFF00
FFFF80
FFFFC0
FFFFC0
FC0FC0
FC0000
FC0000
FC0000
FC0000
FFF800
FFF800
FFF800
FFF800
FFF800
FC0000
FC0000
FC0000
FC0000
FC0FC0
FFFFC0
FFFFC0
FFFF80
FFFF00
FFFF00
FFFE00
000000
000000
07E000
07E000
ENDCHAR
STARTCHAR 1EC7
ENCODING 7879
SWIDTH 540 0
DWIDTH 21 0
BBX 18 38 2 -4
BITMAP
1FF000
3FF800
FFFE00
F81E00
E00E00
000000
000000
FFFE00
FFFF00
FFFF00
FFFF80
FFFFC0
FFFFC0
FC0FC0
FC0000
FC0000
FC0000
FC0000
FFF800
FFF800
FFF800
FFF800
FFF800
FC0000
FC0000
FC0000
FC0000
FC0FC0
FFFFC0
FFFFC0
FFFF80
FFFF00
FFFF00
FFFE00
000000
000000
07E000
07E000
ENDCHAR
STARTCHAR 1EC8
ENCODING 7880
SWIDTH 231 0
DWIDTH 9 0
BBX 7 35 1 0
BITMAP
7C
FE
CE
1C
18
18
00
00
7E
7E
7E
7E
7E
7E
7E
7E
7E
7E
7E
7E
7E
7E
7E
7E
7E
7E
7E
7E
7E
7E
7E
7E
7E
7E
7E
ENDCHAR
STARTCHAR 1EC9
ENCODING 7881
SWIDTH 231 0
DWIDTH 9 0
BBX 7 35 1 0
BITMAP
7C
FE
CE
1C
18
18
00
00
7E
7E
7E
7E
7E
7E
7E
7E
7E
7E
7E
7E
7E
7E
7E
7E
7E
7E
7E
7E
7E
7E
7E
7E
7E
7E
7E
ENDCHAR
STARTCHAR 1ECA
ENCODING 7882
SWIDTH 231 0
DWIDTH 9 0
BBX 6 31 2 -4
BITMAP
FC
FC
FC
FC
FC
FC
FC
FC
FC
FC
FC
FC
FC
FC
FC
FC
FC
FC
FC
FC
FC
FC
FC
FC
FC
FC
FC
00
00
FC
FC
ENDCHAR
STARTCHAR 1ECB
ENCODING 7883
SWIDTH 231 0
DWIDTH 9 0
BBX 6 31 2 -4
BITMAP
FC
FC
FC
FC
FC
FC
FC
FC
FC
FC
FC
FC
FC
FC
FC
FC
FC
FC
FC
FC
FC
FC
FC
FC
FC
FC
FC
00
00
FC
FC
ENDCHAR
STARTCHAR 1ECC
ENCODING 7884
SWIDTH 617 0
DWIDTH 24 0
BBX 21 31 2 -4
BITMAP
3FFFC0
7FFFE0
7FFFE0
FFFFF0
FFFFF8
FFFFF8
FC03F8
FC01F8
FC01F8
FC01F8
FC01F8
FC01F8
FC01F8
FC01F8
FC01F8
FC01F8
FC01F8
FC01F8
FC01F8
FC01F8
FC03F8
FFFFF8
FFFFF8
FFFFF0
7FFFE0
3FFFE0
3FFFC0
000000
000000
01FC00
01FC00
ENDCHAR
STARTCHAR 1ECD
ENCODING 7885
SWIDTH 617 0
DWIDTH 24 0
BBX 21 31 2 -4
BITMAP
3FFFC0
7FFFE0
7FFFE0
FFFFF0
FFFFF8
FFFFF8
FC03F8
FC01F8
FC01F8
FC01F8
FC01F8
FC01F8
FC01F8
FC01F8
FC01F8
FC01F8
FC01F8
FC01F8
FC01F8
FC01F8
FC03F8
FFFFF8
FFFFF8
FFFFF0
7FFFE0
3FFFE0
3FFFC0
000000
000000
01FC00
01FC00
ENDCHAR
STARTCHAR 1ECE
ENCODING 7886
SWIDTH 617 0
DWIDTH 24 0
BBX 21 35 2 0
BITMAP
00F800
01FC00
019C00
003800
003000
003000
000000
000000
3FFFC0
7FFFE0
7FFFE0
FFFFF0
FFFFF8
FFFFF8
FC03F8
FC01F8
FC01F8
FC01F8
FC01F8
FC01F8
FC01F8
FC01F8
FC01F8
FC01F8
FC01F8
FC01F8
FC01F8
FC01F8
FC03F8
FFFFF8
FFFFF8
FFFFF0
7FFFE0
3FFFE0
3FFFC0
ENDCHAR
STARTCHAR 1ECF
ENCODING 7887
SWIDTH 617 0
DWIDTH 24 0
BBX 21 35 2 0
BITMAP
00F800
01FC00
019C00
003800
003000
003000
000000
000000
3FFFC0
7FFFE0
7FFFE0
FFFFF0
FFFFF8
FFFFF8
FC03F8
FC01F8
FC01F8
FC01F8
FC01F8
FC01F8
FC01F8
FC01F8
FC01F8
FC01F8
FC01F8
FC01F8
FC01F8
FC01F8
FC03F8
FFFFF8
FFFFF8
FFFFF0
7FFFE0
3FFFE0
3FFFC0
ENDCHAR
STARTCHAR 1ED0
ENCODING 7888
SWIDTH 617 0
DWIDTH 24 0
BBX 21 39 2 0
BITMAP
007F80
1FFF80
1FF800
1F0000
000000
07FE00
0FFF00
1FFF80
3E07C0
3C03C0
000000
000000
3FFFC0
7FFFE0
7FFFE0
FFFFF0
FFFFF8
FFFFF8
FC03F8
FC01F8
FC01F8
FC01F8
FC01F8
FC01F8
FC01F8
FC01F8
FC01F8
FC01F8
FC01F8
FC01F8
FC01F8
FC01F8
FC03F8
FFFFF8
FFFFF8
FFFFF0
7FFFE0
3FFFE0
3FFFC0
ENDCHAR
STARTCHAR 1ED1
ENCODING 7889
SWIDTH 617 0
DWIDTH 24 0
BBX 21 39 2 0
BITMAP
007F80
1FFF80
1FF800
1F0000
000000
07FE00
0FFF00
1FFF80
3E07C0
3C03C0
000000
000000
3FFFC0
7FFFE0
7FFFE0
FFFFF0
FFFFF8
FFFFF8
FC03F8
FC01F8
FC01F8
FC01F8
FC01F8
FC01F8
FC01F8
FC01F8
FC01F8
FC01F8
FC01F8
FC01F8
FC01F8
FC01F8
FC03F8
FFFFF8
FFFFF8
FFFFF0
7FFFE0
3FFFE0
3FFFC0
ENDCHAR
STARTCHAR 1ED2
ENCODING 7890
SWIDTH 617 0
DWIDTH 24 0
BBX 21 39 2 0
BITMAP
1F8000
1FFC00
0FFF80
001F80
000000
07FE00
0FFF00
1FFF80
3E07C0
3C03C0
000000
000000
3FFFC0
7FFFE0
7FFFE0
FFFFF0
FFFFF8
FFFFF8
FC03F8
FC01F8
FC01F8
FC01F8
FC01F8
FC01F8
FC01F8
FC01F8
FC01F8
FC01F8
FC01F8
FC01F8
FC01F8
FC01F8
FC03F8
FFFFF8
FFFFF8
FFFFF0
7FFFE0
3FFFE0
3FFFC0
ENDCHAR
STARTCHAR 1ED3
ENCODING 7891
SWIDTH 617 0
DWIDTH 24 0
BBX 21 39 2 0
BITMAP
1F8000
1FFC00
0FFF80
001F80
000000
07FE00
0FFF00
1FFF80
3E07C0
3C03C0
000000
000000
3FFFC0
7FFFE0
7FFFE0
FFFFF0
FFFFF8
FFFFF8
FC03F8
FC01F8
FC01F8
FC01F8
FC01F8
FC01F8
FC01F8
FC01F8
FC01F8
FC01F8
FC01F8
FC01F8
FC01F8
FC01F8
FC03F8
FFFFF8
FFFFF8
FFFFF0
7FFFE0
3FFFE0
3FFFC0
ENDCHAR
STARTCHAR 1ED4
ENCODING 7892
SWIDTH 617 0
DWIDTH 24 0
BBX 21 41 2 0
BITMAP
01FC00
01FC00
019C00
003800
003000
003000
000000
07FE00
0FFF00
1FFF80
3E07C0
3C03C0
000000
000000
3FFFC0
7FFFE0
7FFFE0
FFFFF0
FFFFF8
FFFFF8
FC03F8
FC01F8
FC01F8
FC01F8
FC01F8
FC01F8
FC01F8
FC01F8
FC01F8
FC01F8
FC01F8
FC01F8
FC01F8
FC01F8
FC03F8
FFFFF8
FFFFF8
FFFFF0
7FFFE0
3FFFE0
3FFFC0
ENDCHAR
STARTCHAR 1ED5
ENCODING 7893
SWIDTH 617 0
DWIDTH 24 0
BBX 21 41 2 0
BITMAP
01FC00
01FC00
019C00
003800
003000
003000
000000
07FE00
0FFF00
1FFF80
3E07C0
3C03C0
000000
000000
3FFFC0
7FFFE0
7FFFE0
FFFFF0
FFFFF8
FFFFF8
FC03F8
FC01F8
FC01F8
FC01F8
FC01F8
FC01F8
FC01F8
FC01F8
FC01F8
FC01F8
FC01F8
FC01F8
FC01F8
FC01F8
FC03F8
FFFFF8
FFFFF8
FFFFF0
7FFFE0
3FFFE0
3FFFC0
ENDCHAR
STARTCHAR 1ED6
ENCODING 7894
SWIDTH 617 0
DWIDTH 24 0
BBX 21 40 2 0
BITMAP
03C000
0FF9C0
3FFFC0
3C3FC0
300700
000000
07FE00
0FFF00
1FFF80
3E07C0
3C03C0
000000
000000
3FFFC0
7FFFE0
7FFFE0
FFFFF0
FFFFF8
FFFFF8
FC03F8
FC01F8
FC01F8
FC01F8
FC01F8
FC01F8
FC01F8
FC01F8
FC01F8
FC01F8
FC01F8
FC01F8
FC01F8
FC01F8
FC03F8
FFFFF8
FFFFF8
FFFFF0
7FFFE0
3FFFE0
3FFFC0
ENDCHAR
STARTCHAR 1ED7
ENCODING 7895
SWIDTH 617 0
DWIDTH 24 0
BBX 21 40 2 0
BITMAP
03C000
0FF9C0
3FFFC0
3C3FC0
300700
000000
07FE00
0FFF00
1FFF80
3E07C0
3C03C0
000000
000000
3FFFC0
7FFFE0
7FFFE0
FFFFF0
FFFFF8
FFFFF8
FC03F8
FC01F8
FC01F8
FC01F8
FC01F8
FC01F8
FC01F8
FC01F8
FC01F8
FC01F8
FC01F8
FC01F8
FC01F8
FC01F8
FC03F8
FFFFF8
FFFFF8
FFFFF0
7FFFE0
3FFFE0
3FFFC0
ENDCHAR
STARTCHAR 1ED8
ENCODING 7896
SWIDTH 617 0
DWIDTH 24 0
BBX 21 38 2 -4
BITMAP
07FE00
0FFF00
1FFF80
3E07C0
3C03C0
000000
000000
3FFFC0
7FFFE0
7FFFE0
FFFFF0
FFFFF8
FFFFF8
FC03F8
FC01F8
FC01F8
FC01F8
FC01F8
FC01F8
FC01F8
FC01F8
FC01F8
FC01F8
FC01F8
FC01F8
FC01F8
FC01F8
FC03F8
FFFFF8
FFFFF8
FFFFF0
7FFFE0
3FFFE0
3FFFC0
000000
000000
01FC00
01FC00
ENDCHAR
STARTCHAR 1ED9
ENCODING 7897
SWIDTH 617 0
DWIDTH 24 0
BBX 21 38 2 -4
BITMAP
07FE00
0FFF00
1FFF80
3E07C0
3C03C0
000000
000000
3FFFC0
7FFFE0
7FFFE0
FFFFF0
FFFFF8
FFFFF8
FC03F8
FC01F8
FC01F8
FC01F8
FC01F8
FC01F8
FC01F8
FC01F8
FC01F8
FC01F8
FC01F8
FC01F8
FC01F8
FC01F8
FC03F8
FFFFF8
FFFFF8
FFFFF0
7FFFE0
3FFFE0
3FFFC0
000000
000000
01FC00
01FC00
ENDCHAR
STARTCHAR 1EDA
ENCODING 7898
SWIDTH 617 0
DWIDTH 24 0
BBX 22 33 2 0
BITMAP
000F80
0FFF80
1FFC00
1FC01C
00001C
00003C
3FFFFC
7FFFF8
7FFFF0
FFFFF0
FFFFF8
FFFFF8
FC03F8
FC01F8
FC01F8
FC01F8
FC01F8
FC01F8
FC01F8
FC01F8
FC01F8
FC01F8
FC01F8
FC01F8
FC01F8
FC01F8
FC03F8
FFFFF8
FFFFF8
FFFFF0
7FFFE0
3FFFE0
3FFFC0
ENDCHAR
STARTCHAR 1EDB
ENCODING 7899
SWIDTH 617 0
DWIDTH 24 0
BBX 22 33 2 0
BITMAP
000F80
0FFF80
1FFC00
1FC01C
00001C
00003C
3FFFFC
7FFFF8
7FFFF0
FFFFF0
FFFFF8
FFFFF8
FC03F8
FC01F8
FC01F8
FC01F8
FC01F8
FC01F8
FC01F8
FC01F8
FC01F8
FC01F8
FC01F8
FC01F8
FC01F8
FC01F8
FC03F8
FFFFF8
FFFFF8
FFFFF0
7FFFE0
3FFFE0
3FFFC0
ENDCHAR
STARTCHAR 1EDC
ENCODING 7900
SWIDTH 617 0
DWIDTH 24 0
BBX 22 33 2 0
BITMAP
3C0000
3FE000
3FFF00
07FF1C
00001C
00003C
3FFFFC
7FFFF8
7FFFF0
FFFFF0
FFFFF8
FFFFF8
FC03F8
FC01F8
FC01F8
FC01F8
FC01F8
FC01F8
FC01F8
FC01F8
FC01F8
FC01F8
FC01F8
FC01F8
FC01F8
FC01F8
FC03F8
FFFFF8
FFFFF8
FFFFF0
7FFFE0
3FFFE0
3FFFC0
ENDCHAR
STARTCHAR 1EDD
ENCODING 7901
SWIDTH 617 0
DWIDTH 24 0
BBX 22 33 2 0
BITMAP
3C0000
3FE000
3FFF00
07FF1C
00001C
00003C
3FFFFC
7FFFF8
7FFFF0
FFFFF0
FFFFF8
FFFFF8
FC03F8
FC01F8
FC01F8
FC01F8
FC01F8
FC01F8
FC01F8
FC01F8
FC01F8
FC01F8
FC01F8
FC01F8
FC01F8
FC01F8
FC03F8
FFFFF8
FFFFF8
FFFFF0
7FFFE0
3FFFE0
3FFFC0
ENDCHAR
STARTCHAR 1EDE
ENCODING 7902
SWIDTH 617 0
DWIDTH 24 0
BBX 22 35 2 0
BITMAP
00F800
01FC00
019C00
003800
003000
00301C
00001C
00003C
3FFFFC
7FFFF8
7FFFF0
FFFFF0
FFFFF8
FFFFF8
FC03F8
FC01F8
FC01F8
FC01F8
FC01F8
FC01F8
FC01F8
FC01F8
FC01F8
FC01F8
FC01F8
FC01F8
FC01F8
FC01F8
FC03F8
FFFFF8
FFFFF8
FFFFF0
7FFFE0
3FFFE0
3FFFC0
ENDCHAR
STARTCHAR 1EDF
ENCODING 7903
SWIDTH 617 0
DWIDTH 24 0
BBX 22 35 2 0
BITMAP
00F800
01FC00
019C00
003800
003000
00301C
00001C
00003C
3FFFFC
7FFFF8
7FFFF0
FFFFF0
FFFFF8
FFFFF8
FC03F8
FC01F8
FC01F8
FC01F8
FC01F8
FC01F8
FC01F8
FC01F8
FC01F8
FC01F8
FC01F8
FC01F8
FC01F8
FC01F8
FC03F8
FFFFF8
FFFFF8
FFFFF0
7FFFE0
3FFFE0
3FFFC0
ENDCHAR
STARTCHAR 1EE0
ENCODING 7904
SWIDTH 617 0
DWIDTH 24 0
BBX 22 36 2 0
BITMAP
010000
07E040
1FFDC0
3EFFC0
381F80
300200
00001C
00001C
00003C
3FFFFC
7FFFF8
7FFFF0
FFFFF0
FFFFF8
FFFFF8
FC03F8
FC01F8
FC01F8
FC01F8
FC01F8
FC01F8
FC01F8
FC01F8
FC01F8
FC01F8
FC01F8
FC01F8
FC01F8
FC01F8
FC03F8
FFFFF8
FFFFF8
FFFFF0
7FFFE0
3FFFE0
3FFFC0
ENDCHAR
STARTCHAR 1EE1
ENCODING 7905
SWIDTH 617 0
DWIDTH 24 0
BBX 22 36 2 0
BITMAP
010000
07E040
1FFDC0
3EFFC0
381F80
300200
00001C
00001C
00003C
3FFFFC
7FFFF8
7FFFF0
FFFFF0
FFFFF8
FFFFF8
FC03F8
FC01F8
FC01F8
FC01F8
FC01F8
FC01F8
FC01F8
FC01F8
FC01F8
FC01F8
FC01F8
FC01F8
FC01F8
FC01F8
FC03F8
FFFFF8
FFFFF8
FFFFF0
7FFFE0
3FFFE0
3FFFC0
ENDCHAR
STARTCHAR 1EE2
ENCODING 7906
SWIDTH 617 0
DWIDTH 24 0
BBX 22 34 2 -4
BITMAP
00001C
00001C
00003C
3FFFFC
7FFFF8
7FFFF0
FFFFF0
FFFFF8
FFFFF8
FC03F8
FC01F8
FC01F8
FC01F8
FC01F8
FC01F8
FC01F8
FC01F8
FC01F8
FC01F8
FC01F8
FC01F8
FC01F8
FC01F8
FC03F8
FFFFF8
FFFFF8
FFFFF0
7FFFE0
3FFFE0
3FFFC0
000000
000000
01FC00
01FC00
ENDCHAR
STARTCHAR 1EE3
ENCODING 7907
SWIDTH 617 0
DWIDTH 24 0
BBX 22 34 2 -4
BITMAP
00001C
00001C
00003C
3FFFFC
7FFFF8
7FFFF0
FFFFF0
FFFFF8
FFFFF8
FC03F8
FC01F8
FC01F8
FC01F8
FC01F8
FC01F8
FC01F8
FC01F8
FC01F8
FC01F8
FC01F8
FC01F8
FC01F8
FC01F8
FC03F8
FFFFF8
FFFFF8
FFFFF0
7FFFE0
3FFFE0
3FFFC0
000000
000000
01FC00
01FC00
ENDCHAR
STARTCHAR 1EE4
ENCODING 7908
SWIDTH 591 0
DWIDTH 23 0
BBX 20 31 2 -4
BITMAP
FC03F0
FC03F0
FC03F0
FC03F0
FC03F0
FC03F0
FC03F0
FC03F0
FC03F0
FC03F0
FC03F0
FC03F0
FC03F0
FC03F0
FC03F0
FC03F0
FC03F0
FC03F0
FC03F0
FC03F0
FC03F0
FFFFF0
FFFFF0
FFFFF0
7FFFE0
3FFFC0
3FFFC0
000000
000000
01F800
01F800
ENDCHAR
STARTCHAR 1EE5
ENCODING 7909
SWIDTH 591 0
DWIDTH 23 0
BBX 20 31 2 -4
BITMAP
FC03F0
FC03F0
FC03F0
FC03F0
FC03F0
FC03F0
FC03F0
FC03F0
FC03F0
FC03F0
FC03F0
FC03F0
FC03F0
FC03F0
FC03F0
FC03F0
FC03F0
FC03F0
FC03F0
FC03F0
FC03F0
FFFFF0
FFFFF0
FFFFF0
7FFFE0
3FFFC0
3FFFC0
000000
000000
01F800
01F800
ENDCHAR
STARTCHAR 1EE6
ENCODING 7910
SWIDTH 591 0
DWIDTH 23 0
BBX 20 35 2 0
BITMAP
01F800
03FC00
039800
003800
007000
007000
000000
000000
FC03F0
FC03F0
FC03F0
FC03F0
FC03F0
FC03F0
FC03F0
FC03F0
FC03F0
FC03F0
FC03F0
FC03F0
FC03F0
FC03F0
FC03F0
FC03F0
FC03F0
FC03F0
FC03F0
FC03F0
FC03F0
FFFFF0
FFFFF0
FFFFF0
7FFFE0
3FFFC0
3FFFC0
ENDCHAR
STARTCHAR 1EE7
ENCODING 7911
SWIDTH 591 0
DWIDTH 23 0
BBX 20 35 2 0
BITMAP
01F800
03FC00
039800
003800
007000
007000
000000
000000
FC03F0
FC03F0
FC03F0
FC03F0
FC03F0
FC03F0
FC03F0
FC03F0
FC03F0
FC03F0
FC03F0
FC03F0
FC03F0
FC03F0
FC03F0
FC03F0
FC03F0
FC03F0
FC03F0
FC03F0
FC03F0
FFFFF0
FFFFF0
FFFFF0
7FFFE0
3FFFC0
3FFFC0
ENDCHAR
STARTCHAR 1EE8
ENCODING 7912
SWIDTH 591 0
DWIDTH 23 0
BBX 22 33 2 0
BITMAP
000F80
0FFF80
1FFC00
1FC018
00001C
00003C
FC03FC
FC03F8
FC03F0
FC03F0
FC03F0
FC03F0
FC03F0
FC03F0
FC03F0
FC03F0
FC03F0
FC03F0
FC03F0
FC03F0
FC03F0
FC03F0
FC03F0
FC03F0
FC03F0
FC03F0
FC03F0
FFFFF0
FFFFF0
FFFFF0
7FFFE0
3FFFC0
3FFFC0
ENDCHAR
STARTCHAR 1EE9
ENCODING 7913
SWIDTH 591 0
DWIDTH 23 0
BBX 22 33 2 0
BITMAP
000F80
0FFF80
1FFC00
1FC018
00001C
00003C
FC03FC
FC03F8
FC03F0
FC03F0
FC03F0
FC03F0
FC03F0
FC03F0
FC03F0
FC03F0
FC03F0
FC03F0
FC03F0
FC03F0
FC03F0
FC03F0
FC03F0
FC03F0
FC03F0
FC03F0
FC03F0
FFFFF0
FFFFF0
FFFFF0
7FFFE0
3FFFC0
3FFFC0
ENDCHAR
STARTCHAR 1EEA
ENCODING 7914
SWIDTH 591 0
DWIDTH 23 0
BBX 22 33 2 0
BITMAP
3C0000
3FE000
3FFF00
07FF18
00001C
00003C
FC03FC
FC03F8
FC03F0
FC03F0
FC03F0
FC03F0
FC03F0
FC03F0
FC03F0
FC03F0
FC03F0
FC03F0
FC03F0
FC03F0
FC03F0
FC03F0
FC03F0
FC03F0
FC03F0
FC03F0
FC03F0
FFFFF0
FFFFF0
FFFFF0
7FFFE0
3FFFC0
3FFFC0
ENDCHAR
STARTCHAR 1EEB
ENCODING 7915
SWIDTH 591 0
DWIDTH 23 0
BBX 22 33 2 0
BITMAP
3C0000
3FE000
3FFF00
07FF18
00001C
00003C
FC03FC
FC03F8
FC03F0
FC03F0
FC03F0
FC03F0
FC03F0
FC03F0
FC03F0
FC03F0
FC03F0
FC03F0
FC03F0
FC03F0
FC03F0
FC03F0
FC03F0
FC03F0
FC03F0
FC03F0
FC03F0
FFFFF0
FFFFF0
FFFFF0
7FFFE0
3FFFC0
3FFFC0
ENDCHAR
STARTCHAR 1EEC
ENCODING 7916
SWIDTH 591 0
DWIDTH 23 0
BBX 22 35 2 0
BITMAP
01F800
01FC00
039800
003800
007000
007018
00001C
00003C
FC03FC
FC03F8
FC03F0
FC03F0
FC03F0
FC03F0
FC03F0
FC03F0
FC03F0
FC03F0
FC03F0
FC03F0
FC03F0
FC03F0
FC03F0
FC03F0
FC03F0
FC03F0
FC03F0
FC03F0
FC03F0
FFFFF0
FFFFF0
FFFFF0
7FFFE0
3FFFC0
3FFFC0
ENDCHAR
STARTCHAR 1EED
ENCODING 7917
SWIDTH 591 0
DWIDTH 23 0
BBX 22 35 2 0
BITMAP
01F800
01FC00
039800
003800
007000
007018
00001C
00003C
FC03FC
FC03F8
FC03F0
FC03F0
FC03F0
FC03F0
FC03F0
FC03F0
FC03F0
FC03F0
FC03F0
FC03F0
FC03F0
FC03F0
FC03F0
FC03F0
FC03F0
FC03F0
FC03F0
FC03F0
FC03F0
FFFFF0
FFFFF0
FFFFF0
7FFFE0
3FFFC0
3FFFC0
ENDCHAR
STARTCHAR 1EEE
ENCODING 7918
SWIDTH 591 0
DWIDTH 23 0
BBX 22 36 2 0
BITMAP
010000
07E040
1FFDC0
3EFFC0
381F80
300200
000018
00001C
00003C
FC03FC
FC03F8
FC03F0
FC03F0
FC03F0
FC03F0
FC03F0
FC03F0
FC03F0
FC03F0
FC03F0
FC03F0
FC03F0
FC03F0
FC03F0
FC03F0
FC03F0
FC03F0
FC03F0
FC03F0
FC03F0
FFFFF0
FFFFF0
FFFFF0
7FFFE0
3FFFC0
3FFFC0
ENDCHAR
STARTCHAR 1EEF
ENCODING 7919
SWIDTH 591 0
DWIDTH 23 0
BBX 22 36 2 0
BITMAP
010000
07E040
1FFDC0
3EFFC0
381F80
300200
000018
00001C
00003C
FC03FC
FC03F8
FC03F0
FC03F0
FC03F0
FC03F0
FC03F0
FC03F0
FC03F0
FC03F0
FC03F0
FC03F0
FC03F0
FC03F0
FC03F0
FC03F0
FC03F0
FC03F0
FC03F0
FC03F0
FC03F0
FFFFF0
FFFFF0
FFFFF0
7FFFE0
3FFFC0
3FFFC0
ENDCHAR
STARTCHAR 1EF0
ENCODING 7920
SWIDTH 591 0
DWIDTH 23 0
BBX 22 34 2 -4
BITMAP
000018
00001C
00003C
FC03FC
FC03F8
FC03F0
FC03F0
FC03F0
FC03F0
FC03F0
FC03F0
FC03F0
FC03F0
FC03F0
FC03F0
FC03F0
FC03F0
FC03F0
FC03F0
FC03F0
FC03F0
FC03F0
FC03F0
FC03F0
FFFFF0
FFFFF0
FFFFF0
7FFFE0
3FFFC0
3FFFC0
000000
000000
01F800
01F800
ENDCHAR
STARTCHAR 1EF1
ENCODING 7921
SWIDTH 591 0
DWIDTH 23 0
BBX 22 34 2 -4
BITMAP
000018
00001C
00003C
FC03FC
FC03F8
FC03F0
FC03F0
FC03F0
FC03F0
FC03F0
FC03F0
FC03F0
FC03F0
FC03F0
FC03F0
FC03F0
FC03F0
FC03F0
FC03F0
FC03F0
FC03F0
FC03F0
FC03F0
FC03F0
FFFFF0
FFFFF0
FFFFF0
7FFFE0
3FFFC0
3FFFC0
000000
000000
01F800
01F800
ENDCHAR
STARTCHAR 1EF2
ENCODING 7922
SWIDTH 462 0
DWIDTH 18 0
BBX 18 33 0 0
BITMAP
3C0000
3FE000
3FFF00
07FF00
000000
000000
FC0FC0
FC0FC0
FE0FC0
FE1FC0
7E1F80
7F1F80
3F3F80
3F3F00
1FBF00
1FFE00
0FFE00
0FFC00
0FFC00
07F800
07F800
03F800
03F000
03F000
03F000
03F000
03F000
03F000
03F000
03F000
03F000
03F000
03F000
ENDCHAR
STARTCHAR 1EF3
ENCODING 7923
SWIDTH 462 0
DWIDTH 18 0
BBX 18 33 0 0
BITMAP
3C0000
3FE000
3FFF00
07FF00
000000
000000
FC0FC0
FC0FC0
FE0FC0
FE1FC0
7E1F80
7F1F80
3F3F80
3F3F00
1FBF00
1FFE00
0FFE00
0FFC00
0FFC00
07F800
07F800
03F800
03F000
03F000
03F000
03F000
03F000
03F000
03F000
03F000
03F000
03F000
03F000
ENDCHAR
STARTCHAR 1EF4
ENCODING 7924
SWIDTH 462 0
DWIDTH 18 0
BBX 18 31 0 -4
BITMAP
FC0FC0
FC0FC0
FE0FC0
FE1FC0
7E1F80
7F1F80
3F3F80
3F3F00
1FBF00
1FFE00
0FFE00
0FFC00
0FFC00
07F800
07F800
03F800
03F000
03F000
03F000
03F000
03F000
03F000
03F000
03F000
03F000
03F000
03F000
000000
000000
03F000
03F000
ENDCHAR
STARTCHAR 1EF5
ENCODING 7925
SWIDTH 462 0
DWIDTH 18 0
BBX 18 31 0 -4
BITMAP
FC0FC0
FC0FC0
FE0FC0
FE1FC0
7E1F80
7F1F80
3F3F80
3F3F00
1FBF00
1FFE00
0FFE00
0FFC00
0FFC00
07F800
07F800
03F800
03F000
03F000
03F000
03F000
03F000
03F000
03F000
03F000
03F000
03F000
03F000
000000
000000
03F000
03F000
ENDCHAR
STARTCHAR 1EF6
ENCODING 7926
SWIDTH 462 0
DWIDTH 18 0
BBX 18 35 0 0
BITMAP
03F000
03F800
073000
007000
00E000
00E000
000000
000000
FC0FC0
FC0FC0
FE0FC0
FE1FC0
7E1F80
7F1F80
3F3F80
3F3F00
1FBF00
1FFE00
0FFE00
0FFC00
0FFC00
07F800
07F800
03F800
03F000
03F000
03F000
03F000
03F000
03F000
03F000
03F000
03F000
03F000
03F000
ENDCHAR
STARTCHAR 1EF7
ENCODING 7927
SWIDTH 462 0
DWIDTH 18 0
BBX 18 35 0 0
BITMAP
03F000
03F800
073000
007000
00E000
00E000
000000
000000
FC0FC0
FC0FC0
FE0FC0
FE1FC0
7E1F80
7F1F80
3F3F80
3F3F00
1FBF00
1FFE00
0FFE00
0FFC00
0FFC00
07F800
07F800
03F800
03F000
03F000
03F000
03F000
03F000
03F000
03F000
03F000
03F000
03F000
03F000
ENDCHAR
STARTCHAR 1EF8
ENCODING 7928
SWIDTH 462 0
DWIDTH 18 0
BBX 18 35 0 0
BITMAP
070000
0FE180
3FFF80
7CFF80
701F00
000000
000000
000000
FC0FC0
FC0FC0
FE0FC0
FE1FC0
7E1F80
7F1F80
3F3F80
3F3F00
1FBF00
1FFE00
0FFE00
0FFC00
0FFC00
07F800
07F800
03F800
03F000
03F000
03F000
03F000
03F000
03F000
03F000
03F000
03F000
03F000
03F000
ENDCHAR
STARTCHAR 1EF9
ENCODING 7929
SWIDTH 462 0
DWIDTH 18 0
BBX 18 35 0 0
BITMAP
070000
0FE180
3FFF80
7CFF80
701F00
000000
000000
000000
FC0FC0
FC0FC0
FE0FC0
FE1FC0
7E1F80
7F1F80
3F3F80
3F3F00
1FBF00
1FFE00
0FFE00
0FFC00
0FFC00
07F800
07F800
03F800
03F000
03F000
03F000
03F000
03F000
03F000
03F000
03F000
03F000
03F000
03F000
ENDCHAR
STARTCHAR 2013
ENCODING 8211
SWIDTH 488 0
DWIDTH 19 0
BBX 18 4 1 11
BITMAP
FFFFC0
FFFFC0
FFFFC0
FFFFC0
ENDCHAR
STARTCHAR 2014
ENCODING 8212
SWIDTH 977 0
DWIDTH 38 0
BBX 37 4 1 11
BITMAP
FFFFFFFFF8
FFFFFFFFF8
FFFFFFFFF8
FFFFFFFFF8
ENDCHAR
STARTCHAR 2018
ENCODING 8216
SWIDTH 205 0
DWIDTH 8 0
BBX 7 9 1 18
BITMAP
3E
3C
78
F0
F0
F0
F0
F0
F0
ENDCHAR
STARTCHAR 2019
ENCODING 8217
SWIDTH 205 0
DWIDTH 8 0
BBX 7 9 1 18
BITMAP
3C
3E
3E
3E
3E
3C
78
F8
F0
ENDCHAR
STARTCHAR 201A
ENCODING 8218
SWIDTH 154 0
DWIDTH 6 0
BBX 7 9 -1 -4
BITMAP
1C
1E
1E
1E
3C
3C
78
F8
F0
ENDCHAR
STARTCHAR 201C
ENCODING 8220
SWIDTH 360 0
DWIDTH 14 0
BBX 13 9 1 18
BITMAP
3EF8
3CF0
79E0
F3E0
F3C0
F3C0
F3C0
F3C0
F1C0
ENDCHAR
STARTCHAR 201D
ENCODING 8221
SWIDTH 360 0
DWIDTH 14 0
BBX 13 9 1 18
BITMAP
3C70
3E78
3E78
3E78
3E78
3CF0
79E0
F9E0
F3C0
ENDCHAR
STARTCHAR 201E
ENCODING 8222
SWIDTH 360 0
DWIDTH 14 0
BBX 13 9 1 -4
BITMAP
3C70
3E78
3E78
3E78
3C78
3CF0
79E0
F3E0
F3C0
ENDCHAR
STARTCHAR 2020
ENCODING 8224
SWIDTH 514 0
DWIDTH 20 0
BBX 19 27 1 0
BITMAP
01E000
01E000
01E000
01E000
01E000
01E000
01E000
01E000
FFFFE0
FFFFE0
FFFFE0
01E000
01E000
01E000
01E000
01E000
01E000
01E000
01E000
01E000
01E000
01E000
01E000
01E000
01E000
01E000
01E000
ENDCHAR
STARTCHAR 2021
ENCODING 8225
SWIDTH 514 0
DWIDTH 20 0
BBX 19 27 1 0
BITMAP
01E000
01E000
01E000
01E000
01E000
01E000
01E000
01E000
FFFFE0
FFFFE0
FFFFE0
01E000
01E000
01E000
01E000
FFFFC0
FFFFC0
FFFFC0
FFFFC0
01E000
01E000
01E000
01E000
01E000
01E000
01E000
01E000
ENDCHAR
STARTCHAR 2022
ENCODING 8226
SWIDTH 231 0
DWIDTH 9 0
BBX 7 8 1 11
BITMAP
FE
FE
FE
FE
FE
FE
FE
FE
ENDCHAR
STARTCHAR 2026
ENCODING 8230
SWIDTH 488 0
DWIDTH 19 0
BBX 18 5 1 0
BITMAP
F9E7C0
F9E7C0
F9E7C0
F9E7C0
F9E7C0
ENDCHAR
STARTCHAR 2030
ENCODING 8240
SWIDTH 874 0
DWIDTH 34 0
BBX 31 27 2 0
BITMAP
FF03C000
FF87C000
FF878000
E7878000
E78F0000
E78F0000
FF9E0000
FF9E0000
FF3C0000
003C0000
00780000
00780000
00F80000
00F00000
01F00000
01E00000
03E00000
03C00000
07CFF3FC
079FF3FE
0F9FF3FE
0F1C738E
0F1C738E
1E1C738E
1E1FF3FE
3C1FF3FE
3C0FF3FC
ENDCHAR
STARTCHAR 2039
ENCODING 8249
SWIDTH 257 0
DWIDTH 10 0
BBX 8 15 1 6
BITMAP
01
07
0F
1F
3C
F8
F0
F0
F0
7C
3E
1F
07
03
01
ENDCHAR
STARTCHAR 203A
ENCODING 8250
SWIDTH 257 0
DWIDTH 10 0
BBX 8 15 1 6
BITMAP
C0
E0
F0
78
3E
1F
0F
0F
0F
1E
7C
F8
F0
C0
80
ENDCHAR
STARTCHAR 2044
ENCODING 8260
SWIDTH 334 0
DWIDTH 13 0
BBX 16 27 -1 0
BITMAP
000F
000E
001E
001C
003C
0038
0038
0070
0070
00F0
00E0
01E0
01C0
03C0
0380
0780
0700
0F00
0E00
1E00
1C00
3C00
3800
7800
7800
7000
F000
ENDCHAR
STARTCHAR 20AB
ENCODING 8363
SWIDTH 462 0
DWIDTH 18 0
BBX 18 27 -1 0
BITMAP
3FFF00
3FFF80
3FFFC0
3FFFC0
3FFFC0
3E07C0
3E07C0
3E07C0
3E07C0
FFC7C0
FFC7C0
FFC7C0
3E07C0
3E07C0
3E07C0
3E07C0
3E0FC0
3FFFC0
3FFFC0
3FFF80
3FFF00
3FFF00
000000
3FFFC0
3FFFC0
3FFFC0
3FFFC0
ENDCHAR
STARTCHAR 20AC
ENCODING 8364
SWIDTH 591 0
DWIDTH 23 0
BBX 20 27 2 0
BITMAP
3FFFC0
3FFFC0
3FFFE0
3FFFF0
3FFFF0
3FFFF0
3F03F0
3F0000
3F0000
FFF000
FFF000
FFF000
FFF000
3F0000
FFF000
FFF000
FFF000
FFF000
3F0000
3F0000
3F03F0
3FFFF0
3FFFF0
3FFFF0
3FFFE0
3FFFC0
3FFF80
ENDCHAR
STARTCHAR 2122
ENCODING 8482
SWIDTH 591 0
DWIDTH 23 0
BBX 23 13 0 14
BITMAP
7F8F3C
FFDF3E
EFDF3E
CEDFBE
0E1DBE
0E1DEE
0E1DEE
0E1DEE
0E1DEE
0E1DEE
0E1C0E
0E1C0E
0E1C0E
ENDCHAR
STARTCHAR 215B
ENCODING 8539
SWIDTH 642 0
DWIDTH 25 0
BBX 22 27 2 0
BITMAP
3C0380
7C0780
FC0700
FC0F00
DC0E00
1C1E00
1C1C00
1C3C00
1C3800
1C7800
1C7000
1CF000
1CE000
01E3F8
01C7F8
01CFFC
03CF3C
038E1C
078E1C
070FFC
0F07F8
0E0F1C
1E0E1C
1C0F1C
3C0FFC
3807FC
7807F8
ENDCHAR
STARTCHAR 215C
ENCODING 8540
SWIDTH 694 0
DWIDTH 27 0
BBX 24 27 2 0
BITMAP
FF00E0
FF01E0
7F01C0
0703C0
070380
7F0780
7F0700
7F0F00
070E00
071E00
7F1C00
FF3C00
FF3800
0078FC
0071FE
00F3FF
00F3CF
00E387
01E387
01C3FF
03C1FE
038387
078387
0703CF
0F03FF
0E01FE
1E01FE
ENDCHAR
STARTCHAR 215D
ENCODING 8541
SWIDTH 694 0
DWIDTH 27 0
BBX 24 27 2 0
BITMAP
FF00E0
FE01E0
FE01C0
E003C0
E00380
FF0780
FF0700
FF0F00
070E00
071E00
7F1C00
FF3C00
FF3800
0078FC
0071FE
0073FF
00F3CF
00E387
01E387
01C3FF
03C1FE
038387
078387
0703CF
0F03FF
0E01FE
1E01FE
ENDCHAR
STARTCHAR 215E
ENCODING 8542
SWIDTH 642 0
DWIDTH 25 0
BBX 22 27 2 0
BITMAP
FF0700
FF0700
7F0F00
0F0E00
0E1E00
1E1C00
1E3C00
1C3800
1C7800
3C7000
38F000
38E000
79E000
01C7F0
03C7F8
038FFC
038F3C
078E1C
070E1C
0F0FFC
0E07F8
1E0E3C
1C0E1C
3C0E3C
380FFC
780FF8
7007F8
ENDCHAR
STARTCHAR 2190
ENCODING 8592
SWIDTH 411 0
DWIDTH 16 0
BBX 15 12 1 5
BITMAP
1E00
3E00
7C00
F800
FFFE
FFFE
FFFE
FFFE
F800
7C00
3E00
1E00
ENDCHAR
STARTCHAR 2191
ENCODING 8593
SWIDTH 360 0
DWIDTH 14 0
BBX 13 14 1 5
BITMAP
1F80
3FC0
7FE0
FFF0
FF78
EF78
CF38
0F00
0F00
0F00
0F00
0F00
0F00
0F00
ENDCHAR
STARTCHAR 2192
ENCODING 8594
SWIDTH 411 0
DWIDTH 16 0
BBX 15 12 1 5
BITMAP
00E0
00F0
00F8
003C
FFFE
FFFE
FFFE
FFFE
003C
00F8
00F0
00E0
ENDCHAR
STARTCHAR 2193
ENCODING 8595
SWIDTH 360 0
DWIDTH 14 0
BBX 13 14 1 5
BITMAP
0F00
0F00
0F00
0F00
0F00
0F00
0F00
CF38
EF78
FF78
FFF0
7FE0
3FC0
1F80
ENDCHAR
STARTCHAR 2194
ENCODING 8596
SWIDTH 514 0
DWIDTH 20 0
BBX 19 12 1 5
BITMAP
1E0E00
3E0F80
7C07C0
F803E0
FFFFE0
FFFFE0
FFFFE0
FFFFE0
F803E0
7C0780
3E0F00
1E0E00
ENDCHAR
STARTCHAR 2195
ENCODING 8597
SWIDTH 360 0
DWIDTH 14 0
BBX 13 19 1 5
BITMAP
0F80
1FC0
3FE0
7FE0
FFF0
FF78
EF38
0F00
0F00
0F00
0F00
0F00
CF38
EF78
FF78
FFF0
7FE0
3FC0
1F80
ENDCHAR
STARTCHAR 2196
ENCODING 8598
SWIDTH 385 0
DWIDTH 15 0
BBX 14 13 1 5
BITMAP
1F80
3FC0
7FC0
FF80
FE00
FF00
FF80
FFC0
F3F0
F1F8
70FC
2078
0030
ENDCHAR
STARTCHAR 2197
ENCODING 8599
SWIDTH 385 0
DWIDTH 15 0
BBX 14 13 1 5
BITMAP
07C0
1FF0
1FF0
0FF8
01FC
03FC
0FFC
1FB8
3F38
7E38
FC38
7800
2000
ENDCHAR
STARTCHAR 2198
ENCODING 8600
SWIDTH 385 0
DWIDTH 15 0
BBX 14 13 1 5
BITMAP
2000
7000
F810
FC38
7E38
3FB8
0FFC
07FC
03FC
01FC
0FF8
1FF0
0FE0
ENDCHAR
STARTCHAR 2199
ENCODING 8601
SWIDTH 385 0
DWIDTH 15 0
BBX 14 13 1 5
BITMAP
0010
0030
2078
71FC
F3F0
F7E0
EFC0
FF80
FF00
FC00
7FC0
3FE0
3FC0
ENDCHAR
STARTCHAR 220F
ENCODING 8719
SWIDTH 488 0
DWIDTH 19 0
BBX 18 27 1 0
BITMAP
FFFFC0
FFFFC0
FFFFC0
FFFFC0
1E3C00
1E3C00
1E3C00
1E3C00
1E3C00
1E3C00
1E3C00
1E3C00
1E3C00
1E3C00
1E3C00
1E3C00
1E3C00
1E3C00
1E3C00
1E3C00
1E3C00
1E3C00
1E3C00
1E3C00
1E3C00
1E3C00
1E3C00
ENDCHAR
STARTCHAR 2211
ENCODING 8721
SWIDTH 385 0
DWIDTH 15 0
BBX 14 27 1 0
BITMAP
FFFC
FFFC
FFFC
FFF8
F800
7800
7C00
3C00
3E00
1E00
1F00
0F00
0F80
0780
0F80
0F00
1F00
1E00
3E00
3C00
7C00
7800
F800
FFF8
FFFC
FFFC
FFFC
ENDCHAR
STARTCHAR 2212
ENCODING 8722
SWIDTH 411 0
DWIDTH 16 0
BBX 15 4 1 12
BITMAP
FFFE
FFFE
FFFE
FFFE
ENDCHAR
STARTCHAR 221A
ENCODING 8730
SWIDTH 514 0
DWIDTH 20 0
BBX 30 35 1 0
BITMAP
0001FFF8
0001FFFC
0001FFFC
0001FFFC
0001E000
0001E000
0001E000
0001C000
0003C000
0003C000
0003C000
0003C000
0003C000
0003C000
0003C000
00078000
00078000
00078000
00078000
00078000
FE078000
FE078000
FE0F0000
FF0F0000
0F0F0000
0F0F0000
078F0000
078F0000
078F0000
03CE0000
03DE0000
03FE0000
01FE0000
01FE0000
01FE0000
ENDCHAR
STARTCHAR 2260
ENCODING 8800
SWIDTH 411 0
DWIDTH 16 0
BBX 15 16 1 5
BITMAP
01E0
01E0
01E0
FFFE
FFFE
FFFE
FFFE
07C0
0780
FFFE
FFFE
FFFE
FFFE
0F00
0F00
1E00
ENDCHAR
STARTCHAR 2264
ENCODING 8804
SWIDTH 385 0
DWIDTH 15 0
BBX 14 27 1 0
BITMAP
000C
003C
00FC
01FC
07FC
1FF8
7FE0
FF80
FE00
F000
F000
F800
FE00
FF80
7FE0
1FF8
07FC
01FC
007C
001C
000C
0000
0000
FFFC
FFFC
FFFC
FFFC
ENDCHAR
STARTCHAR 2265
ENCODING 8805
SWIDTH 385 0
DWIDTH 15 0
BBX 14 27 1 0
BITMAP
8000
E000
F800
FE00
FF80
7FC0
1FF0
07FC
01FC
007C
003C
007C
01FC
07FC
1FF0
7FC0
FF00
FE00
F800
E000
8000
0000
0000
FFFC
FFFC
FFFC
FFFC
ENDCHAR
ENDFONT
